<mxfile host="app.diagrams.net" agent="Mozilla/5.0 (Windows NT 10.0; Win64; x64) AppleWebKit/537.36 (KHTML, like Gecko) Chrome/139.0.0.0 Safari/537.36 Edg/139.0.0.0" version="28.1.0">
  <diagram name="第 1 页" id="FaE2WmmqIbeJhJUzbk5Q">
    <mxGraphModel dx="1316" dy="821" grid="1" gridSize="10" guides="1" tooltips="1" connect="1" arrows="1" fold="1" page="1" pageScale="1" pageWidth="827" pageHeight="1169" math="1" shadow="0">
      <root>
        <mxCell id="0" />
        <mxCell id="1" parent="0" />
        <mxCell id="cV3VLb_g4MpRarHLT8mB-1" value="陷波器" style="text;html=1;align=center;verticalAlign=middle;whiteSpace=wrap;rounded=0;fontSize=26;fontFamily=Comic Sans MS;fontColor=#3333FF;fontStyle=1" vertex="1" parent="1">
          <mxGeometry x="250" y="40" width="280" height="60" as="geometry" />
        </mxCell>
        <mxCell id="cV3VLb_g4MpRarHLT8mB-2" value="&lt;div style=&quot;color: rgb(0, 0, 0); font-weight: normal; line-height: 19px; white-space: pre;&quot;&gt;&lt;div&gt;&lt;span style=&quot;color: rgb(0, 0, 0);&quot;&gt;陷波器是一种特殊的带阻滤波器，阻带非常狭窄，在一个特殊的频率点迅速衰减输入信号，达到陷波效果。&lt;/span&gt;&lt;/div&gt;&lt;/div&gt;" style="text;html=1;align=center;verticalAlign=middle;whiteSpace=wrap;rounded=0;fontSize=15;labelBackgroundColor=none;fontFamily=Comic Sans MS;" vertex="1" parent="1">
          <mxGeometry x="30" y="110" width="720" height="30" as="geometry" />
        </mxCell>
        <mxCell id="cV3VLb_g4MpRarHLT8mB-3" value="&lt;span style=&quot;color: rgb(0, 0, 0); font-family: -apple-system, BlinkMacSystemFont, &amp;quot;Segoe WPC&amp;quot;, &amp;quot;Segoe UI&amp;quot;, system-ui, Ubuntu, &amp;quot;Droid Sans&amp;quot;, sans-serif; font-size: 14px; font-style: normal; font-variant-ligatures: normal; font-variant-caps: normal; font-weight: 400; letter-spacing: normal; orphans: 2; text-align: start; text-indent: 0px; text-transform: none; widows: 2; word-spacing: 0px; -webkit-text-stroke-width: 0px; white-space: normal; text-decoration-thickness: initial; text-decoration-style: initial; text-decoration-color: initial; display: inline !important; float: none;&quot;&gt;传递函数：&lt;/span&gt;" style="text;whiteSpace=wrap;html=1;" vertex="1" parent="1">
          <mxGeometry x="36" y="160" width="100" height="40" as="geometry" />
        </mxCell>
        <mxCell id="cV3VLb_g4MpRarHLT8mB-4" value="\[H\left( s \right) = \frac{{{s^2} + KB{\omega _n}s + {\omega _n}^2}}{{{s^2} + B{\omega _n}s + {\omega _n}^2}}\]" style="text;whiteSpace=wrap;html=1;fontSize=14;" vertex="1" parent="1">
          <mxGeometry x="110" y="136" width="240" height="60" as="geometry" />
        </mxCell>
        <mxCell id="cV3VLb_g4MpRarHLT8mB-5" value="&lt;span style=&quot;font-style: normal; font-variant-ligatures: normal; font-variant-caps: normal; font-weight: 400; letter-spacing: normal; orphans: 2; text-align: justify; text-indent: 0px; text-transform: none; widows: 2; word-spacing: 0px; -webkit-text-stroke-width: 0px; white-space: normal; text-decoration-thickness: initial; text-decoration-style: initial; text-decoration-color: initial; float: none; display: inline !important;&quot;&gt;陷波器的三个参数:&lt;/span&gt;" style="text;whiteSpace=wrap;html=1;fontSize=15;fontFamily=Comic Sans MS;labelBackgroundColor=none;fontColor=default;" vertex="1" parent="1">
          <mxGeometry x="36" y="210" width="180" height="50" as="geometry" />
        </mxCell>
        <UserObject label="&lt;ol style=&quot;font-style: normal; font-variant-ligatures: normal; font-variant-caps: normal; font-weight: 400; letter-spacing: normal; orphans: 2; text-align: justify; text-indent: 0px; text-transform: none; widows: 2; word-spacing: 0px; -webkit-text-stroke-width: 0px; white-space: normal; text-decoration-thickness: initial; text-decoration-style: initial; text-decoration-color: initial;&quot;&gt;&lt;li&gt;&lt;span class=&quot;katex&quot;&gt;&lt;span class=&quot;katex-mathml&quot;&gt;&lt;math xmlns=&quot;http://www.w3.org/1998/Math/MathML&quot;&gt;&lt;mrow&gt;&lt;msub&gt;&lt;mi&gt;ω&lt;/mi&gt;&lt;mi&gt;n&lt;/mi&gt;&lt;/msub&gt;&lt;/mrow&gt;&lt;/math&gt;&lt;/span&gt;&lt;span aria-hidden=&quot;true&quot; class=&quot;katex-html&quot;&gt;&lt;span class=&quot;base&quot;&gt;&lt;span class=&quot;mord&quot;&gt;&lt;span class=&quot;msupsub&quot;&gt;&lt;span class=&quot;vlist-t vlist-t2&quot;&gt;&lt;span class=&quot;vlist-r&quot;&gt;&lt;span class=&quot;vlist-s&quot;&gt;​&lt;/span&gt;&lt;/span&gt;&lt;span class=&quot;vlist-r&quot;&gt;&lt;span style=&quot;height: 0.15em;&quot; class=&quot;vlist&quot;&gt;&lt;span&gt;&lt;/span&gt;&lt;/span&gt;&lt;/span&gt;&lt;/span&gt;&lt;/span&gt;&lt;/span&gt;&lt;/span&gt;&lt;/span&gt;&lt;/span&gt;&lt;span&gt;&amp;nbsp;&lt;/span&gt;: 陷波中心点频率&lt;/li&gt;&lt;li&gt;&lt;span class=&quot;katex&quot;&gt;&lt;span class=&quot;katex-mathml&quot;&gt;&lt;math xmlns=&quot;http://www.w3.org/1998/Math/MathML&quot;&gt;&lt;mrow&gt;&lt;mi&gt;&lt;br&gt;&lt;/mi&gt;&lt;mi&gt;&lt;/mi&gt;&lt;mi&gt;K&lt;/mi&gt;&lt;/mrow&gt;&lt;/math&gt;&lt;/span&gt;&lt;/span&gt;&lt;span&gt;&amp;nbsp;&lt;/span&gt;: 陷波深度等级&lt;/li&gt;&lt;li&gt;&lt;span class=&quot;katex&quot;&gt;&lt;span class=&quot;katex-mathml&quot;&gt;&lt;math xmlns=&quot;http://www.w3.org/1998/Math/MathML&quot;&gt;&lt;mrow&gt;&lt;mi&gt;B&lt;/mi&gt;&lt;/mrow&gt;&lt;/math&gt;&lt;/span&gt;&lt;/span&gt;&lt;span&gt;&amp;nbsp;&lt;/span&gt;: 陷波宽度等级&lt;/li&gt;&lt;/ol&gt;" link="&lt;ol style=&quot;color: rgb(85, 85, 85); font-family: Lato, &amp;quot;PingFang SC&amp;quot;, &amp;quot;Microsoft YaHei&amp;quot;, sans-serif; font-size: 18px; font-style: normal; font-variant-ligatures: normal; font-variant-caps: normal; font-weight: 400; letter-spacing: normal; orphans: 2; text-align: justify; text-indent: 0px; text-transform: none; widows: 2; word-spacing: 0px; -webkit-text-stroke-width: 0px; white-space: normal; background-color: rgb(255, 255, 255); text-decoration-thickness: initial; text-decoration-style: initial; text-decoration-color: initial;&quot;&gt;&lt;li&gt;&lt;span class=&quot;katex&quot;&gt;&lt;span class=&quot;katex-mathml&quot;&gt;&lt;math xmlns=&quot;http://www.w3.org/1998/Math/MathML&quot;&gt;&lt;mrow&gt;&lt;msub&gt;&lt;mi&gt;ω&lt;/mi&gt;&lt;mi&gt;n&lt;/mi&gt;&lt;/msub&gt;&lt;/mrow&gt;&lt;/math&gt;&lt;/span&gt;&lt;span class=&quot;katex-html&quot; aria-hidden=&quot;true&quot;&gt;&lt;span class=&quot;base&quot;&gt;&lt;span class=&quot;strut&quot; style=&quot;height: 0.58056em; vertical-align: -0.15em;&quot;&gt;&lt;/span&gt;&lt;span class=&quot;mord&quot;&gt;&lt;span class=&quot;mord mathnormal&quot; style=&quot;margin-right: 0.03588em;&quot;&gt;ω&lt;/span&gt;&lt;span class=&quot;msupsub&quot;&gt;&lt;span class=&quot;vlist-t vlist-t2&quot;&gt;&lt;span class=&quot;vlist-r&quot;&gt;&lt;span class=&quot;vlist&quot; style=&quot;height: 0.151392em;&quot;&gt;&lt;span style=&quot;top: -2.55em; margin-left: -0.03588em; margin-right: 0.05em;&quot;&gt;&lt;span class=&quot;pstrut&quot; style=&quot;height: 2.7em;&quot;&gt;&lt;/span&gt;&lt;span class=&quot;sizing reset-size6 size3 mtight&quot;&gt;&lt;span class=&quot;mord mathnormal mtight&quot;&gt;n&lt;/span&gt;&lt;/span&gt;&lt;/span&gt;&lt;/span&gt;&lt;span class=&quot;vlist-s&quot;&gt;​&lt;/span&gt;&lt;/span&gt;&lt;span class=&quot;vlist-r&quot;&gt;&lt;span class=&quot;vlist&quot; style=&quot;height: 0.15em;&quot;&gt;&lt;span&gt;&lt;/span&gt;&lt;/span&gt;&lt;/span&gt;&lt;/span&gt;&lt;/span&gt;&lt;/span&gt;&lt;/span&gt;&lt;/span&gt;&lt;/span&gt;&lt;span&gt;&amp;nbsp;&lt;/span&gt;: 陷波中心点频率&lt;/li&gt;&lt;li&gt;&lt;span class=&quot;katex&quot;&gt;&lt;span class=&quot;katex-mathml&quot;&gt;&lt;math xmlns=&quot;http://www.w3.org/1998/Math/MathML&quot;&gt;&lt;mrow&gt;&lt;mi&gt;K&lt;/mi&gt;&lt;/mrow&gt;&lt;/math&gt;&lt;/span&gt;&lt;span class=&quot;katex-html&quot; aria-hidden=&quot;true&quot;&gt;&lt;span class=&quot;base&quot;&gt;&lt;span class=&quot;strut&quot; style=&quot;height: 0.68333em; vertical-align: 0em;&quot;&gt;&lt;/span&gt;&lt;span class=&quot;mord mathnormal&quot; style=&quot;margin-right: 0.07153em;&quot;&gt;K&lt;/span&gt;&lt;/span&gt;&lt;/span&gt;&lt;/span&gt;&lt;span&gt;&amp;nbsp;&lt;/span&gt;: 陷波深度等级&lt;/li&gt;&lt;li&gt;&lt;span class=&quot;katex&quot;&gt;&lt;span class=&quot;katex-mathml&quot;&gt;&lt;math xmlns=&quot;http://www.w3.org/1998/Math/MathML&quot;&gt;&lt;mrow&gt;&lt;mi&gt;B&lt;/mi&gt;&lt;/mrow&gt;&lt;/math&gt;&lt;/span&gt;&lt;span class=&quot;katex-html&quot; aria-hidden=&quot;true&quot;&gt;&lt;span class=&quot;base&quot;&gt;&lt;span class=&quot;strut&quot; style=&quot;height: 0.68333em; vertical-align: 0em;&quot;&gt;&lt;/span&gt;&lt;span class=&quot;mord mathnormal&quot; style=&quot;margin-right: 0.05017em;&quot;&gt;B&lt;/span&gt;&lt;/span&gt;&lt;/span&gt;&lt;/span&gt;&lt;span&gt;&amp;nbsp;&lt;/span&gt;: 陷波宽度等级&lt;/li&gt;&lt;/ol&gt;" id="cV3VLb_g4MpRarHLT8mB-6">
          <mxCell style="text;whiteSpace=wrap;html=1;fontSize=15;fontFamily=Comic Sans MS;labelBackgroundColor=none;fontColor=default;" vertex="1" parent="1">
            <mxGeometry x="180" y="200" width="260" height="90" as="geometry" />
          </mxCell>
        </UserObject>
        <mxCell id="cV3VLb_g4MpRarHLT8mB-7" value="" style="endArrow=classic;html=1;rounded=0;" edge="1" parent="1">
          <mxGeometry width="50" height="50" relative="1" as="geometry">
            <mxPoint x="480" y="260" as="sourcePoint" />
            <mxPoint x="740" y="260" as="targetPoint" />
          </mxGeometry>
        </mxCell>
        <mxCell id="cV3VLb_g4MpRarHLT8mB-8" value="" style="endArrow=classic;html=1;rounded=0;" edge="1" parent="1">
          <mxGeometry width="50" height="50" relative="1" as="geometry">
            <mxPoint x="480" y="370" as="sourcePoint" />
            <mxPoint x="480" y="190" as="targetPoint" />
          </mxGeometry>
        </mxCell>
        <mxCell id="cV3VLb_g4MpRarHLT8mB-9" value="" style="curved=1;endArrow=none;html=1;rounded=0;endFill=0;strokeColor=#FF0000;" edge="1" parent="1">
          <mxGeometry width="50" height="50" relative="1" as="geometry">
            <mxPoint x="610" y="340" as="sourcePoint" />
            <mxPoint x="580" y="260" as="targetPoint" />
            <Array as="points">
              <mxPoint x="610" y="260" />
            </Array>
          </mxGeometry>
        </mxCell>
        <mxCell id="cV3VLb_g4MpRarHLT8mB-10" value="" style="curved=1;endArrow=none;html=1;rounded=0;endFill=0;strokeColor=#FF0000;" edge="1" parent="1">
          <mxGeometry width="50" height="50" relative="1" as="geometry">
            <mxPoint x="610" y="340" as="sourcePoint" />
            <mxPoint x="640" y="260" as="targetPoint" />
            <Array as="points">
              <mxPoint x="610" y="260" />
            </Array>
          </mxGeometry>
        </mxCell>
        <mxCell id="cV3VLb_g4MpRarHLT8mB-12" value="&lt;span style=&quot;color: rgb(0, 0, 0); font-family: Helvetica; font-size: 12px; font-style: normal; font-variant-ligatures: normal; font-variant-caps: normal; font-weight: 400; letter-spacing: normal; orphans: 2; text-align: left; text-indent: 0px; text-transform: none; widows: 2; word-spacing: 0px; -webkit-text-stroke-width: 0px; white-space: normal; background-color: rgb(236, 236, 236); text-decoration-thickness: initial; text-decoration-style: initial; text-decoration-color: initial; float: none; display: inline !important;&quot;&gt;\[\omega \]&lt;/span&gt;" style="text;html=1;align=center;verticalAlign=middle;whiteSpace=wrap;rounded=0;" vertex="1" parent="1">
          <mxGeometry x="740" y="240" width="30" height="30" as="geometry" />
        </mxCell>
        <mxCell id="cV3VLb_g4MpRarHLT8mB-13" value="\[20{\rm{Lg}}\left| {H\left( {j\omega } \right)} \right|\]" style="text;html=1;align=center;verticalAlign=middle;whiteSpace=wrap;rounded=0;" vertex="1" parent="1">
          <mxGeometry x="440" y="165" width="80" height="30" as="geometry" />
        </mxCell>
        <mxCell id="cV3VLb_g4MpRarHLT8mB-15" value="" style="endArrow=none;dashed=1;html=1;rounded=0;" edge="1" parent="1">
          <mxGeometry width="50" height="50" relative="1" as="geometry">
            <mxPoint x="480" y="271" as="sourcePoint" />
            <mxPoint x="720" y="271" as="targetPoint" />
          </mxGeometry>
        </mxCell>
        <mxCell id="cV3VLb_g4MpRarHLT8mB-16" value="0" style="text;html=1;align=center;verticalAlign=middle;whiteSpace=wrap;rounded=0;fontSize=10;" vertex="1" parent="1">
          <mxGeometry x="460" y="245" width="20" height="20" as="geometry" />
        </mxCell>
        <mxCell id="cV3VLb_g4MpRarHLT8mB-17" value="-3dB" style="text;html=1;align=center;verticalAlign=middle;whiteSpace=wrap;rounded=0;fontSize=10;" vertex="1" parent="1">
          <mxGeometry x="457" y="260" width="20" height="20" as="geometry" />
        </mxCell>
        <mxCell id="cV3VLb_g4MpRarHLT8mB-18" value="" style="endArrow=none;html=1;rounded=0;fontColor=#FF0000;strokeColor=#FF0000;" edge="1" parent="1">
          <mxGeometry width="50" height="50" relative="1" as="geometry">
            <mxPoint x="480" y="260" as="sourcePoint" />
            <mxPoint x="580" y="260" as="targetPoint" />
          </mxGeometry>
        </mxCell>
        <mxCell id="cV3VLb_g4MpRarHLT8mB-19" value="" style="endArrow=none;html=1;rounded=0;fontColor=#FF0000;strokeColor=#FF0000;" edge="1" parent="1">
          <mxGeometry width="50" height="50" relative="1" as="geometry">
            <mxPoint x="640" y="260" as="sourcePoint" />
            <mxPoint x="730" y="260" as="targetPoint" />
          </mxGeometry>
        </mxCell>
        <mxCell id="cV3VLb_g4MpRarHLT8mB-20" value="" style="endArrow=none;html=1;rounded=0;fontColor=#00CC00;strokeColor=#00CC00;" edge="1" parent="1">
          <mxGeometry width="50" height="50" relative="1" as="geometry">
            <mxPoint x="598" y="270" as="sourcePoint" />
            <mxPoint x="598" y="250" as="targetPoint" />
          </mxGeometry>
        </mxCell>
        <mxCell id="cV3VLb_g4MpRarHLT8mB-21" value="" style="endArrow=none;html=1;rounded=0;fontColor=#00CC00;strokeColor=#00CC00;" edge="1" parent="1">
          <mxGeometry width="50" height="50" relative="1" as="geometry">
            <mxPoint x="622" y="270" as="sourcePoint" />
            <mxPoint x="622" y="250" as="targetPoint" />
          </mxGeometry>
        </mxCell>
        <mxCell id="cV3VLb_g4MpRarHLT8mB-22" value="" style="endArrow=none;html=1;rounded=0;fontColor=#00CC00;strokeColor=#00CC00;" edge="1" parent="1">
          <mxGeometry width="50" height="50" relative="1" as="geometry">
            <mxPoint x="610" y="260" as="sourcePoint" />
            <mxPoint x="610" y="250" as="targetPoint" />
          </mxGeometry>
        </mxCell>
        <mxCell id="cV3VLb_g4MpRarHLT8mB-23" value="\[{{\omega _n}}\]" style="text;html=1;align=center;verticalAlign=middle;whiteSpace=wrap;rounded=0;fontSize=8;" vertex="1" parent="1">
          <mxGeometry x="600" y="234" width="20" height="20" as="geometry" />
        </mxCell>
        <mxCell id="cV3VLb_g4MpRarHLT8mB-24" value="\[{{\omega _2}}\]" style="text;html=1;align=center;verticalAlign=middle;whiteSpace=wrap;rounded=0;fontSize=8;" vertex="1" parent="1">
          <mxGeometry x="620" y="235" width="20" height="20" as="geometry" />
        </mxCell>
        <mxCell id="cV3VLb_g4MpRarHLT8mB-25" value="\[{{\omega _1}}\]" style="text;html=1;align=center;verticalAlign=middle;whiteSpace=wrap;rounded=0;fontSize=8;" vertex="1" parent="1">
          <mxGeometry x="583" y="235" width="20" height="20" as="geometry" />
        </mxCell>
        <mxCell id="cV3VLb_g4MpRarHLT8mB-26" value="&lt;div style=&quot;color: rgb(0, 0, 0); font-weight: normal; line-height: 19px; white-space: pre;&quot;&gt;&lt;div&gt;&lt;span style=&quot;color: rgb(0, 0, 0);&quot;&gt;令 \(s=j\omega\)，&lt;/span&gt;&lt;/div&gt;&lt;/div&gt;" style="text;whiteSpace=wrap;html=1;fontFamily=Comic Sans MS;labelBackgroundColor=none;fontSize=14;" vertex="1" parent="1">
          <mxGeometry x="50" y="330" width="130" height="40" as="geometry" />
        </mxCell>
        <mxCell id="cV3VLb_g4MpRarHLT8mB-28" value="&#xa;&lt;span style=&quot;color: rgb(0, 0, 0); font-family: &amp;quot;Comic Sans MS&amp;quot;; font-style: normal; font-variant-ligatures: normal; font-variant-caps: normal; font-weight: 400; letter-spacing: normal; orphans: 2; text-indent: 0px; text-transform: none; widows: 2; word-spacing: 0px; -webkit-text-stroke-width: 0px; white-space: normal; background-color: rgb(236, 236, 236); text-decoration-thickness: initial; text-decoration-style: initial; text-decoration-color: initial; float: none; display: inline !important;&quot;&gt;\[H\left( {j\omega } \right) = \frac{{{\omega _n}^2 - {\omega ^2} + jKB{\omega _n}\omega }}{{{\omega _n}^2 - {\omega ^2} + jB{\omega _n}\omega }}\]&lt;/span&gt;&#xa;&#xa;" style="text;html=1;align=left;verticalAlign=middle;whiteSpace=wrap;rounded=0;fontSize=14;" vertex="1" parent="1">
          <mxGeometry x="136" y="322" width="240" height="70" as="geometry" />
        </mxCell>
        <mxCell id="cV3VLb_g4MpRarHLT8mB-30" value="\[\left| {H\left( {j\omega } \right)} \right| = \sqrt {\frac{{{{\left( {{\omega _n}^2 - {\omega ^2}} \right)}^2} + {{\left( {KB{\omega _n}\omega } \right)}^2}}}{{{{\left( {{\omega _n}^2 - {\omega ^2}} \right)}^2} + {{\left( {B{\omega _n}\omega } \right)}^2}}}} \]" style="text;html=1;align=center;verticalAlign=middle;whiteSpace=wrap;rounded=0;fontSize=14;" vertex="1" parent="1">
          <mxGeometry x="121" y="400" width="270" height="50" as="geometry" />
        </mxCell>
        <mxCell id="cV3VLb_g4MpRarHLT8mB-31" value="&lt;div style=&quot;color: rgb(0, 0, 0); background-color: rgb(255, 255, 255); font-weight: normal; line-height: 19px; white-space: pre;&quot;&gt;&lt;div&gt;&lt;span style=&quot;color: rgb(0, 0, 0);&quot;&gt;陷波深度表示在中心频率点输入与输出之间的关系比值。&lt;/span&gt;&lt;/div&gt;&lt;/div&gt;" style="text;html=1;align=center;verticalAlign=middle;whiteSpace=wrap;rounded=0;fontFamily=Comic Sans MS;fontSize=14;" vertex="1" parent="1">
          <mxGeometry x="56.5" y="520" width="399" height="30" as="geometry" />
        </mxCell>
        <mxCell id="cV3VLb_g4MpRarHLT8mB-32" value="陷波深度 K" style="text;html=1;align=left;verticalAlign=middle;whiteSpace=wrap;rounded=0;fontColor=#6600CC;fontSize=14;" vertex="1" parent="1">
          <mxGeometry x="30" y="490" width="134.94" height="30" as="geometry" />
        </mxCell>
        <mxCell id="cV3VLb_g4MpRarHLT8mB-34" value="\[\left| {H\left( {j\omega } \right)} \right| = \sqrt {\frac{{{{\left( {KB{\omega _n}\omega } \right)}^2}}}{{{{\left( {B{\omega _n}\omega } \right)}^2}}}}&amp;nbsp; = K\]" style="text;html=1;align=left;verticalAlign=middle;whiteSpace=wrap;rounded=0;fontFamily=Comic Sans MS;fontSize=14;" vertex="1" parent="1">
          <mxGeometry x="180" y="550" width="235.06" height="75" as="geometry" />
        </mxCell>
        <mxCell id="cV3VLb_g4MpRarHLT8mB-35" value="当 \(\omega&amp;nbsp; = {\omega _n}\) 时，" style="text;html=1;align=left;verticalAlign=middle;whiteSpace=wrap;rounded=0;fontFamily=Comic Sans MS;fontSize=14;" vertex="1" parent="1">
          <mxGeometry x="74.25" y="557.5" width="163.5" height="60" as="geometry" />
        </mxCell>
        <mxCell id="cV3VLb_g4MpRarHLT8mB-36" value="&lt;div style=&quot;color: rgb(0, 0, 0); background-color: rgb(255, 255, 255); font-weight: normal; font-size: 14px; line-height: 19px; white-space: pre;&quot;&gt;&lt;div&gt;&lt;span style=&quot;color: rgb(0, 0, 0);&quot;&gt;陷波中心点的幅值衰减为\(20\lg K\)。&lt;/span&gt;&lt;/div&gt;&lt;/div&gt;" style="text;html=1;align=left;verticalAlign=middle;whiteSpace=wrap;rounded=0;fontFamily=Comic Sans MS;fontSize=14;" vertex="1" parent="1">
          <mxGeometry x="421" y="557.5" width="229" height="60" as="geometry" />
        </mxCell>
        <mxCell id="cV3VLb_g4MpRarHLT8mB-38" value="&lt;span style=&quot;color: rgb(0, 0, 0); font-family: &amp;quot;Comic Sans MS&amp;quot;; font-size: 14px; font-style: normal; font-variant-ligatures: normal; font-variant-caps: normal; font-weight: 400; letter-spacing: normal; orphans: 2; text-align: left; text-indent: 0px; text-transform: none; widows: 2; word-spacing: 0px; -webkit-text-stroke-width: 0px; white-space: pre; background-color: rgb(255, 255, 255); text-decoration-thickness: initial; text-decoration-style: initial; text-decoration-color: initial; float: none; display: inline !important;&quot;&gt;例，K=0.001时，衰减为-40dB。&lt;/span&gt;" style="text;html=1;align=left;verticalAlign=middle;whiteSpace=wrap;rounded=0;fontFamily=Comic Sans MS;fontSize=14;" vertex="1" parent="1">
          <mxGeometry x="74.25" y="617.5" width="245.75" height="60" as="geometry" />
        </mxCell>
        <mxCell id="cV3VLb_g4MpRarHLT8mB-39" value="陷波深度 B" style="text;html=1;align=left;verticalAlign=middle;whiteSpace=wrap;rounded=0;fontColor=#6600CC;fontSize=14;" vertex="1" parent="1">
          <mxGeometry x="30" y="720" width="134.94" height="30" as="geometry" />
        </mxCell>
        <mxCell id="cV3VLb_g4MpRarHLT8mB-40" value="&lt;span style=&quot;background-color: rgb(255, 255, 255); white-space: pre; color: light-dark(rgb(0, 0, 0), rgb(255, 255, 255));&quot;&gt;陷波宽度表示陷波衰减赋值为-3dB的频率带宽。&lt;/span&gt;" style="text;html=1;align=left;verticalAlign=middle;whiteSpace=wrap;rounded=0;fontFamily=Comic Sans MS;fontSize=14;" vertex="1" parent="1">
          <mxGeometry x="80" y="750" width="380" height="40" as="geometry" />
        </mxCell>
        <mxCell id="cV3VLb_g4MpRarHLT8mB-41" value="\[B = \frac{{{\omega _2} - {\omega _1}}}{{{\omega _n}}}\]" style="text;html=1;align=left;verticalAlign=middle;whiteSpace=wrap;rounded=0;fontFamily=Comic Sans MS;fontSize=14;" vertex="1" parent="1">
          <mxGeometry x="410" y="750" width="110" height="40" as="geometry" />
        </mxCell>
        <mxCell id="cV3VLb_g4MpRarHLT8mB-42" value="&lt;br&gt;&lt;div style=&quot;line-height: 19px; color: rgb(0, 0, 0);&quot;&gt;&lt;div style=&quot;&quot;&gt;&lt;span style=&quot;color: rgb(0, 0, 0); font-size: 14px; font-weight: normal; white-space: pre;&quot;&gt;由于 K &amp;lt;&amp;lt; 1 ，所以 &lt;/span&gt;&lt;font color=&quot;#222222&quot;&gt;&lt;span style=&quot;white-space: pre;&quot;&gt;\(\left| {H\left( {j\omega } \right)} \right|\)&lt;/span&gt;&lt;/font&gt;&lt;span style=&quot;color: rgb(0, 0, 0); font-size: 14px; font-weight: normal; white-space: pre;&quot;&gt; 表达式中的 &lt;/span&gt;&lt;font color=&quot;#222222&quot;&gt;&lt;span style=&quot;white-space: pre;&quot;&gt;\({\left( {KB{\omega _n}\omega } \right)^2}\)&lt;/span&gt;&lt;/font&gt;&lt;span style=&quot;color: rgb(0, 0, 0); font-size: 14px; font-weight: normal; white-space: pre;&quot;&gt; 可以忽略不计。&lt;/span&gt;&lt;/div&gt;&lt;/div&gt;&lt;div&gt;&lt;br&gt;&lt;/div&gt;" style="text;html=1;align=left;verticalAlign=middle;whiteSpace=wrap;rounded=0;fontFamily=Comic Sans MS;fontSize=14;labelBackgroundColor=none;" vertex="1" parent="1">
          <mxGeometry x="80" y="780" width="480" height="60" as="geometry" />
        </mxCell>
        <mxCell id="cV3VLb_g4MpRarHLT8mB-43" value="令 \(\left| {H\left( {j\omega } \right)} \right| = \frac{{\sqrt 2 }}{2}\)，则" style="text;html=1;align=left;verticalAlign=middle;whiteSpace=wrap;rounded=0;fontFamily=Comic Sans MS;fontSize=14;" vertex="1" parent="1">
          <mxGeometry x="80" y="840" width="165.75" height="40" as="geometry" />
        </mxCell>
        <mxCell id="cV3VLb_g4MpRarHLT8mB-44" value="\[{\left| {H\left( {j\omega } \right)} \right|^2} = \frac{{{{\left( {{\omega _n}^2 - {\omega ^2}} \right)}^2}}}{{{{\left( {{\omega _n}^2 - {\omega ^2}} \right)}^2} + {{\left( {B{\omega _n}\omega } \right)}^2}}} = \frac{1}{2}\]" style="text;html=1;align=left;verticalAlign=middle;whiteSpace=wrap;rounded=0;fontFamily=Comic Sans MS;fontSize=14;" vertex="1" parent="1">
          <mxGeometry x="237.13" y="840" width="202.87" height="40" as="geometry" />
        </mxCell>
        <mxCell id="cV3VLb_g4MpRarHLT8mB-46" value="\[{\left( {{\omega _n}^2 - {\omega ^2}} \right)^2} - {\left( {B{\omega _n}\omega } \right)^2} = 0\]" style="text;html=1;align=left;verticalAlign=middle;whiteSpace=wrap;rounded=0;fontFamily=Comic Sans MS;fontSize=14;" vertex="1" parent="1">
          <mxGeometry x="170" y="900" width="210" height="40" as="geometry" />
        </mxCell>
        <mxCell id="cV3VLb_g4MpRarHLT8mB-48" value="" style="shape=singleArrow;whiteSpace=wrap;html=1;sketch=1;curveFitting=1;jiggle=2;fontFamily=Comic Sans MS;" vertex="1" parent="1">
          <mxGeometry x="106" y="910" width="40" height="20" as="geometry" />
        </mxCell>
        <mxCell id="cV3VLb_g4MpRarHLT8mB-49" value="" style="shape=singleArrow;whiteSpace=wrap;html=1;sketch=1;curveFitting=1;jiggle=2;fontFamily=Comic Sans MS;" vertex="1" parent="1">
          <mxGeometry x="391" y="910" width="40" height="20" as="geometry" />
        </mxCell>
        <mxCell id="cV3VLb_g4MpRarHLT8mB-51" value="\[{\omega ^4} - \left( {2 + {B^2}} \right){\omega _n}^2{\omega ^2} + {\omega _n}^4 = 0\]" style="text;html=1;align=left;verticalAlign=middle;whiteSpace=wrap;rounded=0;fontFamily=Comic Sans MS;fontSize=14;" vertex="1" parent="1">
          <mxGeometry x="450" y="900" width="210" height="40" as="geometry" />
        </mxCell>
        <mxCell id="cV3VLb_g4MpRarHLT8mB-54" value="\[{\omega _1}^2 + {\omega _2}^2 = \left( {2 + {B^2}} \right){\omega _n}^2\]" style="text;html=1;align=left;verticalAlign=middle;whiteSpace=wrap;rounded=0;fontFamily=Comic Sans MS;fontSize=14;" vertex="1" parent="1">
          <mxGeometry x="56.00000000000001" y="960" width="210" height="40" as="geometry" />
        </mxCell>
        <mxCell id="cV3VLb_g4MpRarHLT8mB-55" value="\[{\omega _1}^2{\omega _2}^2 = {\omega _n}^4\]" style="text;html=1;align=left;verticalAlign=middle;whiteSpace=wrap;rounded=0;fontFamily=Comic Sans MS;fontSize=14;" vertex="1" parent="1">
          <mxGeometry x="56.00000000000001" y="990" width="210" height="40" as="geometry" />
        </mxCell>
        <mxCell id="cV3VLb_g4MpRarHLT8mB-56" value="" style="shape=curlyBracket;whiteSpace=wrap;html=1;rounded=1;labelPosition=left;verticalLabelPosition=middle;align=right;verticalAlign=middle;fontFamily=Comic Sans MS;" vertex="1" parent="1">
          <mxGeometry x="36.00000000000001" y="970" width="20" height="50" as="geometry" />
        </mxCell>
        <mxCell id="cV3VLb_g4MpRarHLT8mB-57" value="\[{\left( {{\omega _1} - {\omega _2}} \right)^2} = {\omega _1}^2 + {\omega _2}^2 - 2{\omega _1}^2{\omega _2}^2 = \left( {2 + {B^2}} \right){\omega _n}^2 - 2{\omega _n}^4 = {B^2}{\omega _n}^2\]" style="text;html=1;align=left;verticalAlign=middle;whiteSpace=wrap;rounded=0;fontFamily=Comic Sans MS;fontSize=14;" vertex="1" parent="1">
          <mxGeometry x="306" y="980" width="504" height="40" as="geometry" />
        </mxCell>
        <mxCell id="cV3VLb_g4MpRarHLT8mB-58" value="" style="shape=singleArrow;whiteSpace=wrap;html=1;sketch=1;curveFitting=1;jiggle=2;fontFamily=Comic Sans MS;" vertex="1" parent="1">
          <mxGeometry x="46.34" y="1380" width="59.66" height="20" as="geometry" />
        </mxCell>
        <mxCell id="cV3VLb_g4MpRarHLT8mB-59" value="\[{\omega _1} - {\omega _2} = B{\omega _n}\]" style="text;html=1;align=left;verticalAlign=middle;whiteSpace=wrap;rounded=0;fontFamily=Comic Sans MS;fontSize=14;" vertex="1" parent="1">
          <mxGeometry x="70" y="1030" width="130" height="40" as="geometry" />
        </mxCell>
        <mxCell id="cV3VLb_g4MpRarHLT8mB-60" value="" style="shape=singleArrow;whiteSpace=wrap;html=1;sketch=1;curveFitting=1;jiggle=2;fontFamily=Comic Sans MS;" vertex="1" parent="1">
          <mxGeometry x="197.13" y="1040" width="40" height="20" as="geometry" />
        </mxCell>
        <mxCell id="cV3VLb_g4MpRarHLT8mB-61" value="\[B = \frac{{{\omega _1} - {\omega _2}}}{{{\omega _n}}}\]" style="text;html=1;align=left;verticalAlign=middle;whiteSpace=wrap;rounded=0;fontFamily=Comic Sans MS;fontSize=14;" vertex="1" parent="1">
          <mxGeometry x="250" y="1030" width="130" height="40" as="geometry" />
        </mxCell>
        <mxCell id="cV3VLb_g4MpRarHLT8mB-62" value="离散化" style="text;html=1;align=left;verticalAlign=middle;whiteSpace=wrap;rounded=0;fontColor=#6600CC;fontSize=14;" vertex="1" parent="1">
          <mxGeometry x="30" y="1190" width="134.94" height="30" as="geometry" />
        </mxCell>
        <mxCell id="cV3VLb_g4MpRarHLT8mB-63" value="\[s = \frac{2}{T}\frac{{1 - {z^{ - 1}}}}{{1 + {z^{ - 1}}}}\]" style="text;html=1;align=left;verticalAlign=middle;whiteSpace=wrap;rounded=0;fontFamily=Comic Sans MS;fontSize=14;" vertex="1" parent="1">
          <mxGeometry x="191" y="1225" width="130" height="40" as="geometry" />
        </mxCell>
        <mxCell id="cV3VLb_g4MpRarHLT8mB-64" value="离散化采用双线性变换法 ，&amp;nbsp;" style="text;html=1;align=left;verticalAlign=middle;whiteSpace=wrap;rounded=0;fontSize=14;" vertex="1" parent="1">
          <mxGeometry x="17.19" y="1230" width="202.81" height="30" as="geometry" />
        </mxCell>
        <mxCell id="cV3VLb_g4MpRarHLT8mB-65" value="" style="shape=singleArrow;whiteSpace=wrap;html=1;sketch=1;curveFitting=1;jiggle=2;fontFamily=Comic Sans MS;" vertex="1" parent="1">
          <mxGeometry x="290" y="1300" width="100" height="20" as="geometry" />
        </mxCell>
        <mxCell id="cV3VLb_g4MpRarHLT8mB-71" value="&#xa;&lt;span style=&quot;color: rgb(0, 0, 0); font-family: Helvetica; font-size: 14px; font-style: normal; font-variant-ligatures: normal; font-variant-caps: normal; font-weight: 400; letter-spacing: normal; orphans: 2; text-align: left; text-indent: 0px; text-transform: none; widows: 2; word-spacing: 0px; -webkit-text-stroke-width: 0px; white-space: normal; background-color: rgb(236, 236, 236); text-decoration-thickness: initial; text-decoration-style: initial; text-decoration-color: initial; display: inline !important; float: none;&quot;&gt;\[H\left( s \right) = \frac{{{s^2} + KB{\omega _n}s + {\omega _n}^2}}{{{s^2} + B{\omega _n}s + {\omega _n}^2}}\]&lt;/span&gt;&#xa;&#xa;" style="text;html=1;align=left;verticalAlign=middle;whiteSpace=wrap;rounded=0;fontFamily=Comic Sans MS;fontSize=14;" vertex="1" parent="1">
          <mxGeometry x="74.25" y="1300" width="130" height="40" as="geometry" />
        </mxCell>
        <mxCell id="cV3VLb_g4MpRarHLT8mB-73" value="提取 Y(z)" style="text;html=1;align=left;verticalAlign=middle;whiteSpace=wrap;rounded=0;fontFamily=Comic Sans MS;fontSize=8;" vertex="1" parent="1">
          <mxGeometry x="51.489999999999995" y="1360" width="53.92" height="30" as="geometry" />
        </mxCell>
        <mxCell id="cV3VLb_g4MpRarHLT8mB-74" value="" style="shape=curlyBracket;whiteSpace=wrap;html=1;rounded=1;labelPosition=left;verticalLabelPosition=middle;align=right;verticalAlign=middle;fontFamily=Comic Sans MS;" vertex="1" parent="1">
          <mxGeometry x="89.66" y="1710" width="20" height="120" as="geometry" />
        </mxCell>
        <mxCell id="cV3VLb_g4MpRarHLT8mB-76" value="\[{n_0} = 4 + 2KB{\omega _n}T + {\omega _n}^2{T^2}\]" style="text;html=1;align=left;verticalAlign=middle;whiteSpace=wrap;rounded=0;fontFamily=Comic Sans MS;fontSize=14;" vertex="1" parent="1">
          <mxGeometry x="110.66" y="1710" width="224.75" height="40" as="geometry" />
        </mxCell>
        <mxCell id="cV3VLb_g4MpRarHLT8mB-77" value="\[{n_1} =  - 8 + 2{\omega _n}T\]" style="text;html=1;align=left;verticalAlign=middle;whiteSpace=wrap;rounded=0;fontFamily=Comic Sans MS;fontSize=14;" vertex="1" parent="1">
          <mxGeometry x="109.66" y="1750" width="225.75" height="40" as="geometry" />
        </mxCell>
        <mxCell id="cV3VLb_g4MpRarHLT8mB-78" value="\[{n_2} = 4 - 2KB{\omega _n}T + {\omega _n}^2{T^2}\]" style="text;html=1;align=left;verticalAlign=middle;whiteSpace=wrap;rounded=0;fontFamily=Comic Sans MS;fontSize=14;" vertex="1" parent="1">
          <mxGeometry x="110.66" y="1790" width="224.75" height="40" as="geometry" />
        </mxCell>
        <mxCell id="cV3VLb_g4MpRarHLT8mB-79" value="" style="shape=curlyBracket;whiteSpace=wrap;html=1;rounded=1;labelPosition=left;verticalLabelPosition=middle;align=right;verticalAlign=middle;fontFamily=Comic Sans MS;" vertex="1" parent="1">
          <mxGeometry x="354.41" y="1710" width="20" height="120" as="geometry" />
        </mxCell>
        <mxCell id="cV3VLb_g4MpRarHLT8mB-80" value="\[{d_0} = 4 + 2B{\omega _n}T + {\omega _n}^2{T^2}\]" style="text;html=1;align=left;verticalAlign=middle;whiteSpace=wrap;rounded=0;fontFamily=Comic Sans MS;fontSize=14;" vertex="1" parent="1">
          <mxGeometry x="375.41" y="1710" width="130" height="40" as="geometry" />
        </mxCell>
        <mxCell id="cV3VLb_g4MpRarHLT8mB-81" value="\[{d_1} =  - 8 + 2{\omega _n}T\]" style="text;html=1;align=left;verticalAlign=middle;whiteSpace=wrap;rounded=0;fontFamily=Comic Sans MS;fontSize=14;" vertex="1" parent="1">
          <mxGeometry x="374.41" y="1750" width="130" height="40" as="geometry" />
        </mxCell>
        <mxCell id="cV3VLb_g4MpRarHLT8mB-82" value="\[{d_2} = 4 - 2B{\omega _n}T + {\omega _n}^2{T^2}\]" style="text;html=1;align=left;verticalAlign=middle;whiteSpace=wrap;rounded=0;fontFamily=Comic Sans MS;fontSize=14;" vertex="1" parent="1">
          <mxGeometry x="375.41" y="1790" width="130" height="40" as="geometry" />
        </mxCell>
        <mxCell id="cV3VLb_g4MpRarHLT8mB-83" value="进行预畸变，\(\omega&amp;nbsp; = \frac{2}{T}\tan \frac{{\omega T}}{2}\)" style="text;html=1;align=left;verticalAlign=middle;whiteSpace=wrap;rounded=0;fontSize=14;" vertex="1" parent="1">
          <mxGeometry x="30.000000000000004" y="1860" width="202.81" height="30" as="geometry" />
        </mxCell>
        <mxCell id="cV3VLb_g4MpRarHLT8mB-84" value="" style="shape=curlyBracket;whiteSpace=wrap;html=1;rounded=1;labelPosition=left;verticalLabelPosition=middle;align=right;verticalAlign=middle;fontFamily=Comic Sans MS;" vertex="1" parent="1">
          <mxGeometry x="85.41" y="1900" width="20" height="120" as="geometry" />
        </mxCell>
        <mxCell id="cV3VLb_g4MpRarHLT8mB-85" value="\[{n_0} = 1 + K\tan \frac{{B{\omega _n}T}}{2} + {\tan ^2}\frac{{B{\omega _n}T}}{2}\]" style="text;html=1;align=left;verticalAlign=middle;whiteSpace=wrap;rounded=0;fontFamily=Comic Sans MS;fontSize=14;" vertex="1" parent="1">
          <mxGeometry x="106.41" y="1900" width="224.75" height="40" as="geometry" />
        </mxCell>
        <mxCell id="cV3VLb_g4MpRarHLT8mB-86" value="\[{n_1} =  - 2 + 2\tan \frac{{B{\omega _n}T}}{2}\]" style="text;html=1;align=left;verticalAlign=middle;whiteSpace=wrap;rounded=0;fontFamily=Comic Sans MS;fontSize=14;" vertex="1" parent="1">
          <mxGeometry x="105.41" y="1940" width="225.75" height="40" as="geometry" />
        </mxCell>
        <mxCell id="cV3VLb_g4MpRarHLT8mB-87" value="\[{n_2} = 1 - K\tan \frac{{B{\omega _n}T}}{2} + {\tan ^2}\frac{{B{\omega _n}T}}{2}\]" style="text;html=1;align=left;verticalAlign=middle;whiteSpace=wrap;rounded=0;fontFamily=Comic Sans MS;fontSize=14;" vertex="1" parent="1">
          <mxGeometry x="106.41" y="1980" width="224.75" height="40" as="geometry" />
        </mxCell>
        <mxCell id="cV3VLb_g4MpRarHLT8mB-88" value="" style="shape=curlyBracket;whiteSpace=wrap;html=1;rounded=1;labelPosition=left;verticalLabelPosition=middle;align=right;verticalAlign=middle;fontFamily=Comic Sans MS;" vertex="1" parent="1">
          <mxGeometry x="440.54" y="1890" width="20" height="120" as="geometry" />
        </mxCell>
        <mxCell id="cV3VLb_g4MpRarHLT8mB-89" value="\[{d_0} = 1 + \tan \frac{{B{\omega _n}T}}{2} + {\tan ^2}\frac{{B{\omega _n}T}}{2}\]" style="text;html=1;align=left;verticalAlign=middle;whiteSpace=wrap;rounded=0;fontFamily=Comic Sans MS;fontSize=14;" vertex="1" parent="1">
          <mxGeometry x="461.54" y="1890" width="224.75" height="40" as="geometry" />
        </mxCell>
        <mxCell id="cV3VLb_g4MpRarHLT8mB-90" value="\[{d_1} =  - 2 + 2\tan \frac{{B{\omega _n}T}}{2}\]" style="text;html=1;align=left;verticalAlign=middle;whiteSpace=wrap;rounded=0;fontFamily=Comic Sans MS;fontSize=14;" vertex="1" parent="1">
          <mxGeometry x="460.54" y="1930" width="225.75" height="40" as="geometry" />
        </mxCell>
        <mxCell id="cV3VLb_g4MpRarHLT8mB-91" value="\[{d_2} = 1 - \tan \frac{{B{\omega _n}T}}{2} + {\tan ^2}\frac{{B{\omega _n}T}}{2}\]" style="text;html=1;align=left;verticalAlign=middle;whiteSpace=wrap;rounded=0;fontFamily=Comic Sans MS;fontSize=14;" vertex="1" parent="1">
          <mxGeometry x="461.54" y="1970" width="224.75" height="40" as="geometry" />
        </mxCell>
        <mxCell id="cV3VLb_g4MpRarHLT8mB-95" value="\[H\left( z \right) = \frac{{Y\left( z \right)}}{{X\left( z \right)}} = \frac{{{n_0} + {n_1}{z^{ - 1}} + {n_2}{z^{ - 2}}}}{{{d_0} + {d_1}{z^{ - 1}} + {d_2}{z^{ - 2}}}}\]" style="text;html=1;align=left;verticalAlign=middle;whiteSpace=wrap;rounded=0;fontFamily=Comic Sans MS;fontSize=14;" vertex="1" parent="1">
          <mxGeometry x="398.5" y="1283" width="294.25" height="54" as="geometry" />
        </mxCell>
        <mxCell id="cV3VLb_g4MpRarHLT8mB-96" value="\[Y\left( z \right) = \frac{{{n_0}}}{{{d_0}}}X\left( z \right) + \frac{{{n_1}}}{{{d_0}}}{z^{ - 1}}X\left( z \right) + \frac{{{n_2}}}{{{d_0}}}{z^{ - 2}}X\left( z \right) - \frac{{{d_1}}}{{{d_0}}}{z^{ - 1}}Y\left( z \right) - \frac{{{d_2}}}{{{d_0}}}{z^{ - 2}}Y\left( z \right)\]" style="text;html=1;align=left;verticalAlign=middle;whiteSpace=wrap;rounded=0;fontFamily=Comic Sans MS;fontSize=14;" vertex="1" parent="1">
          <mxGeometry x="123.13" y="1370" width="575.75" height="40" as="geometry" />
        </mxCell>
        <mxCell id="cV3VLb_g4MpRarHLT8mB-97" value="\[y\left( n \right) = \frac{{{n_0}}}{{{d_0}}}x\left( n \right) + \frac{{{n_1}}}{{{d_0}}}x\left( {n - 1} \right) + \frac{{{n_2}}}{{{d_0}}}x\left( {n - 2} \right) - \frac{{{d_1}}}{{{d_0}}}y\left( {n - 1} \right) - \frac{{{d_2}}}{{{d_0}}}y\left( {n - 2} \right)\]" style="text;html=1;align=left;verticalAlign=middle;whiteSpace=wrap;rounded=0;fontFamily=Comic Sans MS;fontSize=14;" vertex="1" parent="1">
          <mxGeometry x="123.13" y="1430" width="575.75" height="40" as="geometry" />
        </mxCell>
        <mxCell id="cV3VLb_g4MpRarHLT8mB-98" value="" style="shape=singleArrow;whiteSpace=wrap;html=1;sketch=1;curveFitting=1;jiggle=2;fontFamily=Comic Sans MS;" vertex="1" parent="1">
          <mxGeometry x="51" y="1440" width="59.66" height="20" as="geometry" />
        </mxCell>
        <mxCell id="cV3VLb_g4MpRarHLT8mB-99" value="转化为差分方程" style="text;html=1;align=left;verticalAlign=middle;whiteSpace=wrap;rounded=0;fontFamily=Comic Sans MS;fontSize=8;" vertex="1" parent="1">
          <mxGeometry x="44" y="1420" width="66" height="30" as="geometry" />
        </mxCell>
        <mxCell id="cV3VLb_g4MpRarHLT8mB-100" value="" style="endArrow=classic;html=1;rounded=0;entryX=0;entryY=0.5;entryDx=0;entryDy=0;" edge="1" parent="1" target="cV3VLb_g4MpRarHLT8mB-101">
          <mxGeometry width="50" height="50" relative="1" as="geometry">
            <mxPoint x="44" y="1530" as="sourcePoint" />
            <mxPoint x="104" y="1530" as="targetPoint" />
          </mxGeometry>
        </mxCell>
        <mxCell id="cV3VLb_g4MpRarHLT8mB-114" style="edgeStyle=orthogonalEdgeStyle;rounded=0;orthogonalLoop=1;jettySize=auto;html=1;exitX=1;exitY=0.5;exitDx=0;exitDy=0;entryX=0;entryY=0.5;entryDx=0;entryDy=0;" edge="1" parent="1" source="cV3VLb_g4MpRarHLT8mB-101" target="cV3VLb_g4MpRarHLT8mB-107">
          <mxGeometry relative="1" as="geometry" />
        </mxCell>
        <mxCell id="cV3VLb_g4MpRarHLT8mB-101" value="\[\frac{{{n_0}}}{{{d_0}}}\]" style="rounded=0;whiteSpace=wrap;html=1;" vertex="1" parent="1">
          <mxGeometry x="111.83" y="1510" width="34.17" height="40" as="geometry" />
        </mxCell>
        <mxCell id="cV3VLb_g4MpRarHLT8mB-139" style="edgeStyle=orthogonalEdgeStyle;rounded=0;orthogonalLoop=1;jettySize=auto;html=1;exitX=1;exitY=0.5;exitDx=0;exitDy=0;entryX=0.5;entryY=1;entryDx=0;entryDy=0;" edge="1" parent="1" source="cV3VLb_g4MpRarHLT8mB-102" target="cV3VLb_g4MpRarHLT8mB-110">
          <mxGeometry relative="1" as="geometry" />
        </mxCell>
        <mxCell id="cV3VLb_g4MpRarHLT8mB-102" value="\[{z^{ - 1}}\]" style="rounded=0;whiteSpace=wrap;html=1;" vertex="1" parent="1">
          <mxGeometry x="110.65999999999998" y="1640" width="34.17" height="30" as="geometry" />
        </mxCell>
        <mxCell id="cV3VLb_g4MpRarHLT8mB-140" style="edgeStyle=orthogonalEdgeStyle;rounded=0;orthogonalLoop=1;jettySize=auto;html=1;exitX=1;exitY=0.5;exitDx=0;exitDy=0;entryX=0.5;entryY=1;entryDx=0;entryDy=0;" edge="1" parent="1" source="cV3VLb_g4MpRarHLT8mB-103" target="cV3VLb_g4MpRarHLT8mB-111">
          <mxGeometry relative="1" as="geometry" />
        </mxCell>
        <mxCell id="cV3VLb_g4MpRarHLT8mB-103" value="\[{z^{ - 1}}\]" style="rounded=0;whiteSpace=wrap;html=1;" vertex="1" parent="1">
          <mxGeometry x="231.82999999999998" y="1640" width="34.17" height="30" as="geometry" />
        </mxCell>
        <mxCell id="cV3VLb_g4MpRarHLT8mB-150" style="edgeStyle=orthogonalEdgeStyle;rounded=0;orthogonalLoop=1;jettySize=auto;html=1;exitX=0;exitY=0.5;exitDx=0;exitDy=0;entryX=0.5;entryY=1;entryDx=0;entryDy=0;" edge="1" parent="1" source="cV3VLb_g4MpRarHLT8mB-104" target="cV3VLb_g4MpRarHLT8mB-112">
          <mxGeometry relative="1" as="geometry" />
        </mxCell>
        <mxCell id="cV3VLb_g4MpRarHLT8mB-104" value="\[{z^{ - 1}}\]" style="rounded=0;whiteSpace=wrap;html=1;" vertex="1" parent="1">
          <mxGeometry x="386.83" y="1640" width="34.17" height="30" as="geometry" />
        </mxCell>
        <mxCell id="cV3VLb_g4MpRarHLT8mB-149" style="edgeStyle=orthogonalEdgeStyle;rounded=0;orthogonalLoop=1;jettySize=auto;html=1;exitX=0;exitY=0.5;exitDx=0;exitDy=0;entryX=0.5;entryY=1;entryDx=0;entryDy=0;" edge="1" parent="1" source="cV3VLb_g4MpRarHLT8mB-105" target="cV3VLb_g4MpRarHLT8mB-113">
          <mxGeometry relative="1" as="geometry" />
        </mxCell>
        <mxCell id="cV3VLb_g4MpRarHLT8mB-105" value="\[{z^{ - 1}}\]" style="rounded=0;whiteSpace=wrap;html=1;" vertex="1" parent="1">
          <mxGeometry x="479.99999999999994" y="1640" width="34.17" height="30" as="geometry" />
        </mxCell>
        <mxCell id="cV3VLb_g4MpRarHLT8mB-106" value="" style="group" vertex="1" connectable="0" parent="1">
          <mxGeometry x="180" y="1520" width="20" height="20" as="geometry" />
        </mxCell>
        <mxCell id="cV3VLb_g4MpRarHLT8mB-107" value="" style="ellipse;whiteSpace=wrap;html=1;aspect=fixed;" vertex="1" parent="cV3VLb_g4MpRarHLT8mB-106">
          <mxGeometry width="20" height="20" as="geometry" />
        </mxCell>
        <mxCell id="cV3VLb_g4MpRarHLT8mB-108" value="" style="endArrow=none;html=1;rounded=0;entryX=1;entryY=1;entryDx=0;entryDy=0;exitX=0;exitY=0;exitDx=0;exitDy=0;" edge="1" parent="cV3VLb_g4MpRarHLT8mB-106" source="cV3VLb_g4MpRarHLT8mB-107" target="cV3VLb_g4MpRarHLT8mB-107">
          <mxGeometry width="50" height="50" relative="1" as="geometry">
            <mxPoint x="-19.99000000000001" as="sourcePoint" />
            <mxPoint x="30.00999999999999" y="-50" as="targetPoint" />
          </mxGeometry>
        </mxCell>
        <mxCell id="cV3VLb_g4MpRarHLT8mB-109" value="" style="endArrow=none;html=1;rounded=0;entryX=0;entryY=1;entryDx=0;entryDy=0;exitX=1;exitY=0;exitDx=0;exitDy=0;" edge="1" parent="cV3VLb_g4MpRarHLT8mB-106" source="cV3VLb_g4MpRarHLT8mB-107" target="cV3VLb_g4MpRarHLT8mB-107">
          <mxGeometry width="50" height="50" relative="1" as="geometry">
            <mxPoint x="-10" y="-10" as="sourcePoint" />
            <mxPoint x="29.99000000000001" y="-10" as="targetPoint" />
          </mxGeometry>
        </mxCell>
        <mxCell id="cV3VLb_g4MpRarHLT8mB-133" style="edgeStyle=orthogonalEdgeStyle;rounded=0;orthogonalLoop=1;jettySize=auto;html=1;exitX=0.5;exitY=0;exitDx=0;exitDy=0;entryX=0.5;entryY=1;entryDx=0;entryDy=0;" edge="1" parent="1" source="cV3VLb_g4MpRarHLT8mB-110" target="cV3VLb_g4MpRarHLT8mB-107">
          <mxGeometry relative="1" as="geometry" />
        </mxCell>
        <mxCell id="cV3VLb_g4MpRarHLT8mB-110" value="\[\frac{{{n_1}}}{{{d_0}}}\]" style="rounded=0;whiteSpace=wrap;html=1;" vertex="1" parent="1">
          <mxGeometry x="172.92" y="1570" width="34.17" height="40" as="geometry" />
        </mxCell>
        <mxCell id="cV3VLb_g4MpRarHLT8mB-134" style="edgeStyle=orthogonalEdgeStyle;rounded=0;orthogonalLoop=1;jettySize=auto;html=1;exitX=0.5;exitY=0;exitDx=0;exitDy=0;entryX=0.5;entryY=1;entryDx=0;entryDy=0;" edge="1" parent="1" source="cV3VLb_g4MpRarHLT8mB-111" target="cV3VLb_g4MpRarHLT8mB-117">
          <mxGeometry relative="1" as="geometry" />
        </mxCell>
        <mxCell id="cV3VLb_g4MpRarHLT8mB-111" value="\[\frac{{{n_2}}}{{{d_0}}}\]" style="rounded=0;whiteSpace=wrap;html=1;" vertex="1" parent="1">
          <mxGeometry x="268.91999999999996" y="1570" width="34.17" height="40" as="geometry" />
        </mxCell>
        <mxCell id="cV3VLb_g4MpRarHLT8mB-135" style="edgeStyle=orthogonalEdgeStyle;rounded=0;orthogonalLoop=1;jettySize=auto;html=1;exitX=0.5;exitY=0;exitDx=0;exitDy=0;entryX=0.5;entryY=1;entryDx=0;entryDy=0;" edge="1" parent="1" source="cV3VLb_g4MpRarHLT8mB-112" target="cV3VLb_g4MpRarHLT8mB-122">
          <mxGeometry relative="1" as="geometry" />
        </mxCell>
        <mxCell id="cV3VLb_g4MpRarHLT8mB-112" value="\[\frac{{{d_1}}}{{{d_0}}}\]" style="rounded=0;whiteSpace=wrap;html=1;" vertex="1" parent="1">
          <mxGeometry x="332.91999999999996" y="1570" width="34.17" height="40" as="geometry" />
        </mxCell>
        <mxCell id="cV3VLb_g4MpRarHLT8mB-136" style="edgeStyle=orthogonalEdgeStyle;rounded=0;orthogonalLoop=1;jettySize=auto;html=1;exitX=0.5;exitY=0;exitDx=0;exitDy=0;entryX=0.5;entryY=1;entryDx=0;entryDy=0;" edge="1" parent="1" source="cV3VLb_g4MpRarHLT8mB-113" target="cV3VLb_g4MpRarHLT8mB-126">
          <mxGeometry relative="1" as="geometry" />
        </mxCell>
        <mxCell id="cV3VLb_g4MpRarHLT8mB-113" value="\[\frac{{{d_2}}}{{{d_0}}}\]" style="rounded=0;whiteSpace=wrap;html=1;" vertex="1" parent="1">
          <mxGeometry x="439.99999999999994" y="1570" width="34.17" height="40" as="geometry" />
        </mxCell>
        <mxCell id="cV3VLb_g4MpRarHLT8mB-116" value="" style="group" vertex="1" connectable="0" parent="1">
          <mxGeometry x="275.75" y="1520" width="20" height="20" as="geometry" />
        </mxCell>
        <mxCell id="cV3VLb_g4MpRarHLT8mB-117" value="" style="ellipse;whiteSpace=wrap;html=1;aspect=fixed;" vertex="1" parent="cV3VLb_g4MpRarHLT8mB-116">
          <mxGeometry width="20" height="20" as="geometry" />
        </mxCell>
        <mxCell id="cV3VLb_g4MpRarHLT8mB-118" value="" style="endArrow=none;html=1;rounded=0;entryX=1;entryY=1;entryDx=0;entryDy=0;exitX=0;exitY=0;exitDx=0;exitDy=0;" edge="1" parent="cV3VLb_g4MpRarHLT8mB-116" source="cV3VLb_g4MpRarHLT8mB-117" target="cV3VLb_g4MpRarHLT8mB-117">
          <mxGeometry width="50" height="50" relative="1" as="geometry">
            <mxPoint x="-19.99000000000001" as="sourcePoint" />
            <mxPoint x="30.00999999999999" y="-50" as="targetPoint" />
          </mxGeometry>
        </mxCell>
        <mxCell id="cV3VLb_g4MpRarHLT8mB-119" value="" style="endArrow=none;html=1;rounded=0;entryX=0;entryY=1;entryDx=0;entryDy=0;exitX=1;exitY=0;exitDx=0;exitDy=0;" edge="1" parent="cV3VLb_g4MpRarHLT8mB-116" source="cV3VLb_g4MpRarHLT8mB-117" target="cV3VLb_g4MpRarHLT8mB-117">
          <mxGeometry width="50" height="50" relative="1" as="geometry">
            <mxPoint x="-10" y="-10" as="sourcePoint" />
            <mxPoint x="29.99000000000001" y="-10" as="targetPoint" />
          </mxGeometry>
        </mxCell>
        <mxCell id="cV3VLb_g4MpRarHLT8mB-121" value="" style="group" vertex="1" connectable="0" parent="1">
          <mxGeometry x="340" y="1520" width="20" height="20" as="geometry" />
        </mxCell>
        <mxCell id="cV3VLb_g4MpRarHLT8mB-122" value="" style="ellipse;whiteSpace=wrap;html=1;aspect=fixed;" vertex="1" parent="cV3VLb_g4MpRarHLT8mB-121">
          <mxGeometry width="20" height="20" as="geometry" />
        </mxCell>
        <mxCell id="cV3VLb_g4MpRarHLT8mB-123" value="" style="endArrow=none;html=1;rounded=0;entryX=1;entryY=1;entryDx=0;entryDy=0;exitX=0;exitY=0;exitDx=0;exitDy=0;" edge="1" parent="cV3VLb_g4MpRarHLT8mB-121" source="cV3VLb_g4MpRarHLT8mB-122" target="cV3VLb_g4MpRarHLT8mB-122">
          <mxGeometry width="50" height="50" relative="1" as="geometry">
            <mxPoint x="-19.99000000000001" as="sourcePoint" />
            <mxPoint x="30.00999999999999" y="-50" as="targetPoint" />
          </mxGeometry>
        </mxCell>
        <mxCell id="cV3VLb_g4MpRarHLT8mB-124" value="" style="endArrow=none;html=1;rounded=0;entryX=0;entryY=1;entryDx=0;entryDy=0;exitX=1;exitY=0;exitDx=0;exitDy=0;" edge="1" parent="cV3VLb_g4MpRarHLT8mB-121" source="cV3VLb_g4MpRarHLT8mB-122" target="cV3VLb_g4MpRarHLT8mB-122">
          <mxGeometry width="50" height="50" relative="1" as="geometry">
            <mxPoint x="-10" y="-10" as="sourcePoint" />
            <mxPoint x="29.99000000000001" y="-10" as="targetPoint" />
          </mxGeometry>
        </mxCell>
        <mxCell id="cV3VLb_g4MpRarHLT8mB-125" value="" style="group" vertex="1" connectable="0" parent="1">
          <mxGeometry x="447.08" y="1520" width="20" height="20" as="geometry" />
        </mxCell>
        <mxCell id="cV3VLb_g4MpRarHLT8mB-126" value="" style="ellipse;whiteSpace=wrap;html=1;aspect=fixed;" vertex="1" parent="cV3VLb_g4MpRarHLT8mB-125">
          <mxGeometry width="20" height="20" as="geometry" />
        </mxCell>
        <mxCell id="cV3VLb_g4MpRarHLT8mB-127" value="" style="endArrow=none;html=1;rounded=0;entryX=1;entryY=1;entryDx=0;entryDy=0;exitX=0;exitY=0;exitDx=0;exitDy=0;" edge="1" parent="cV3VLb_g4MpRarHLT8mB-125" source="cV3VLb_g4MpRarHLT8mB-126" target="cV3VLb_g4MpRarHLT8mB-126">
          <mxGeometry width="50" height="50" relative="1" as="geometry">
            <mxPoint x="-19.99000000000001" as="sourcePoint" />
            <mxPoint x="30.00999999999999" y="-50" as="targetPoint" />
          </mxGeometry>
        </mxCell>
        <mxCell id="cV3VLb_g4MpRarHLT8mB-128" value="" style="endArrow=none;html=1;rounded=0;entryX=0;entryY=1;entryDx=0;entryDy=0;exitX=1;exitY=0;exitDx=0;exitDy=0;" edge="1" parent="cV3VLb_g4MpRarHLT8mB-125" source="cV3VLb_g4MpRarHLT8mB-126" target="cV3VLb_g4MpRarHLT8mB-126">
          <mxGeometry width="50" height="50" relative="1" as="geometry">
            <mxPoint x="-10" y="-10" as="sourcePoint" />
            <mxPoint x="29.99000000000001" y="-10" as="targetPoint" />
          </mxGeometry>
        </mxCell>
        <mxCell id="cV3VLb_g4MpRarHLT8mB-138" style="edgeStyle=orthogonalEdgeStyle;rounded=0;orthogonalLoop=1;jettySize=auto;html=1;exitX=0.5;exitY=1;exitDx=0;exitDy=0;entryX=0;entryY=0.5;entryDx=0;entryDy=0;" edge="1" parent="1" source="cV3VLb_g4MpRarHLT8mB-137" target="cV3VLb_g4MpRarHLT8mB-102">
          <mxGeometry relative="1" as="geometry" />
        </mxCell>
        <mxCell id="cV3VLb_g4MpRarHLT8mB-137" value="x（n）" style="rounded=0;whiteSpace=wrap;html=1;strokeColor=none;fillColor=none;" vertex="1" parent="1">
          <mxGeometry x="55" y="1510" width="39" height="20" as="geometry" />
        </mxCell>
        <mxCell id="cV3VLb_g4MpRarHLT8mB-141" style="edgeStyle=orthogonalEdgeStyle;rounded=0;orthogonalLoop=1;jettySize=auto;html=1;exitX=1;exitY=0.5;exitDx=0;exitDy=0;entryX=0;entryY=0.5;entryDx=0;entryDy=0;" edge="1" parent="1" source="cV3VLb_g4MpRarHLT8mB-107" target="cV3VLb_g4MpRarHLT8mB-117">
          <mxGeometry relative="1" as="geometry" />
        </mxCell>
        <mxCell id="cV3VLb_g4MpRarHLT8mB-142" value="" style="endArrow=classic;html=1;rounded=0;entryX=0;entryY=0.5;entryDx=0;entryDy=0;exitX=1;exitY=0.5;exitDx=0;exitDy=0;" edge="1" parent="1" source="cV3VLb_g4MpRarHLT8mB-102" target="cV3VLb_g4MpRarHLT8mB-103">
          <mxGeometry width="50" height="50" relative="1" as="geometry">
            <mxPoint x="160" y="1650" as="sourcePoint" />
            <mxPoint x="250" y="1610" as="targetPoint" />
          </mxGeometry>
        </mxCell>
        <mxCell id="cV3VLb_g4MpRarHLT8mB-143" value="" style="shape=waypoint;sketch=0;fillStyle=solid;size=6;pointerEvents=1;points=[];fillColor=none;resizable=0;rotatable=0;perimeter=centerPerimeter;snapToPoint=1;" vertex="1" parent="1">
          <mxGeometry x="180" y="1645" width="20" height="20" as="geometry" />
        </mxCell>
        <mxCell id="cV3VLb_g4MpRarHLT8mB-144" style="edgeStyle=orthogonalEdgeStyle;rounded=0;orthogonalLoop=1;jettySize=auto;html=1;exitX=1;exitY=0.5;exitDx=0;exitDy=0;entryX=0;entryY=0.5;entryDx=0;entryDy=0;" edge="1" parent="1" source="cV3VLb_g4MpRarHLT8mB-117" target="cV3VLb_g4MpRarHLT8mB-122">
          <mxGeometry relative="1" as="geometry" />
        </mxCell>
        <mxCell id="cV3VLb_g4MpRarHLT8mB-145" style="edgeStyle=orthogonalEdgeStyle;rounded=0;orthogonalLoop=1;jettySize=auto;html=1;exitX=1;exitY=0.5;exitDx=0;exitDy=0;entryX=0;entryY=0.5;entryDx=0;entryDy=0;" edge="1" parent="1" source="cV3VLb_g4MpRarHLT8mB-122" target="cV3VLb_g4MpRarHLT8mB-126">
          <mxGeometry relative="1" as="geometry" />
        </mxCell>
        <mxCell id="cV3VLb_g4MpRarHLT8mB-146" value="" style="endArrow=classic;html=1;rounded=0;exitX=1;exitY=0.5;exitDx=0;exitDy=0;entryX=1;entryY=1;entryDx=0;entryDy=0;" edge="1" parent="1" source="cV3VLb_g4MpRarHLT8mB-126" target="cV3VLb_g4MpRarHLT8mB-147">
          <mxGeometry width="50" height="50" relative="1" as="geometry">
            <mxPoint x="390" y="1580" as="sourcePoint" />
            <mxPoint x="490" y="1530" as="targetPoint" />
          </mxGeometry>
        </mxCell>
        <mxCell id="cV3VLb_g4MpRarHLT8mB-148" style="edgeStyle=orthogonalEdgeStyle;rounded=0;orthogonalLoop=1;jettySize=auto;html=1;exitX=0.5;exitY=1;exitDx=0;exitDy=0;entryX=1;entryY=0.5;entryDx=0;entryDy=0;" edge="1" parent="1" source="cV3VLb_g4MpRarHLT8mB-147" target="cV3VLb_g4MpRarHLT8mB-105">
          <mxGeometry relative="1" as="geometry" />
        </mxCell>
        <mxCell id="cV3VLb_g4MpRarHLT8mB-147" value="y（n）" style="rounded=0;whiteSpace=wrap;html=1;strokeColor=none;fillColor=none;" vertex="1" parent="1">
          <mxGeometry x="530" y="1510" width="39" height="20" as="geometry" />
        </mxCell>
        <mxCell id="cV3VLb_g4MpRarHLT8mB-151" value="" style="endArrow=classic;html=1;rounded=0;entryX=1;entryY=0.5;entryDx=0;entryDy=0;exitX=0;exitY=0.5;exitDx=0;exitDy=0;" edge="1" parent="1" source="cV3VLb_g4MpRarHLT8mB-105" target="cV3VLb_g4MpRarHLT8mB-104">
          <mxGeometry width="50" height="50" relative="1" as="geometry">
            <mxPoint x="530" y="1610" as="sourcePoint" />
            <mxPoint x="580" y="1560" as="targetPoint" />
          </mxGeometry>
        </mxCell>
        <mxCell id="cV3VLb_g4MpRarHLT8mB-152" value="" style="shape=waypoint;sketch=0;fillStyle=solid;size=6;pointerEvents=1;points=[];fillColor=none;resizable=0;rotatable=0;perimeter=centerPerimeter;snapToPoint=1;" vertex="1" parent="1">
          <mxGeometry x="447.08" y="1645" width="20" height="20" as="geometry" />
        </mxCell>
        <mxCell id="cV3VLb_g4MpRarHLT8mB-153" value="+" style="text;html=1;align=center;verticalAlign=middle;whiteSpace=wrap;rounded=0;fontSize=20;" vertex="1" parent="1">
          <mxGeometry x="150.75" y="1510" width="24.25" height="20" as="geometry" />
        </mxCell>
        <mxCell id="cV3VLb_g4MpRarHLT8mB-154" value="+" style="text;html=1;align=center;verticalAlign=middle;whiteSpace=wrap;rounded=0;fontSize=20;" vertex="1" parent="1">
          <mxGeometry x="185" y="1550" width="24.25" height="20" as="geometry" />
        </mxCell>
        <mxCell id="cV3VLb_g4MpRarHLT8mB-155" value="+" style="text;html=1;align=center;verticalAlign=middle;whiteSpace=wrap;rounded=0;fontSize=20;" vertex="1" parent="1">
          <mxGeometry x="244.67000000000002" y="1510" width="24.25" height="20" as="geometry" />
        </mxCell>
        <mxCell id="cV3VLb_g4MpRarHLT8mB-156" value="+" style="text;html=1;align=center;verticalAlign=middle;whiteSpace=wrap;rounded=0;fontSize=20;" vertex="1" parent="1">
          <mxGeometry x="265.75" y="1540" width="24.25" height="20" as="geometry" />
        </mxCell>
        <mxCell id="cV3VLb_g4MpRarHLT8mB-157" value="+" style="text;html=1;align=center;verticalAlign=middle;whiteSpace=wrap;rounded=0;fontSize=20;" vertex="1" parent="1">
          <mxGeometry x="315.75" y="1510" width="24.25" height="20" as="geometry" />
        </mxCell>
        <mxCell id="cV3VLb_g4MpRarHLT8mB-158" value="-" style="text;html=1;align=center;verticalAlign=middle;whiteSpace=wrap;rounded=0;fontSize=20;" vertex="1" parent="1">
          <mxGeometry x="327.87" y="1540" width="24.25" height="20" as="geometry" />
        </mxCell>
        <mxCell id="cV3VLb_g4MpRarHLT8mB-159" value="+" style="text;html=1;align=center;verticalAlign=middle;whiteSpace=wrap;rounded=0;fontSize=20;" vertex="1" parent="1">
          <mxGeometry x="422" y="1512" width="24.25" height="20" as="geometry" />
        </mxCell>
        <mxCell id="cV3VLb_g4MpRarHLT8mB-160" value="-" style="text;html=1;align=center;verticalAlign=middle;whiteSpace=wrap;rounded=0;fontSize=20;" vertex="1" parent="1">
          <mxGeometry x="434.12" y="1542" width="24.25" height="20" as="geometry" />
        </mxCell>
        <mxCell id="cV3VLb_g4MpRarHLT8mB-161" value="&lt;div style=&quot;font-weight: normal; font-size: 14px; line-height: 19px; white-space: pre; color: rgb(0, 0, 0);&quot;&gt;&lt;div style=&quot;&quot;&gt;&lt;font color=&quot;#795e26&quot;&gt;汇川代码&lt;/font&gt;&lt;/div&gt;&lt;/div&gt;" style="text;whiteSpace=wrap;html=1;fontFamily=Comic Sans MS;labelBackgroundColor=none;" vertex="1" parent="1">
          <mxGeometry x="710" y="1850" width="80" height="40" as="geometry" />
        </mxCell>
        <mxCell id="cV3VLb_g4MpRarHLT8mB-162" value="令 K=dx，B=qx，wn=2wx，T=1/hx" style="text;html=1;align=left;verticalAlign=middle;whiteSpace=wrap;rounded=0;fontSize=14;fontFamily=Comic Sans MS;" vertex="1" parent="1">
          <mxGeometry x="30" y="2060" width="250" height="30" as="geometry" />
        </mxCell>
        <mxCell id="cV3VLb_g4MpRarHLT8mB-163" value="&lt;div style=&quot;font-weight: normal; font-size: 14px; line-height: 19px; white-space: pre; color: rgb(0, 0, 0);&quot;&gt;&lt;div style=&quot;&quot;&gt;&lt;font color=&quot;#795e26&quot;&gt;安川代码&lt;/font&gt;&lt;/div&gt;&lt;/div&gt;" style="text;whiteSpace=wrap;html=1;fontFamily=Comic Sans MS;labelBackgroundColor=none;" vertex="1" parent="1">
          <mxGeometry x="516" y="2060" width="80" height="40" as="geometry" />
        </mxCell>
        <mxCell id="cV3VLb_g4MpRarHLT8mB-164" value="" style="shape=curlyBracket;whiteSpace=wrap;html=1;rounded=1;labelPosition=left;verticalLabelPosition=middle;align=right;verticalAlign=middle;fontFamily=Comic Sans MS;" vertex="1" parent="1">
          <mxGeometry x="67.12" y="2100" width="20" height="120" as="geometry" />
        </mxCell>
        <mxCell id="cV3VLb_g4MpRarHLT8mB-165" value="\[{n_0} = {h_x}^2 + \frac{{{d_x}{h_x}{w_x}}}{{{q_x}}} + {w_x}^2\]" style="text;html=1;align=left;verticalAlign=middle;whiteSpace=wrap;rounded=0;fontFamily=Comic Sans MS;fontSize=14;" vertex="1" parent="1">
          <mxGeometry x="88.12" y="2100" width="224.75" height="40" as="geometry" />
        </mxCell>
        <mxCell id="cV3VLb_g4MpRarHLT8mB-166" value="\[{n_1} =  - 2{h_x}^2 + 2{w_x}^2\]" style="text;html=1;align=left;verticalAlign=middle;whiteSpace=wrap;rounded=0;fontFamily=Comic Sans MS;fontSize=14;" vertex="1" parent="1">
          <mxGeometry x="87.12" y="2140" width="225.75" height="40" as="geometry" />
        </mxCell>
        <mxCell id="cV3VLb_g4MpRarHLT8mB-167" value="\[{n_2} = {h_x}^2 - \frac{{{d_x}{h_x}{w_x}}}{{{q_x}}} + {w_x}^2\]" style="text;html=1;align=left;verticalAlign=middle;whiteSpace=wrap;rounded=0;fontFamily=Comic Sans MS;fontSize=14;" vertex="1" parent="1">
          <mxGeometry x="88.12" y="2180" width="224.75" height="40" as="geometry" />
        </mxCell>
        <mxCell id="cV3VLb_g4MpRarHLT8mB-168" value="" style="shape=curlyBracket;whiteSpace=wrap;html=1;rounded=1;labelPosition=left;verticalLabelPosition=middle;align=right;verticalAlign=middle;fontFamily=Comic Sans MS;" vertex="1" parent="1">
          <mxGeometry x="314.25" y="2100" width="20" height="120" as="geometry" />
        </mxCell>
        <mxCell id="cV3VLb_g4MpRarHLT8mB-169" value="\[{d_0} = {h_x}^2 + \frac{{{h_x}{w_x}}}{{{q_x}}} + {w_x}^2\]" style="text;html=1;align=left;verticalAlign=middle;whiteSpace=wrap;rounded=0;fontFamily=Comic Sans MS;fontSize=14;" vertex="1" parent="1">
          <mxGeometry x="335.25" y="2100" width="224.75" height="40" as="geometry" />
        </mxCell>
        <mxCell id="cV3VLb_g4MpRarHLT8mB-170" value="\[{d_1} =  - 2{h_x}^2 + 2{w_x}^2\]" style="text;html=1;align=left;verticalAlign=middle;whiteSpace=wrap;rounded=0;fontFamily=Comic Sans MS;fontSize=14;" vertex="1" parent="1">
          <mxGeometry x="334.25" y="2140" width="225.75" height="40" as="geometry" />
        </mxCell>
        <mxCell id="cV3VLb_g4MpRarHLT8mB-171" value="\[{d_2} = {h_x}^2 - \frac{{{h_x}{w_x}}}{{{q_x}}} + {w_x}^2\]" style="text;html=1;align=left;verticalAlign=middle;whiteSpace=wrap;rounded=0;fontFamily=Comic Sans MS;fontSize=14;" vertex="1" parent="1">
          <mxGeometry x="335.25" y="2180" width="224.75" height="40" as="geometry" />
        </mxCell>
        <mxCell id="cV3VLb_g4MpRarHLT8mB-172" value="" style="shape=image;verticalLabelPosition=bottom;labelBackgroundColor=default;verticalAlign=top;aspect=fixed;imageAspect=0;image=data:image/png,iVBORw0KGgoAAAANSUhEUgAABpoAAAIgCAIAAAAa5i05AAAQAElEQVR4Aez9D2hbZ57o/5+YEORgukpvtiPnG/KNcnNnK28339rXO1N7OnupQimRGMpYhKUSpSxyGRZ5KEUehsEeyjAyQ6nFUmoxXGqxlEEahmCXUqRQSlR2trU7M75WN9u1urO+cW6+2Vi/br61toREhOD8zn8dyfprH8mS/Day/pzznOc8z+scSY8+5znP6XnIHwIIIIAAAggggAACCCCAAAIIdLsA9UMAga4R6BH4QwABBBBAAAEEEEAAAQQqCDAZAQQQQAABBNpNgHBeu20RyoMAAggggEA3CFAHBBBAAAEEEEAAAQQQaJIA4bwmwZItAgjsRoBlEEAAAQQQQAABBBBAAAEEEECgukA3hPOq15C5CCCAAAIIIIAAAggggAACCCDQDQLUAQEEZAHCeTIDdwgggAACCCCAAAIIINCtAtQLAQQQQACB7hIgnNdd25PaIIAAAggggIBZAuSDAAIIIIAAAggggEBbChDOa8vNQqEQQKBzBSg5AggggAACCCCAAAIIIIAAAs0UIJzXTN368yYlAggggAACCCCAAAIIIIAAAgh0vwA1RMAEAcJ5JiCSBQIIIIAAAggggAACCCDQTAHyRgABBBBAoCBAOK9gwTMEEEAAAQQQQKC7BKgNAggggAACCCCAQBcKEM7rwo1KlRBAAIG9CbA0AggggAACCCCAAAIIIIBA+woQzmvfbdNpJaO8CCCAAAIIIIAAAggggAACCCDQ/QLUcN8FCOft+yagAAgggAACCCCAAAIIIIBA9wtQQwQQQAABswQI55klST4IIIAAAggggAAC5guQIwIIIIAAAggggECJAOG8EhBeIoAAAgh0gwB1QAABBBBAAAEEEEAAAQS6VYBwXrduWeq1GwGWQQABBBBAAAEEEEAAAQQQQACB7hfo8BoSzuvwDUjxEUAAAQQQQAABBBBAAAEEWiPAWhBAAIH2ECCc1x7bgVIggAACCCCAAAIIdKsA9UIAAQQQQAABBEwVIJxnKieZIYAAAgggYJYA+SCAAAIIIIAAAggggAAC5QQI55VTYRoCnStAyRFAAAEEEEAAAQQQQAABBBBAoKsF5HBeV9eQyiGAAAIIIIAAAggggAACCCCAgCzAHQIIdIMA4bxu2IrUAQEEEEAAAQQQQACBZgqQNwIIIIAAAgi0kQDhvDbaGBQFAQQQQACB7hKgNggggAACCCCAAAIIIGC+AOE8803JEQEE9ibA0ggggAACCCCAAAIIIIAAAgggUFGga8J5FWvIDAQQQAABBBBAAAEEEEAAAQQQ6BoBKoIAAoTz2AcQQAABBBBAAAEEEECg+wWoIQIIIIAAAl0jQDivazYlFUEAAQQQQAAB8wXIEQEEEEAAAQQQQACBdhMgnNduW4TyIIBANwhQBwQQQAABBBBAAAEEEEAAAQSaJEA4r0mwu8mWZRBAAAEEEEAAAQQQQAABBBBAoPsFqCECexMgnLc3P5ZGAAEEEEAAAQQQQAABBFojwFoQQAABBBCQBQjnyQzcIYAAAggggAAC3SpAvRBAAAEEEEAAAQS6S4BwXndtT2qDAAIImCVAPggggAACCCCAAAIIIIAAAm0pQDivLTdL5xaKkiOAAAIIIIAAAggggAACCCCAQPcLUMP9FCCct5/6rBsBBBBAAAEEEEAAAQQQOEgC1BUBBBBAwAQBwnkmIJIFAggggAACCCCAQDMFyBsBBBBAAAEEEECgIEA4r2DBMwQQQACB7hKgNggggAACCCCAAAIIIIBAFwoQzuvCjUqV9ibA0ggggAACCCCAAAIIIIAAAggg0P0CnVtDwnmdu+0oOQIIIIAAAggggAACCCCAQKsFWB8CCCCw7wKE8/Z9E1AABBBAAAEEEEAAge4XoIYIIIAAAggggIBZAoTzzJIkHwQQQAABBMwXIEcEEEAAAQQQQAABBBBAoESAcF4JCC8R6AYB6oAAAggggAACCCCAAAIIIIAAAt0qUAjndWsNqRcCCCCAAAIIIIAAAggggAACCBQEeIYAAh0uQDivwzcgxUcAAQQQQAABBBBAoDUCrAUBBBBAAAEE2kOAcF57bAdKgQACCCCAQLcKUC8EEEAAAQQQQAABBBAwVYBwnqmcZIYAAmYJkA8CCCCAAAIIIIAAAggggAACCJQT6K5wXrkaMg0BBBBAAAEEEEAAAQQQQAABBLpLgNogcKAFCOcd6M1P5RFAAAEEEEAAAQQQOEgC1BUBBBBAAIFuECCc1w1bkToggAACCCCAQDMFyBsBBBBAAAEEEEAAgTYSIJzXRhuDoiCAQHcJUBsEEEAAAQQQQAABBBBAAAEEzBcgnGe+6d5yZGkEEEAAAQQQQAABBBBAAAEEEOh+AWqIwK4FCOftmo4FEUAAAQQQQAABBBBAAIFWC7A+BBBAAAEECOexDyCAQC2B3KLv73zJO7WSMR+BgyxwIzz61kzm/kEmoO7tLkD5EEAAAQQQQAABBLpGgHBe12xKKoJAcwTuJH2/9MS/jrvfIqLXHOH2zpXS1SVwIzz0zuTyV9MDvwxntutagkQIIIAAAggggAACCCCAwK4FCOftmo4FKwowY18Fkr6fHTok3t4Mb+y9HGIs7y13XOlw9CCTvp3fe5bk0KkCN8MD4n4l33wrnVqJJpU788+xtBLFy00OvEVEr0nMZIsAAp0mwBdHp22x5pV3IzEgtU6lVoQv2bzV7Mx5xaesdyBhQrt4Z/Ytn9JoO38j/Kb8u0CUf6el8LuVyUYiaoF7f53abSYs13IBVrhPAoTz9gme1SLQbIGj/f17XMV2JhzVYnk9Nv+F1NRpyx6zZHEEulLA4U4tnRtUq5abHP1VMqe+4AEBBBBAAAEEygm0dpr9T/baLm5teWutbe/t/Fpr2J/51+bCt5U124PfdirPuEcAgUoChPMqyTAdgRYJ5G+no++6h97o7/25djDq9YHzsXDy5u66wtkHHpFLfsS6t9hbLvmr0Uk1JmH1XsjMD1vlfDvvLv/Z+DHxmKR0OzO93mD5t/OZ1fD4Lwf6f6FunUM/P9b/lnv6t+ms0mmxwfxI3iSBjctDyuH3Qz93xxsd5/F+Nv3bafdb/f0z2lae6R/45Xh4NZNX+tzVLrR15PupxGn1PZK77nYmMrUXIgUCCDQqQHoEzBPY7y8O82pCTlUEHhtwyHOtlr21i+VM2uDOrHZ+G1SlXBFSv9POLjoenDhTLgXTDqQAH9eVNntPpRlMRwCBpgvklsNv9/dGhsavJtN3s3rgIJ/PpNYn3dHe/rfDyzUCE/lkbHT80w1D5M9ikd/WFsuxQvm3c8lLQ+4r2cKUWs9yvw94rmvBvMeTsY6N5Qnb6dCVqFoTYWMmobUSagkIQn7j0/GBmd6B9yejX2YKwbvtXPar5MxHQ/2vD4z/vgHS2iskxa4F7sQnVtLq0tvJwHtJwztCENQZ5R62c8sJd//r/UMfzSS/ymYfaGkeZDNfRiffH+h9wx3+Qtt9tJkVHq2uF5dCakBPSK/6wjcqJGQyAggggMC+C7TFF8e+K3RdAe4mxyPji7cMrYAeJYpnOaY8KjXOJSffdEfVXmDKpPa8b1Y7vz1rK9yNR9bVbTc26Le1aSkpVssF+LiuTC7/7q88mzkIHFCB5lc798X06Fujk7eqxYOytyZH/+dEqkpE7/NJ3/py9IMzdjHwp8Yceq1HpNLb+9Qvwfz1iPuNY+61dPLTYPKuNKv2/52474O4+nVqnV26OFJ7kXZNkf1ockYBVD7tcpPj9YQ1t7Pxv7ef+SBa7bIG25noZcf5K3TC2v9tv5wIJJVudPJWzq37Jj+vo1R3lqcjx0ZXklll2bJL5JOTl4YmrqrvrrJJChN7HFPfnx2UyyDGkSffnam2/xQW4xkCCCCAQKsF2uWLo9X17vL1Lb/vi96OeqJ2d2I5p3y5H7XKJ9na7erxtnzmQ3f/W+5wLjmRqPvg336xNamdv1/VqbXe7Cdzi8pW65sKjRrjr7WWZH5XC7Tq47ojEZWfHR1ZdAqNQAcL/HHacWlmWfnGEgTH6dnES1v3fvrw4WsP7wWvXRl22fS35p2Ip3JXo/S/ryp98aTA31sDcjc9W/9RDWY7t/zeaO87E2prZTsVXa0WPdQWyycX/GpwRHCEvh906IXRUnTM4524f0keRvdIIHHBrzTkUp8GF5UAX8Vq5OJ/3++7oVlZRoLPrF4L3hO3zsOf3tt6acGvnM4sLZ5LLfnCN6Vn/O+bwPq0T+lA99j8lWFlALtc5MpMrVBaevqXozNfaaV+xDv7vbWtH0vvwYc/2brmmXXpzcjtjUhist5Q+KnggloGQchNey53x8DbmhKPCCCAQHcItNUXR3eQtkUt0qu35S/v7WxyZfTYm3I3vUf71ePbYglzy9Nv9Q4sqYfx8tno4pfi1L3cmrtsc9r5zS3z7nPfToV+v6wsPnJuQjlFWnnJ/YEW4OO66ubv3J/pVavFTATaXOCbk9FTcnCpZ2Tqr7fWXgq6TluVwJylz+50JzZfCulfY7n1UKXTAQafW9r88bWFgREp/LedUbrppeRudY6elOeNY6Ofyd+LPbaxJxPXfry58HShSVNRaD00cV3OQhDs52JTpyombP8Z+sEc13dDruHZyAm5yA/i/veSag3lCTvurN5n1T5WtlOxzR8tzf7VoL3PIiXrsVhPj82/urVwSn4pTtpOT/+jHDEUn3PbB4Fs9MMZOWZmn3rW73wuOtUnFyI37ftAniy/Knc3OPmM1yrPGHlyaevVWHDIoY43ecRqfyKY+NGafuascD8a+kQL78qLVLmz62UQhMzqRMMD+VXJmlkIINANAtRh3wXa7otj30W6pQCDgcDmvZcXgsdtUo2+VrrppeQO9g7hmqf/Le0w3tGxqe9du/fjBe9jUsK2/W9KO79da5v/NBJRxjzpGZv4jrwF27WolKuFAnxc18AmnFcDiNkINEdAGmZr9sRY7AdLoceVkELxek5NzX1TCxgJy9E/VA5MHLGPXSwE9bK3JsNy2GHx9+OLYshKDOQNX9kUA3nPu+xHildR/lU+/g9KcEQQelyhZ5W+TuWTtvvUGzN+pdOWdXbuaRHZ6r2gBuly6xOh6tfEOBVMXfC7zi1l/sYrhUpLq2od+97siDYxvx5Pas95bLFA7vfBCfnQuuX03PRZcacdnD6vdsNMr9QIpVmHY0vDrrHzm0vPj4j7R2nJexxTzwQKb8K1WOU3YfGiPYPT/8OrLridnDbndOziVfAKAQQQQGC3Au34xbHburDcTgHLibFZPagnddMLy420xcmPFrPbgnB0bNazee9HC6Ehu/pNvTOLtppicju/repmLEw2ml5UXlvOBrz6mUbKJO4PqgAf1zW3POG8mkQkQKA5Aj2O4MvVjgo6/8KvtzPSX9YaoE35sv/RUlDpmiQVWbCejkmBPLfTVlcgT17mWmhaO3XUfm7Wa8hNnr3jbsV36GeH5NtA/eec5j92y4uI4oCnDgAAEABJREFUCw4pwUdhOxN+U3yp3nr/flE+lLpjdcqE9ekz6koPHfr5UIULDmSjiWlZzRo4H7QrC54MRp9Qnm7MJGqcjGkdnk98v1yUR8nquMevH9HdXspoaMrMg3Ofv5UMvzPU/wttw70+cP5SNF1h4+VWfMf0DfezgZlqV4rIxd9W8xR3lWPvJMtnub08fUUe5LHHOedWz461PKl1w9xO+i9V3ZEEweFOVOuyes7nP6xtzNyqvDtpL6s+Woan9XfixueRlPj7oWp6ZiKAAAIHR6ChLw7hTtKnfcWIXwcD71f7JM59rLcuDh36hS9ZdmCNdv3iMGEHuBke0L5kfSsm5LerLPLZPy6GY+cH3jgmbi/1NtPf/5Z7cr3iQbFMYkhNKZZ/xldtRJTt9HS40DwYSlTcH9Sg3l9rLUCpMlbvs1IgL/iETW9gS5O1/+Q7Ws5vhiuWVUusPeYLzRVtKfNbO+LKzGrni1mJt/sbyYRvSN9GM/0Dv5yMXivf1GpCE10swY7btbmwemUSe/Dbzh2zK0y4n03/dtr3ywG9ISruSMfeGDgfC8c/XYy8O+5+q783lixZuBn7W8kq9vZyI6z/JnqntPB7y7n80u2753fxx3X5TbGbqSXhvN1kwTIIINAUAatdiTzVlfn9bOpD38Abo2FD4zV33df/pmd6dSNfVxZSovQ/RbUWzEjwO/r5vtKs8v+2IS3RxkaFZsDOBTf/c0Ob6HAovel7HEHfvFP7QMrf8Pg+rpCd2JJ7T+s/KAiuZ1LBcqcD51fUTlvCiUjoCW1tgjD43JxfCW7mpic+kvsxFmY29MwwRmFDy3VN4u1c8tJA79vuyevp7H21Vvl8JrU2PvTWmbLXjrAOx5KFvqiZ6UvT6QpxrtzHPt8tNU+hbyr1osuqvTI+blz2R+RV25+Y9R/X5xS6YeZv+KfruSaGvmjpE5u9ZkS7dBHltWPi3IjyTHgQiXxa/1tQXYgHBBBAoAsFGv/iEPpcse8F9K+AzKp7ulLn+jtx30f6T1/71MWYq9wHeBt/cXT8Bs/fWhz/u97+X3sm11OZu4ZW3INs9qvkYq7iV6HDnZzXD5E+iHt+HTcsXMSSfs+jXt9MnHwilnJrjVDxZfEtfzsVeWeg9zfGwFwu/mG/PTqdvFW+JI7jWm53NupuIG5u3tVWbHUo7XbTWzvSCkxq54tZ5T6bHHj9jHslnr6rMgsPspkvw+O/OnbmN8qJyWIqw63H5Ca6IevC09TvtC11PDhxpjC98rP8xqfjA6/3D300E/8yozdExfS5u5nU+qTvA8/E1Wjyq2xeOYFXnKHdmrG/aXl35GPb7vl8XNezP2m/nutJSxoEEGhDAfELPuHpf73//FJcGvv/Eb9Xjms4Hw9JvZXuLs68f6b39dHJTzP5CqETQ53SC+taA+Yxv0fOxzC33NMTdu103PzW3XIJyk3L5LSjqVY9GigIx/0LF7x6kz35kSeqHqYrysLYkrOeTsSks2iLEkgvtpcnP5Q7bQmOWUOe0qyjrtnvuqQngpBa8jOumULR8P12Jvq23b2mbceS5bc3Iu+V33wjF5dm9W18Z8Z5SR7bsWRx40+ynsHZiyH1WrElyW5Hx5UOc4e9c89pu6GSptANMxf5oGLQUEnbpHvbdybU/UwQFv9FOvG9SSsiWwQQQKD1ArtZ426/OIQn5pb0SwwJGzOXJvQriRmKkYv/2qddxUsYHE6Ezhpm6k/b+4tDL2YnPsmtjNujnujXuyu7zf9iwqscbRUzuOXzXNGao+JL/bY+7bmqHQ8+4k28UGg06knEJ2IgLxzt742cn7gutVIcZ73y4TVncEi60Fz25oz77d7+yOTizdKgnv1PtbbEg63N2m1mcVXiLZPRqlyIiQiCma0dM9v5+cyV8/b3wtLvBbHsO24bX5wvL29iE33HSqUJd+ORdXVzjA36bdKk6v+5ZMx+5oNooSI9VttRm3TTT6qoloGZ+1u19XTIvDbd8/m4rm//IZxXnxOpEGi9QH5rS1upxXJMe2p8zGc+lAN5K/JoID12/3PX7r0675MPR2/2eROvXls4Kx9pzC+HPxjo/cXQ9Bfql6Uxl8Lz9YWoFpJzftNdx7epIPTY7UfVDNL/obWx1AmVHvI5bS2CdiRTSWodjsROa8Ge7dT4pWhpa66oJeePXXRpqZUM1Hv9YI718WjwpDpRf7A+PadGlLaT/oXq18TQF9r5JJ+T+4XJM/qtGoL8suvvrOnl0fGsfFC3x+F/bm3rJw8fvvbw3t9embVpG2Q7NfFhqgyEeIz3+7N6eC73hWuitPdcyU+yhbK9LwUhn0xMKCexOp8Ku3b4F7ph3pnx7f7ysrktfSsfPlb2TVimjsqko84xva9BNqEUVZlzYO+pOAIIHGCBPXxxCILjQkz94hYF70dcOw4F5Yx9uq2zC+U7bbX9F4dYuw69rU8PJaLSyHRy+R1n5668tHXvp1Lb4OFP7239YDUxGhwpe4KrnF6663NFni2E51JLvtJjutvp6cLJGVb/hahLbu5Ky+r/9zMROZA3eTMrTevzL7x8b83nkzvNbfYPJjb8C/5HpDnZ22FPtLf3zell/VtenPyo3SbeS7f0hn6KgPSy8v/dnB74G/yGvB4lrTmtHZPb+dbc9OjHKbn1JjjOLqwF74mNt4c/3rwy7NRab0Lq01DZFotZTXSFp+Q++8ncohI/PRwIPFV9R5EWTb875F6XN7H46hFxo957+NOtzR9tSreph2KNVp8JDFaP65myv4lr745b2+35Iisf1yJCXTfCeXUxkQiB1gts/Oui9k0ljP1X+chiaSEs9mOWnPz9Zzsxu/TDa/NP2S3CRkb5ohYTH7GP+da2Ls5K3fTEl4JjVL8eq/Sy9D/7f5a1NTqc/01r0pSmKnndr5+NWOhzV5Kk9GXhxATHo4amj5TM6noxGdAPz3457jIGYopaco6Qb35nEEfK4058Qum01eOcPV/WzR50Tykrzl/3TZaGk6Q8av9vpxIalmB1OR+tvUQXpchlcjmpOtappVfX5p9yWOVNZnnMGXy5sPkqXiHkVDA56pQWl/5zkffHk3p4VxCMP8kspxZSF5QNJSUt+l8PTVyXY9NHAqFnyu2rhm6YmdXx0l8FRXlVfnEztaiX7aSr7M5UeWGb85QcTBdTbKeWrokP3BBAAIEDK7C3Lw4xOGIYkUM8FDT+mfwVoHAa+3Qf9i74jcOlKSnk+w744pDL2XF3xuZZz+DUX2+t+QLO01aL8iuzx2K1DbqenY09oX0nVqhg0Tmq4jHdWNh4lNh4coZjaGn+yXJBnyN2+2G5fdJjcw0vbb06P3bCImQzGW2NlhNj869sLQ271KucWUcH5QaMOv9R+4D6LJMpd4KIOtP48NWmVkjHgH4MT0lgQmvH5HZ+TnwXimVTt9GYo082tNic7iuFsVAeROJXxUQ7b2Y00XfmKk3JzF1Vz9VwPBl0KruNNL3Cv+HQvvX0wtYr82Mn5YroyS22wb8KKp0b9Gk7n5iwv+3MtEOnPNpue74g8HFd975U8x1Td05tk5CCINANAtvL4ata8+NwwD9Uvk6W4fDcicHg81ubLwdHrEVp9OCadSCY+NHmwtlBV7lOTMZlVrMp7eXgYLkB6bS5xkdbv3ycU5r09aYe4JJefhU9/zN5UOFIpGi6UDgxwX5sR7CmZ2TOV+i9lV7xhLWrTBhbcoPDC1PlS5hPLviV022Kx1OTSlT4Pzs9d1bx2uXJmNmPwnE5kCrmOTKgHPgVnx6kmxjL84dGSo6N94wEz2nt9cpXCLGdX0jo3TDvR33van0kjT/JjngXLo4pG2kH60Y4oY6f6PpuaKTC95ihG2Zq/N2KA/HsyLwwYfmTkPYmtAQGXYUZ9T2z/99OrYGZXf4/xW+C+nIgFQIIINBVAnv44hCKTvfLRS9PaIeCjH26rd7nImMlX0yqYGd8caiF7aiH7EeT+nh2rmdSocIguQ1Xo+gc1dykRz+ma4jgCNbZCr0vxdVZXO45lzWY+OFmwj1iVZoHDwQ59KtF6HqsI+7E5g8W/FaXfhEtcUnp9mi/XVlEEDb+v6Jv7eyV84fkNu3oh0XThdt6rNBuPy7lYfzfc2tHMLedL5VNjOVdLLONRr4zrbXehKV/10KU0gKG/7020Q1ZGZ9ejYSVgb97xqaf2fG7wJhSep6P/4PaAhQOe2NiQ1HZZNKshv/3vL81vMY2XaDt9nw+rhvYU/bwDmhgLSRFAIHGBDIJdYx/cTFHtUNVNv/Lq7NPWsVk2i2nnh5oHPm1xzbmW02ct2lpyj5uFA5FGoe0K5vWMNFh1RoA+ax+drA4P5uOq9HB27EF40HOwokJFrtVC3eIC+i3U8HYkDZ8yXZ6ckEe48PYkjtRefBj/WDOzvHU9PylJxbX8xGX8vm3i5Mx7ywGP1UrJzYmpr9THVZaX7f9H/Emdsby5Erav6FtOyGzWtzolecrd1aXJ6aPkpNb9/lXxMPpxp9kFUcxF5fPfTwxKSYXn1ln58oOnijOkm6FbpjCLX9gRW7PS9Pr+78x4/9CWY0gWEPBc/UtZUx13K69N4Sl2xUax8b0PEcAAQS6WGCvXxxC0el+4qGgS0nxM9rYp9t+LhUbNraICpplvjgKM43P9vuLw1iWznieXfhCaxH1Tc1W+1Kuoz49jqBhRA7pmO4NQSjq/eeK+YMOpf1WNr/j/sQrsy7jXqCNXXPP2DB+bGz+lYS/NADncGiHqDfvFjVpE39U67j8xwVj0yZ/Z1MtxeHC4DPqFOlhT60dKQPBxHa+mJ/Ve6FMLE+cIZx0FFpvt7VDmdKM4v+9NNGLc9JeZSP/GFHaZ5azAe+OsVO0ZNrjV7Godpjf/sR0+dN0tLS1H/e+v9VeR0ekaK89n4/rhnaaKh+HDeVDYgQQME0gt+IbVU4XFbO0hhYqnW8ozi1z29xQTg+8X/kSYmWWEidpcUDx6SP2mkfHxFTKrRC++XrNELHIp66pTR9BWI6lDY0fw4kJO49kKnk63KnYCeWpIOQmfYnIxCXtWJz4e6DC4MfSAmdD1157KA0FMhWr8R3f500oo7q89nDNXX91xWZlJhz1xNVGocX7bKTGiqRiddu/93z5KwZK9XxsQI9hSS8r/fe5YhfVU57FbRz/MBB536NfzbbiKOZybtanE9ImFjf0KxXOqJKTSXf6/vDavdiwRZpS5/+dpC82rbVnHaHv11pR2WxtDp0inzf+MCibmomdIEAZEUBgtwImfHEIVteLqSmt813uui/w4Yzno6RaIuts4nk9IqFO0x+snfLFoZe4U57cTSW1Q7a2Mx79W2/3xT8VTD3jUhcXj+m+OxP5jVPr/SdGo2JebQdQ09R8yG0obdBcXokaVVnA7tDigJmvDE3au6nFL7Wlig9Rb/6nlqzPXv7Q7h5aO9oqSx533c4XhFPRSvFuQbAPaKHMkvWVvNx9E70kI+Xltbmwuv/Yg992KpRrDvsAABAASURBVNOq3OfXFrVfFzbvnzuqpKx3lun7W70rbqt07bXn83Hd0M5BOK8hLhIj0HyBG2HnZe3EwJ7B2e9PVTsIWaU4dze1I4ZVEhlnae0DcVpPI4GPQvgmk1FaTGIOdxdjhlGEiw5mFk5McDjKt33E5a3eFwrXOEuvTkTUsYorDH4sLtGiWy75q1G1a5ggWE8vRL5lrbFmU2bfDA/IZ3ko53pUuPdpv2lMWWXVTKp8ddS/85wNJfSLFd6PT6xqLbRq59FULZVZM7fFiK07ru5yQuUzu2uu79ixw1qau8WnomuTeUQAAQQOioApXxw9g6GL+ogcufjStDpsv9he8lTttNVsZdO+OOoo6IqvfDMgOqkdhRLiiUNl0/hW6si/oSTXlrQvb8H5f1UMpzaUpfXpWGFEjtz0xB9zyuLWs7Fohd6XSoLq9xv/WbtdbH9UixDlMlqgTsivxgztq6JD1PrINoLVUfHIcJNaOw238wWhWgvNoo51WB1RmmtmEz31u7DqfDw4cUbKvfp/+t8Lu9tQHemr56bMbdL+pmRe9T7pK9+2P6P/0BCuu8u+kQ+9Y9glq66jzpmdtOfXWaUqyVr5cV2lGCbNqvLVatIayGYXAixyYAVuRM/HJtPqoGziQchU8FSjFq7Ya3L3tJodlxrNuFL643pXvs0tZfALQch/tlD0PWM4mFk4McE6pDWaymXd54pe8JeEyhyVBj8ul0ETpuVSvxlyX1eblYJ1dulFV0kJm7DSbs7S4V4oXKxQqWiVUcyVBM2+385E3x7VG1LW04lU+Ssk1lMOm36hGOF+7l49S5AGAQQQQKC6wKnggn4oSE1p8T6XCp5UX+zDg5lfHPtQ/D2tMr+l93nrNV5WYk+ZWl0XY/6S3KyhpRe0S7s1lPlwTOnRX8+pGIUxne9vaa29/OK/FjVpDYeo8znlhBhBcByv1qQ1tbXT8nb+Tm2zmuh345F1dfcZG/RXPMRvKMCW3sXy8LF+08IYpu5vhtI2+HQ/k3fCnm+ST9d9XJv2PjAJmGwQOMACX8Y9sfGU2ifIOnY+E9vDQcjWOR6129UuSNkNre2T+rdFuQBO72nl23k58rsNeYpQODGhypFMOanlydlZ42XCLMHo7gMrco57usstv+s8/4VaC0Eaz3tfOwLsqS7ts7A9+GzQGBJ1jlYaxbwlZd7Oxv9+dDyr7sfWk7HMniK22Q0twC0c7e9vSQ1YCQIIIND1AvbnIkGLoZaPzbWop7xhnYWnJn9xFDKu49n+J9n4D71HoMNx3LzyHHXNPmU89dIafHa3Z6s0UiiL1a7uWXc31L5826mEcrrJY151ZLfbkZg6fNvmphbOG/xGxc558vrbrLUjl2kvd6Y00bOfzC0qPRgOBwJPqfBVS7WRURtoglDp7Oaqy1ecuU/7W8XytHzGQdnzt81t57d8O5VbIeG8cipMQ6D1Ajei56O+RS2W53x6aeFpW4tL0at/Hmyrx8rqK4B98FE1Yfr/J0e7tpOxG/IUqyv03z3K93NmfVGeJ+gnJjgerd70EXIrgUl9sBIxv3w4cDkjPu7HLZf6zdDo1bS66r7AlQoXglATmP5wMrimdLqsdh9zmb7eZme4nQl/GNbbZuLaUp8GknoITHzdypt0vM7hu6kWx2qbX/obr01/U+ymJFtb6hiLgnCk7GVfdpMpyyCwNwGWRqDjBTKXA2FjO+XLycCK+tHd6rqZ/8VRRw207mZKp7PCvX9W7yHmdcsnauxoM8SG68i/kSS9R47pyfNKaEZ/vZcnd5IB/ZpjUj45sbWQMTF/Kc9y/ycGR9XJ6cxN+dlqLC6v13EqNHFKbdJG/0lt0ma+ltMIjgHj4WdlmvG+rVo7xoLt9rkZTfTM3NVlZf32JwLOHuVp9fte6xEtQaH7pDZlL4/7s79pHS1L36fXCmeunNZGiy5J85LZTf6DsOfvy8f1XnbL+pat661TX1akQgCB3QrciJ439MsTY3lXzutNst3m2fByhasaCV9vKO2U+vKw9Wuj527cyUqLfJ5UjrbZT7vsA2P+w9I0IRddlBpGhRMTCv265fmldzcMYwhq89Iro759aLJLsbxCvzwxlveDOWejIzFrVejMxyaVOmcciFBdx/24OxpuRZNdXZ/2IH3HG/rlibG8l/27HLZSy1L4qjBenu0ROufpLjxBAAEEdi8gXS5sRTu6pmaTi192hpXjiOqUljw044ujJQU3cSW2P9GPPWfWjIdg97IOMfgVLYxgq+aUmxz9VbLpUdtH++3qj+ONDXll2ukm9jGHfcThV+N5yiHqu7lNOdInCHZ7tZ6J7dTaUTX39mBKE/1qJKwevh0JfqfOXz22/qNayfXuk9qE3T/u4/62+0KbvWTX7/nd+3GtfmKZvUeQHwII1C1woyiWN3Y+sx+xPLG0drsWlRNyq9r4feL02jeHVf0azt+VTk1YzkTlo+Z27184hB7n2Bm18SMfzNRPTLDYq3RX2s7MvGsYQ3B4alD9rMrFPwgsql//tQtmRoriWJ51aolYnhmsYh653wc8hYEIp2ZPW8WJ0i036Um0thtmyXf8yVhm77E8sSZfbayJ9/Jt6E/V94j8ijsEEEAAgV0J3FkMfFC4XNjUsFf95pAvgdrSQ0FN+uLYlcp+LmQ5pjTyxDJk/1M+pis+K3PLpb/cKDO53KRMwmMYwXZ2St3GQu66J/B7OcZWbimTpunHtvNb0om0y4vX5CZtn9d3RhCeKD5E/dWmWqXDdrseZtpRjjZq7ewo224mmNNEz8f/EJFlBcvpaX+1YGhRGY9ZCrvb5ldFs4pe3FlOqR0niyaXfbGv+1vZEu3LRHP2fGPR22jP7+qPa/UnspGe5wgg0DqBG+HRd8b18fK8FzZaf46tXlnDOL6p1Wv65NpP7N/QrmUmdetbjinj2vbJTR9BcP65djDzi2hGyOgnJlQ+kikdxpzWGmzWx5Mxdyg2pK3iQdwTbVnvrVwy5ij0y7OG1v42NEK/vNp7RB0pboSdH8SVlpwY8533hYKemFc7hyKz2sJumOJR2chAYby80wsbez3HVq1+9v8sa79sbIM2vQGqzuUBAQQQQKAxAfHjOuqJa4MYOEeTIXckVjgUNN2K3ltKicWSNOeLQ8m+k+4L5+gJqexqpZJnEk7PDfU7vyRNyUup9+WqdkjvSCD5YjD0/VntmG4+/kGzu2HaHVr0MP0fG8Lnsai8v9nP+hxiQQ2HqCP/KyPczqgF7bPrfRTFVEW39mntFBVr1y9MaqLfjISkU3bEYtiD323gCif249rJ0EIqVemnivj2jPqSasdJcRXVbvu9v1UrW2vnde+eL+4PXf1xTTivte8U1oaAUUCK5U0uK983PTa/eyP2La0RYUzWqucOu1MLOWQX/1U94ljXyh8bkFo5YtKvM5n1xILc9LGd8agT9YOZdxaTN/L3lPoKDkeFtk/uY1/h6rF9U6mLI2LGRRcFy02O/jpZV6tQXHL3NymW517XAjKPzq79cMqhxZt2nytLigLb6elLeu9LwfXMgnRgtuhCafKZU2pTT1ygaTf5O35SO8BrO5vYeGnMas4XYz51LaWW+7DHfVZ9ygMCCOxdgBwOpkD6PbfeaUs4EVs4LzYjrK6LMb/21Zy77nZebqT1sjvHJn5x7K5A+7rUo06X3nS9nkypbbyiIkkRk9Lzo4sSFF7cifsua70vBfvUxbkR8Rv5VHBhWDumu52ejI0npX5zhYXMfWZ/VG29ZnKZ9L8tyK1Nm/fP1Yn6IeqN68nM/Xvqqitd2619WjtqQff6YFYTPfWP02ok9Hhw4kwDpbL9mUvdEoIQ/yftqHBRBlLAsfBBUTRrx4s22N92lGnfJnTnnn8APq7Fz8h922lYMQIHWuBGeOgdPZZnDzyfmR/WG0T7BKOPcycImetJLY5VR2GO2+1Kqu3N5B+i8oI2/19obS/DwczoRwvqgDfWIf37WFlUvRcPY36UVJ/3DM5eDA2qn1L2oD/mUp8LuXWfv7mD6OWS79j1WJ7VNr8W4Dq26mbZ84PY0nLOaGdMW08nYk+re77lyfnUOXVXEsQm+4KZ3TDLFFv8jn9rQI/l2R+/kvG51KKUSd3gpLuLC/I7QVrspEuKSUvP+EcAAQQQ2I1AbsXnvKqF6o54Ey9op9kedc1fnNK+OYT0iqe5g+g19YtjNzD7vozddVrjfxCZ2DFWRvZjjz2hR+iqlla0NXSqGhxOhLQjYfYLqdgJbdn7Ud+lpHYKhzbRvMfCyM53k1HlmO5Rv0crifF821BGbdIazm4xlqNtWjvGQu3luVlN9LvxyLocJhWEsUG/GJVvoFAnXWP6WTI3Q6Vv9u1sPGov9Amonm977G/Vy9jKuV2454ubuHnt/FZum6rr0n4cV03ETAQOpkATay3H8vTx6eynp5x3U4ufLla9pTLNPBopVbYQdxOE2+G5Sp3YpaTF/0ftduV6F0Iysi7HMIxNH8Fwvu2NuHo4ruyRzO3liVih09bgUCx4yrCiPm/sOa/Wf1DuvdWsca/lWJ4+rNthZ+AvjmV+X33rLC7+Ua64obw8LSuQveIptLSOeGOeogja4POJkB5RyzVz3GvlO17/QdDnn/q/c6ka78HFVH3nCokVz3+2sKh2UrAEBl3iFG4IIIAAArsUuB31FDptWb3PRlz6T3oxx7OhhH6IUDwUFPMltSNG4kwzb03+4jCzqC3My3E+pB9tzawOjF5KZuRYTf7LVPjt/v4ri9I3rXiAdjSgNeHKF2750mihU5V1NnbBYUhn9b6w4FWbmoLUDXNH3NCQeE9PLVa7Ws5sJCI3vG1nPdoBakEoNJUz8Rtqk3bwG/adq2yX1s7Oku1uinlN9Ownc2oD6XAg8JSKXXehHJPf1ttUmel3RidXM9Illbfz2c/D7jf6fTel3U044vXaamTZJvtbjVK2cLaly/b8XX9ct9DclFURzjOFkUwQaExg45+jeixPXHLj2rjnA0+t20RSOyVQXKRJN+e3g1qTZCP8O+1Uwdors9n1hrUcwihq+oiL6+fbynPFCY5HtfWIL9SbeBjTFbmvvhCsswtuY0tOmm79VmRBHyVHbLJfmjYySinM+V+K6bE8McMHqZkPa24dj2e54pAxYh7cVIEbYdeSvl9Z/ReiRT/JxEQ9jqnCKDlSk933sdwyE2eZe7uVjBozvhMdr/0e9Ez8s3SxlzoKko2mF9Vkh/1jT6hPeUAAAQQQaFhA/FUWG09p7Qfr2Vh0x9kMRSNy3I+7f11fd7BGi9LcL45GS9M26fu80VGnXprlNffA64cO/exQ7y/PT96Sj3T22PwXUkGHdiaHntTwJLfic32hfSuLsT/PjlMi+sYiz3n1433pFff0umF5E58et6utT3WXM5xuIq9FP99WUBM4Bh6TZxjv2qe1YyzV7p+b2ETPzF1dVgpifyLgbDwUYX06Oq+Dby+H3x/o/fmhQz/v7V+YTMpxZKFnZNZIA6/mAAAQAElEQVQXdqpbR1lV6X0b7W+lRdu/11225x+Yj+vG30P7t4+xZgQQaLrAmYmgdnmp/PpM9HadKyyMnyovYPH8t8KBTGlK4WCm9Er8L/ToFl/It6LDmD3OeZ8eWJRnq3dFo+QId2acv2riCRfqOnkwS6D40K718eT8k+WOyhpHyRGE5EfNHvfarOoZ8vk8NK29d0a+Nb2L1qohL54igEA3ClCnugWKOtEcCSRfKDdwfo8j6NEvmCAIt3zOpvXeqrvgLU94Mrj22sOH8i023NK1284n1oYrjCpxxDl7sdZ4MkW9LwXnaDJ4skz5rcPR2Fk9oLcxc6k53TBtDjWcpxTh8I7Rb58Y82v9BOUkdrvWcpZfCkLXtXbMbKJfjYTVzrMjwe8USat6tR9sfv/a7KMV0j3iX/jBUvDUvZzeP2Bnwrba33YWT7AHX1HfyA9f0rsilkln8iT2fJNBW5Qd4bwWQbMaBDpEwBb4rnY2xHZqIqEe6KpZ+KJxQw77fTu6IxUOZkp5WezW4jhO0WFM7doIUsod/8Wj5DT1hIsd62bCXgSKD+1qFzkpm2PRKDnb6cnmnTlVdvV7nbgRvhJR+xgcDoSkwdr3mqO6PA8IIIDAARMo6kQjaNdGKItwMph6pvDTN70y6mvuGLtlC3FgJ1oc7qV7LydmTw/atFCX9RFn8JnVzeCV4ON6DK6cz3YmbOh9qV3kpFxKweJ6ITWlnw5yP+6ONmOMXceQobyWs77SOGXJIerDdvtRY2m7rrVzw3hexR6b6Pn4HyJKFzrh5IS/JAxqVKz+/Igj+MN7156bcj1qsyjBjB6r4zH/7Peu3Xt1fuyxqgu33f5WtbQtncme31Jus1amvAPMyo18EECgLgG7e005fNrI/VrZY5U11reL2edCUW284fx13+TndWVRVKOpudKmj5jHubl78hFjucr35krifaeCqz/VjkS99jChXRtBXK7M7WzoWiGrh6s7zskts0hjk1wxQ/5ygQtlq/iylQfQGquOSanrPOxfMZnV9dJWQS8YGqz2/WP1vmww/0ms9JzcvdfJUM5CqWpt9zX3zpPES4uSvTKuj/7j+h8huuaVAvEaAQQOjoDhk7Zaf7HKyazDsa3CJ/M1/doIZQmtTycMn+dbsWFDVKbsAo1ONJTTsCLDt1WhqIWJ9XxxNFqQ9kxvOeEKvrS6OaXWfevVK7N/NWjTrjssFPRihbCrWJMeR6Evkgj4cuGMWnFm6a1nMBRU85c2wSs7zsktXWAXrw19o157eO+vyzRpnS/ck9Yulla8lTZ626y1U29XL0OtSxq0JjbRb0fnbipbxBL4S2/xgX1lev33FvtTocQPN+8pPx9+urX2t/PBIW3cwyrZtN3+VqWsLZ5l2Ae6YM8vfOAYPjHEN2zVWyd+XJf7OdXiPYfVIYBAewlYvRf0M1ZykfcnlqsOP9FeZac0COyvwO2oTx8c0Do7Vz0wvb9FZe0IIIAAAggggIAk0Ir/zCdhddi847PT51qxRtaBQNcLEM7r+k1MBRFoXOBkcGFYG/zufsT1K8ana9yQJQ6ggPEMDnkk79p9+Q6gElVGAIEuEaAaCCCAQN0Cd5OhzzeU1GODfpvyjHsEENibAOG8vfmxNAJdKmC/kEpo15DNXXcfxCGlu3TLUq2mCeSSvxrVTrO1ei+kWnR2fNPq05yMyRUBBBBAAAEEDpxA9pNQ/IFc68OBwFN7O9FWzoY7BBAQBQjniQjcEEBgp4DV9eLSrDbszL4OKb2zbExBoO0EMgmn+7p6AQzb2VjU9DGb2q7GFAgBBBBAAAEEEKhLwPbskjrg4NQcwwrXRUYiBOoQ6NZwXh1VJwkCCFQX6HEE/QmvOoZxLn7ZMf6ZejWq6ssxF4GDJpC5PDqwklZqbT2dyPhcHHdWNLhHAAEEEEAAAQRaIMAqEDiAAoTzDuBGp8oI1C3Q54r55p1KRO+ox3uWGEXddCQ8SAL9dqdyoV6rbX7pRZfWq/UgEVBXBBBAoAMFKDICCCCAAAKdK0A4r3O3HSVHoCUCp/xXfPOu44ErP5hz9rVkjawEgU4TsD4eSj0fGDkxv/Sy38H3aqdtvkbLS3oEEEAAAQQQQAABBPZdgJ8d+74JKAACbS9wyp8IEMvb02Zi4a4XsJ6bI5bX9VuZCiKAAAIIIIBA2wvYg688VIfqe8nV9qWlgAjsXoBw3u7tmr0k+SOAAAIIIIAAAggggAACCCCAQPcLUEMEGhQgnNcgGMkRQAABBBBAAAEEEEAAgXYQoAwIIIAAAgdVgHDeQd3y1BsBBBBAAAEEDqYAtUYAAQQQQAABBBDocAHCeR2+ASk+Aggg0BoB1oIAAggggAACCCCAAAIIINAeAoTz2mM7dGspqBcCCCCAAAIIIIAAAggggAACCHS/ADVsqQDhvJZyszIEEEAAAQQQQAABBBBAAAFNgEcEEEAAgd0IEM7bjRrLIIAAAggggAACCOyfAGtGAAEEEEAAAQQOtADhvAO9+ak8AgggcJAEqCsCCCCAAAIIIIAAAggg0A0ChPO6YStSh2YKkDcCCCCAAAIIIIAAAggggAACCHS/QAfVkHBeB20siooAAggggAACCCCAAAIIINBeApQGAQQQaL0A4bzWm7NGBBBAAAEEEEAAgYMuQP0RQAABBBBAAIFdCxDO2zUdCyKAAAIIINBqAdaHAAIIIIAAAggggAACCBDOYx9AoPsFqCECCCCAAAIIIIAAAggggAACCHSNQMVwXtfUkIoggAACCCCAAAIIIIAAAggggEBFAWYggECnCRDO67QtRnkRQAABBBBAAAEEEGgHAcqAAAIIIIAAAvskQDhvn+BZLQIIIIAAAgdTgFojgAACCCCAAAIIIIDA3gQI5+3Nj6URQKA1AqwFAQQQQAABBBBAAAEEEEAAAQRkga4O58k15A4BBBBAAAEEEEAAAQQQQAABBLpagMohcLAECOcdrO1NbRFAAAEEEEAAAQQQQEAT4BEBBBBAAIGOFCCc15GbjUIjgAACCCCAwP4JsGYEEEAAAQQQQAABBPZTgHDefuqzbgQQOEgC1BUBBBBAAAEEEEAAAQQQQAABEwQI5+mISd/PDh1Sbu8k9amlT7Yz4Te1ZD87NJTIlCbY+fr+xmJsQM35Z4d8KztTVJnCLAQQQAABBBBAAIGyAhuFVtmb4Y2ySaSJueQ7x/SW2LF3kjlpYvn//M1kOHZ+4A1D+jeG3O9G07fz5RdgKgIIIIAAAuYJkBMC9QsQzqvfSkyZS/5qdFJrA1pPJ1Juhzi14m07t5zw9L9+xrNeR9SvYi7MQAABBBBAAAEEENilQCbhdF/XW2+zSy+6rOVyyt9aHP+7Q71R9+R6KnNXSy8Iubvp5NXxoUjvQGwxu11uSaYhsN8CrB8BBBBA4AAKEM5rYKPX2RxUcsythd1vHBtdoeWneHCPAAIIIIAAAm0kcECKklvxja6k1coe8Sb8QUe5xm/2Y4896ol+rSYs+5BZ9zjejmaI6JXVYSICCCCAAAIItFagXIumtSXomLXdmPHU0RyUqpNbDr/df+zSZFI5LaNnZKTsUWApKf8IIIBAJwlQVgQQQKCTBO4sBj6Iqx3tegZnfTFXX5ni55Y8/Ve04689tpGB+dUfbN177eHD1x7ee2Vt4WzhVIxcdtz3QeWTesvkzSQEEEAAAQQQQKApAoTz6mO9k/TFptUzZis3BwXp7Fp3/1ujk7eySr62E7NLry5NH+xwnkLBPQIIIIAAAggg0DqB7Uw46ok/UFZo9V5IBU8pz0vvrU+FZpWmmmUs9oPNpYv+QZvVIqeyWB1jvrWtC17lpTgtvRpO0UFPhOCGAAIIIIBAWQEmtkqAcF4d0lJz0B2/r6Ss1hwUrs/6VpLquCo9trFnrm28HBwpdxxYyYt7BBBAAAEEEEAAgSYIFI13PDi8FBtWInblVtXjCPoT/hNTS4EF72NlEli/FZ49rk1/EIlf1Z7ziAACZgmQDwIIIIBAgwKE82qDLV8qXP6iRnPwzGTohJxhn3/hB5sLf2XXj+XKU7lDAAEEEEAAAQQQMEmgcjbZKx798hfWmtcuE/Ppc82/HKp8CNbmedwpplJuS//O+baKBPcIIIAAAgggsG8ChPNq0OdWfK4v1EFX6mgOWr3fDo4MJLZenR8rd3S3xsqYjQACCCDQbAHyRwCBrhe4EXYtpdRaWmeXXnRV7pinpqr5YPsTW800JEAAAQQQQAABBFomQDivKvWNsPOyNoJync3Bc7NLF11WXKu6dt5MSowAAggggAACHSEgjXc8mVaGt6t8KduOqAqFRAABBBBAAIH9EOiMdRJ2qryd7ibHYzQHK/swBwEEEEAAAQQQaC+BjXBUG++4yrXLGi9zPq+eqyEu2m/pFe+5IYAAAsUCvEIAAQRaKkA4rxJ3LnnJF1Uuf2Fqc7DS+piOAAIIIIAAAgggsBeBTMIzqYbdql67rPF1pP53UlvI4fozE0+81XLlEQEEEEAAAQQQaESAcF5ZrXwm4dRGUDa5OVh2feZPXPEd+tmhRm++FfMLQo4IIIAAAmYLkB8CCJQRyK74RlfSyowa1y5TEtV/fzsavqGlPh7wndSem/yY9DXeeDv0jh5nNLk0ZIcAAggggAAC7SxAOK/c1rnl15uDjqGl2PDeB1AutxamIdBSAVaGAAIIIIBA9wrcCbm08Y4tpxZSbod5Vc0tvj+RUgbjEyzeb/vpm2eeLTkhgAACCCCAwC4Fqofzdplpxy/2IJfT6pC5lsyoDThtEo8IIIAAAggggAACbSWwnctpDbZ8dmHpjmmFyyScnht5JTvLqVhk2KI85x4BBBDoPgFqhAACHSRAOK/cxjo1O6t3yMtN+i5nyiVq72nDsYevPWz0FhtuZqVuhgdqn0Liq3HGiCmZCPWczDIQvlldo30yEZLv1D6xeiCxUaM+bZPJRmKg9nnitc4tap9MBFN2WlMyYc8v9x5on7dP++y0ppSknfb8chuead0n8MjU7Fmt9XY/7ltI6odm91LXnOEEXuGId+HimLaOveRaaVlXrPHG28OXXJWyM2N6Xa2dljSZaO2U2Z7d9nFNa6fMRm6jPd+U/a19Mmmjhgp7/gHY88tV0YRphPPKIjqC/oT3iDorvTLqWzGlTahmyAMCCCCAAAIHXIDqI2C2wLGxF5b0w7G5625nYq+HY3NXJ4a0E3gFLoxm9gYjPwQQQAABBBDYiwDhvAp6fa7Y9wLaAdhc/LKzMARyhSWYjAACzRYgfwQQQAABBCoK9DiCvnmn1rbd4+HY3BfTzvciG8oJvD2DUxdTwVMV18wMBBBAAAEEEECgxQJak6fFq23h6na/qifmloYH1cW305PvzjCInqqxu4eTwbXap5DEapwxYkomQj0ns6wFa1y3rn0yEVwv1T6xes1tr77d2icTu3ut9nnitc4tap9MBFN2WlMyYc8v9x5gz9+pYsrbp532/J1VZEr3Chz3c04+cAAAEABJREFUL1zwFg7HfhBY3NUgelK/vEszaTWWZw88nwo9ruXavXjlakZrp4yKKV8cpnzSmpJJG31c09ops7u1UTvflP2tFZkoPzlr/Vhgzy+7u8UUvWr3rfmZ3G17fjltE6YRzquG6HCnFk5pAx7npkd/Zc44LNVWada8FV/t0cd2jGTnWzFr9eSDAAIIIIAAAgjsg4B1OLY0pF3W9kHcEw03ejhWiuUV+uWJsbzVuXOtieXVM1DdjtFyaw0muw/boBNXSZkRQAABBBDoNAHCedW3mHXs4oI+iJ4p47BUXx9zEUAAAQQQQKAzBChluwo43Av6IHpCbrKhw7HFsbzBqYsti+W1qyblQgABBBBAAIG2FCCcV2uz9LlivtlBzSm94pm5UWsR5iOAAAKVBJiOAAIIINBsgZ6ia5rlrnsCv6/rmma5lXFHoV/eYOjFpYN6jm2ztxD5I4AAAggggMBeBbQw1V7z6erlTwVjQ9ogekJmOuZL7moclt0b7WLJ4Vjt0cd2nBIfG97FmlgEAQQQQAABBBBoM4E+V+RZfRC9fPyD2tc0k2J5l6NZdby8kdmXVqdOayOutKhy9QxUt2O03JrjQ7Wo8KwGAQQQQMAsAfJBoC4Bwnl1MTncqcRpbdiU+3F34+Ow1LUaEiGAAAIIIIAAAgiYISANome8plnVw7G5FZ89ocXyjjjnX1riOrZmbATyaKUA60IAAQQQOFgChPPq3N5W18WY/4iWODfpfi+tvSh6zN9ILX66WHJLGXrzbfyf0rnp20U58AIBBBBAAAEEEGiJQJevpGgQPfFw7K/jZc+5lWN5hVnOx/3HbpW21kqadoufprNdjkf1EEAAAQQQQKCtBQjn1b15jrrmDYPobVx1+lbKtAk3/3nC84Gn5BY2BOyWPy+dO3u97jKQEAEEENh/AUqAAAIIdIqAPehP6Nc0E275nInMzqIv/UshlifOTV31lTTkyr2cXRWTckMAAQQQQAABBPZJgHBeI/CngslRp7ZALn659jgsWmIeEUAAAQQQQAABBFou0OeKfS+gDZgipFdGyx6ObXmxWCECCCCAAALdLEDdWiBAOK8xZNv5hcIgetvpyUvTaWXI5MayITUCCCCAAAIIIIBASwSemFvSB9ETxMOxvrhhFJSWlICVIIBAXQIkQgABBBCoX4Bwnm5luJpYtWuEWV0vbRUuGhsMDRYT2t1rhbk7Lh1bdhbXk9W3AU8QQAABBBBAAIG6BezBVx6qjatXgvbKizncq2oysW3204S3ryip66WHhbligrpuMVdRHrxAAAEEEEAAAQRaKlAci2rpqlkZAggggAAC+yPAWhFAAAEEEEAAAQQQQACBzhUgnNe5246St1qA9SGAAAIIIIAAAggggAACCCCAQPcLtH0NCee1/SaigAgggAACCCCAAAIIIIAAAu0vQAkRQACBVgkQzmuVNOtBAAEEEEAAAQQQQGCnAFMQQAABBBBAAIEGBQjnNQhGcgQQQAABBNpBgDIggAACCCCAAAIIIIDAQRUgnHdQtzz1PpgC1BoBBBBAAAEEEEAAAQQQQAABBDpcoI5wXofXkOIjgAACCCCAAAIIIIAAAggggEAdAiRBAIHOECCc1xnbiVIigAACCCCAAAIIINCuApQLAQQQQAABBFoqQDivpdysDAEEEEAAAQQ0AR4RQAABBBBAAAEEEEBgNwKE83ajxjIIILB/AqwZAQQQQAABBBBAAAEEEEAAgQMtcEDCeQd6G1N5BBBAAAEEEEAAAQQQQAABBA6IANVE4CAIEM47CFuZOiKAAAIIIIAAAggggEA1AeYhgAACCCDQQQKE8zpoY1FUBBBAAAEEEGgvAUqDAAIIIIAAAggggEDrBQjntd6cNSKAwEEXoP4IIIAAAggggAACCCCAAAII7FqAcN6u6Vq9IOtDAAEEEEAAAQQQQAABBBBAAIHuF6CGCNQSIJxXS4j5CCCAAAIIIIAAAggggED7C1BCBBBAAIEDI0A478BsaiqKAAIIIIAAAgjsFGAKAggggAACCCCAQKcJEM7rtC1GeRFAAIF2EKAMCCCAAAIIIIAAAggggAAC+yRAOG+f4A/maqk1AggggAACCCCAAAIIIIAAAgh0vwA1bK4A4bzm+pI7AggggAACCCCAAAIIIIBAfQKkQgABBBCoS4BwXl1MJEIAAQQQQAABBBBoVwHKhQACCCCAAAIIHCwBwnkHa3tTWwQQQAABTYBHBBBAAAEEEEAAAQQQQKAjBQjndeRmo9D7J8CaEUAAAQQQQAABBBBAAAEEEECg+wXauYaE89p561A2BBBAAAEEEEAAAQQQQACBThKgrAgggEALBAjntQCZVSCAAAIIIIAAAgggUE2AeQgggAACCCCAQP0ChPPqtyIlAggggAAC7SVAaRBAAAEEEEAAAQQQQOAAChDOO4AbnSofdAHqjwACCCCAAAIIIIAAAggggAACnStQbzivc2tIybtEYMV36GeH5NtA+GaX1IlqdJTARvhNZQ/0Jessd8fttFcnetV32Wjkdp2VJBkCCCCAAAJNFdC/fw8deqfeb+CmFojMD5yA1qIbSGzUVfeb4QG1QXXIt1LXEvucaDs1MaO0cg+NfphVC8MDAgi0vQDhvLbfRBQQAQTaSuCovb+tymNaYfLxP0TySm4nJ/zHlWfcI4AAAgggULcACRHoagH7n3RnGzD/aSTyQN5yPWMT37HJz7hDAIEOECCc1wEbiSK2vYDhuPHb8VyDxc3fTkffdQ+90d/7c/WwWO/rA+dj4eRNNbTSYH4kb5KA3f6InPORY1b5sdvubkfn1H6vlsBfei3dVj3qs0uB/Gfjx9QuBmem1xvOJH8zGY6dH3jjmNy3WvqIO/bGkPvdaPq24fOt4VxZAAEEEGgXgY3LQ+rn28/d8TsNlmo7n1kNj/9yoP8X0sejlM/Pj/W/5Z7+bTp7v8GsSN5UgccGHHL+VktXto+y0fSiXD/BcjbgPao85R4BfuF2wD5AOK8DNhJFbHOB3McTk3oM71Zg8rO6f6bmlsNv9/dGhsavJtN3s/lttaL5fCa1PumO9va/HV5utGmo5tHtD82v38ZltzuxnNM2irhCi/J5ecTaK75Qb/nMh+6hS8vqq05+yHwSVqvRFwyc6+SaUHYTBbbToStR7eNtYyYRru8sI6kE+VuL4393qDfqnlxPZe5qeQhC7m46eXV8KNI7EFvMGt5f0jL8I4AAAp0lcCc+sZJWi7ydDLyXrLsJmN/4dHxgpnfg/cnol5lC8G47l/0qOfPRUP/rA+O/55xHlbbVD3eT45HxxVuGjdljkctgOaY8yi+EXHLyTXe0CwYnuTYXVmthD37bqVSOewT4hdsR+0BPR5TSnEKSCwLNENhenv5HeSQX9c2Ui16eXK7jN2rui+nRt0Ynb1Vrq2VvTY7+z4kUEb1mbLjqed6Ojq8kkyujx94stOeOKYdkj/arJyGIzbi/6x1YSqbX/B0/nuN2KvK5GqgZG5lWDkFXF2LuQRDIfjQ5o3z+KJ9vucnxK9U+snST7Mcee9QT/VqfUOZJZt3jeDuaqePTsszCTEIAAQTaQGA5EUgqH2Lyh2Ru3Tf5eR3F2s7G/95+5oOqH4Dbmehlx/krmTqyI4nJAsvv+6K3xe8we+Gw7lGrfJKt3a6eoCEdze1/yx3OJScS9cdwTS6nWdmlfqcdqzsZmj5jVq5tkg/F2K0Av3B3K9fi5eQvnxavk9Uh0EUC6fd8EfmECOfolVnlO/5+xJ+o1fz647Tj0owe9XOcnk28tHXvpw8fvvbwXvDalWGXTX9r3ol4GjjY20Wy+1qV7I30plKArwvtOVufXZkmCPmN33qkZpwarcjE/lfacAxXS9U5j9kr0xFlzJTDgcBTxkPPnVMHSmq6wJ24fykl5XokkLjgVz7eUp8GF5UAnzSj/H9uydN/Ret512MbGZhf/cHWvdfkz7dX1hbOFsLFuey47wM1jlw+L6YigAACrRaoe33r074v5K7Hj81fGR6UF8tFrszUOkqRi/99v++GdmjEMhJ8ZvVa8J7YAnz403tbLy34lZE9pOxyqSVfxx8vlCrSWf/p1dtyQ2g7Wzis+6h2KFesSm55+i3paK7SwTyfjS5+KU7t2NvtyPQflTYsY6107EZsQsH5hdsE1KZkqccMmpI7mSLQ5QK3o5NKn6a+qdlnnEH3lBLvyXxWq/n1zcnoKfnXcc/I1F9vrb0UdJ22KudyWvrsTndi86WQ/pM3tx7qhp78HbUr2Ibm1qa2lka9DvEzUmvPKcMiOiybYjPuzEdytKLHMnh2fvWVh6vPD8pNv46qZKGwmbmr6om29icCTrHKhVk8O7gCeq8T13dDruHZyAmZ4kHc/15SafjLr8vcWZ8Kqcc2LGOxH2wuXfQP2qzKG8RidYz51rYueJWX4sLp1XBK6dsivujgG0VHAIGDJpCNfjgjH46wTz3rdz4XneqTBXLTtY5SWL3Pzg7KX7W2U7HNHy3N/tWgvU/+UOyxWE+Pzb+6tXBKfinmt52e/kf5sIr4nFuLBAYDgc17Ly8Ej9ukFaqHdVNy4NYhXBOP5o7OfCXNEY6OTX3v2r0fL3gfk1925h1jrXTmdmtyqfmF22RgE7OXv0xMzI+sEDhAArnF9yfkH6IW7/+YllpmZ6fnzspBuu305GUl+FOJw+p6cWn2hPhbdyn0uLxIScJTU3Pf1BpzwnL0D3KLsSQNL5sq0GMdeTZWCOp9HZ1elzpdZr4Yl5pxUiBvYe1H91Z9/sFyG7COorVNkquRsNrfaiT4HT2M3DbFoyD7InBjxq/0OrHOzj0t7uJW7wX192dufSJU/ZoYPY6gP+E/MbUUKP8jx/qt8OxxrVYPIvGr2nMeEUAAgQ4RyP0+OCH3ybKcnps+Kwg9g9Pn1V7M6ZWJGtfEOBVMXfC7zi1l/sZrK/NTzDr2vdkRzSG/HpeHdNFe89gSAcuJsVk9qCcd1g3LW2FxUjmae3Rs1rN570cLoSG73lhvSbnMXolhrJWRcxM0Ac327dD8+IXbSRuuzHdIJxX/wJWVChcJ5K5FJ3850D+jXg7s2BtDvkRy435RGv1FbsV37GdqykM/G5i5oc/Z+SQXf1tPeejYO0n5iNyOZJ9P+2/InVQemwsPK9/mFtfzEZfyrrrlD/y+/HJqRuIv3pfL/9ZVEjj/wq9kKr5MfykFksQnLbqt+KTLq0lcA+GbzV/nzfCAtC7J3LdS9+rWp/u1pcY/k5fazoTflDJRCt/794vVNsD69Blt8UM/HwpX2h/UoN7mvNI1SV6PYA2tSoG8MYe+hZTpddznGtlpM4khpS7S/Yyv2kmO4gH8cKHuQzVP9y4UNR//Q0TejwXh5IRfD7IUEpR/lr+ZDF9yD73R3/tzbb0z/f1vuac/XFz8bXjynfMDvxgt2XnMfw+WL9oeprLnq3jZaGJa/tCxBs4HlU7Hwslg9Anl6cZMotbZZIV/8KAAABAASURBVH2u+ZdDI0pfFTVP44PN87hTf7307xyu0DF4ggAC9Qnc30gmfENvHJO+H8Vv85n+gV9ORq9V+Nq/k/Tpl4792aGB9+WPtwrryX3sVvMUs/2FL6ke7ipOvb08fSUufXX2OOfcLqUtYHlS68W8nfRfqtoCEQTr8Hzi+yPioZLifLVXxz1+vcPX9lKmBS0xbc2CYLiW5TvJwuRmPdvd6tLTb2htj5hayGa0MdSg3l9r34MSgtX7rBTICz5hs0gvG/jP30qG3xnSr2Lc+/rA+UvRdIV9VjB9py1X0vynEXWslZ6xie/IvRHLJSuddj+b/u20T/wJZnhbHXtj4HwsHP90MfLuuPut/l5tu6jLNqOJrmZt1sPudsVdr72B1RnW0ZI9v4t/4Roou+apEnjomupQkQMjcD8Tebv/2K/Gw19mssqYX/IFE+Mr7jPh89FyoRnrcCxZ6AeXmb40na5whlfuY5/vlibZN5V60VWuvbURvhKRv4KlkywKX4B93jl1/JR8/Mq0Pjqell0jj1a78tO5kWU6M+1Jx6BW8Ox/aqPJaFMqPuY2tKQOhxKEEiOkvnn9XNH8DY/vY3kT7cxCDH69p5wjI81zPZMKnpKelPnfzmc+nRx9o39c3yXERLnpofDQ+G/TxuveipNr3BrfaR3u5LzeoH8Q9/y6YpfP9Hse9ZIFYiFOxFLuuo+w3o7Oqb8TLIG/LJwCKWZT8ZZbDr/dL12xdC2ZvpvN6++jB1npenxLHs9Hk+Hrqcz9Unyz34MVC9gxM9p1z8+vqL1OhBOR0BMFzsHn5vxH5Je56YmPtPefPKHRO9ufFD41G12W9AggcMAFcp9NDrx+xr0ST+tXzX6QzXwZHv/VsTO/UU6KLBbqc8W+F9DbcplV93SlLsZ34r6P1PCQINinLsZc5Q5LbFz2R+5Lq7A/MWs4DFboxZy/4Z+u55oYUh5l/239R8tOr3di56SzO6xaYe9u1v29srlxV13KYXUoz5rRxsjfTkXeGej9jXalCGlNufiH/fbodPKWFM6VJtTzv51LXhrofds9eT2dlfcccaF8PpNaGx9668zE1dL2kjhXMHunlfIs/c9G04vKNMvZgLeuXS6/8en4wOv9Qx/NxMWfYFpdxExydzOp9UnfB56Jq9HkV9m89utMnCXdehxB05voUr6d+9+2ez6/cDtspyKc12EbjOJKAndSE28NTNyq8KV/PzUemygbRxu5uKSO6CTmcmfGeUkdL0x8VbgZW3I9g7MXQ9JZtIXZ6rPslfFJ+cvXopxkoU6WHuz6+Cn3I7730tIk/msI2AceUVNs3t1Sn9V62PgP/ej6oOOklvq4f+GCV28ZJj/ylB120Bj8sp5OxKRzCbUc9EcpkDc+9IvegQ/Cy2KbzeLyn5ACEPYzIWmY6gfp6EdDx2YGfB+m9JaZvmiZJ7vcaW3+FxNeJYAiZnrL5yl7XdH1ac9VrX/TEW/ihYKAuFD1W8NjptwIl1yR2WKx2Y6KN1292gpNfA9WW03HzGvPPX958kO514ngmDW8myTUo67Z77qkJ4KQWvLXOJtMScd95whQUgQ6QSCfuXLe/l640uUmNr44X/6L8om5JfVoq1jLjZlLZRuKufivfUntGNXgcCJ0Vky843Y7Or4qt0AOe+ee0w9HyskKvZhzkQ8qHjaWk3KnCtgfVeNxQj5bbxMwm5E3gJTD4DcKx75NbGOIgbxwtL83cn7iurQqx1nviLQ2Z3BIulpd9uaM++3e/sjk4k2xgSjNqPa/nYm+bXevSfmUSba9EXmvfGNVMHGnLbNiQbg2F76tzLAHv+1UnlW9zyVj9jMfRAvvvh6r3AK02Q5XXU6ZaWITXcmww+/bc8/P8gu30/YrwnmdtsUoryBEPzgfUc59sLhmPZvyBWHla4HpR1DvR4Jlox7ioaHvz+rhudwXronSY6clLbmF8p227iaDn6akTWE4yUJ6qfz3FMZP2bjqKznfUElS131+S2/WWCzH6lqkUxPZ7dq2y3ylhaVq1SWXV689K1iHtJagtIx1OBI7rYWWtlPjl6Klcd+i4Jc/dtGlpZYWV/5zn03IgbxoWjq6aHUOL239KDF1QtoKG9uD869sLQ1L7TlhOxNfOt//er/ntzWKvfudts8VebYQnkst+UoDlEU9Da3+C1GXhqnUpdp9o2Om3Im735lcVn7q9Nhcw1c2f/Lw3o83N38k3rYevia+DROzJwsN6zKrNus9WCbrTpzUdnu+iKj3OrE+Hg3qgXJxhnyzPj2nHhTZTvoXalwTQ16i/F0+Lx8PkWf2W3rlR+4QQACBGgLW3PToxynl48NxdmEtKF8Q9sebV4ad+ld56tNQSvmeKs7McSGmfnyJ0+9HXDuO6eaMJ2dYZxfK93PPJxPKuMmC86mwa0eHpkIv5jszvss12gZiQSrc8rlCv6d+6461VFiqIyfbj2nNhq/X6vW6s6U1AR1D0pFWreKmtDHuZyJyIG/yptx+7PMvvHxvzeeTS7nZP5jY8KtXH87eDnuivb1vTi8XNpZWksKjNb08Op6V99keh/+5ta2fPHz42sN7f3tl1qbts9upiQ9ThSUMz0zaaQ05Gp6mfqf1OjwenDhjmFHhafrdIfd6Vp35iKhw7+FPt+QW4Obm1MOHP95cfSYwWDWuZ0oTXS1A5z+03Z4vkt7lF66o0GE3wnkdtsG6oLh7rkImI38nWk/GNn+UkIaukPZii/X02PxLhRMtl9di5dsEp4LJUadWhlzk/fGk1l1fnGhsyVlOLaQuyN/d4oziW/qDibgU5RGs3wwZTrIoJLI8qY2fImQm398RTiokrPZs418Xte9MYey/jlRL2vHzLPZHtBFIcpnyG25HHTe/1ngeKTkr2ep6MRnQe7R9Oe4ytqe309OF02wdId/8zra4uCrrcbt6moDYXnl584p7xNojZHIZcZZ067GOuAvtOWH72OiZ8ruKlFj639NOW3T+iBigjGnNLylnwdjT0DG0NP+kJinPrX6X18dMOeydrj1miiHY3TMYenEj4XbadGdpTeLb0BX8f2rtq2a8B6W1dcN/2+35wp34hNLrpMc5e77sprQH3VPK7p6/7pssPSJS71ZJ/W/9dDaH689s9S5GOgQQONgCuVxGagP2DE799daab8yhXBDWYnO6rxQGVKl0gR0x1uMrNBTFY7rjn+ULnMaTMw57F/zG4dIKqYT10MR1eakjgdAzNsMM7amhF3Nmdbz0CJyWqsbjdiqhtXEEq8v5aI3kHT3bYtWvJpHJ6LWuXqWcPtzKoP1EcdK9tzGO2O2Hpb1M6BEPWy5tvTo/dsIiGPoDWk6MFQ7riiu3jg4WtYXEScabuMvKuVmnll5dm3/KYZUTWx5zBl8uNFYrXvDElJ3WWBz9+d14ZF3ekwWL99t+mz690hPDsXDr6YWtV+bHThY3OC22wb8K+mocUTahiV6pgB033dJue74gNPEXrmHzHKRfuIZqN+2pFAhpWuZkjECzBKwnY2UuB3bcX+hMl1N+kpYpgO38QkLvvXU/6ntX62BibMkd8S5cHLOWWVoQboZ9V+WIU48r4i77c1dcrDB+ivDluL/SCG5iwkq37eXw1Yw683DAP6Q+7dYH2yNaB7s7ehNNqevyxIw82vGMejBcmSoIGxm5dSS+tFmV2IL4VLv1jMz5Ct0w0ysevY+kMfg1OLwwdUpbpOTxZDA6MOgaXbunNOOUuXIMV9ACjhaxPfeq1E1vcKBMJyZlCeP9XnbaovNHcpMePUBpaF0J1kpdCYylMD4vjJlif2K6bFjTmFq4NjutDSDoGFqYOm0pmtvIi72+BxtZV5unbbM9P59c8CsnmhUPCFWseHZ67qzy6bjbs8luRwsXnzke8J0szp9XCCCAQBUBMZZ3MRUqjIasJh35zrTWkhCW/l1up6lzDA9Fp/vlopcntGO6huNVgtX7XGSsfFRiI5xQB951fTc0UuFXlKEXc2r83YqD3hqKVfo0+1E4rnUwHBlQ+oWVpume18ft2obLbKjnfsqVE4Tl3/TKlyXpnbiqTlEeCsOtHLXbd2yFPbcxLC73nMsaTPxwM+GWjuZKK30gyKGvTEYpYY90WHfzBwt+q0u/FoqUrNK/GMvz77g8VM9I8JxW9e3KFzzZ605bvkzZT+YWlX2sLzitXtCvfEp5aj7+D+qeLxz2xsSfSDvY5WR13O29iV7HSjojSbvt+fzC7Yz9prSUu34vlmbEawRaJ2CdXfobr63czus4rn0vCunKFwKzujwxfTyy3LrPvyJGhowtuYqDHwtCLn55MiNX1TE05y3f2pNni/Eg9SqQQvIfAlp7UZ5Vx10moY6yLKZ1PBl0lqusOKtrbvY/1Tbcg61NpXmh1O3zWFQJoj2ILhb1A8ptaac2DDzSr6Qtuj8VjA1pI9pspycX5HF2jMGvEzWuFzFycTXxrMMQsjKe+aKvSmrPrV6sFNXVkwnCHnfaHkfQcJ64FKC8IQjGnoY9rpg/6GhoP7kamlRapcJI8Duav6HIJU+X/xBWfx71jE0/syOEWpK6xsu9vAdrZN1Zs9trz9d7nRzeMSBUEavhEt67OZsst/i+Hp2vr1NA0dp5gUBlAeZ0v4B4uLRMLE+qt+HiQpnbSktNmlzyX3S6n3hM91JSagIaTrO1n0vFhq0lSykvcx9PKOMmi9/pc2VH3VXSCYVezMItf2BFDgSps+p4uLOojugipj1cT995MV0n32wOrQmS3zKcMSNG82Jq97F89F+KzkUtDLfSZy/XBNxzG+O4P/HKbNFQLHl1AJx7SqNU8X5sbP6VRNnTdJT56v0Rb2JnLE+eZ/+G1lIVMquVeybuZaeV17PjbjsV+r06gPjIuQnNf0cyfcJXsah62TShrgPA+oJln+y5iV42186b2F57Pr9wO28PUkrc0I8/ZRHuEdhfAUfo+xXDFvY/1b8XqxayzxW7qJ4vJkXoPgxE3vfoV7OtOPixlKXV+/LDh69JtzV3jYjG4PevKSkfTsVqd32SMlf/cyu+Ub1zoTW0cKHGitTFOvrBpo9/l97QuoCJFUr/24LWCi5pzG1uaG0++3+xiSl33hzuVEw/BSM36UtEJi5phxbFplUj14uQM9/cVNZ4f0ts+stT6r8zY6c9FUw941JXKQYo352J/MapXc1W/HkTqxZcVhczPuTjf4ioticnajdGhXTihppcsHnG9j6Oz+7fg8ZamPF8f/Noqz3/bOia/OFW+yOrz5v4qfQxKH7E1fwkLAHOJJwebV+ynIpFancKKMmAlwggcIAFTkUrxdoEoXBxoapAVteLqSntcGzuui/w4Yzno6S6iHU28XzFlqT16YT4oSfdXqlwKq6aiyDoH6ev3Ys19Cm3nQlHPcqILoJg8T4baagBqa+/o544hqxqedP/oR43lF6vJxa02Fn+2qJxPMTNwnAr/eWbgKa3MbTTe3N5rS0kFbGuf+/5mEvb30oXeGygdig5+GRuAAAQAElEQVRNWmb3O6209I7/wlgrPWMTtcdaEfJri1o81eb98/qKvGOlxglmN9GNeXfQ87ba8/mF20F7TlFRCecVcfCiIwQsVXbbKrNK6nY2lNCvcXY/PrGqfU/Vc8ZiSVbmvrwRdl7WTs3oGZz9/lRjXa4aKcxGYkA+i+FQ6X0irmWTmYzumPszccqAfvqqlnJvjyfsWvNZO5FByi+9sF44WFnUmCsMYuJwHJeSlvu3el9I6N0w06sTEbVDX4PXiyjJ+u6GNgBzyYxqL03Zaa1PxwrnieemJ/6oxhWtZ2PRCl0JKpbpdnROPdBqCfyl11IxnTbjq9VlJZopCA7bYO302nLVHvfvPcieX227NHOedKxiJa2u4UjlMQ3UFDwggAACxQI9Vb5/LNW+ao3Z9AyGLuojcuTiS9NqqEhsdHkqHjA2ZtC057nkr0bVDoCCYD29EPmWtWnrSvqk5pzYoiu5ndELIFx3l7YPlUXe0aKf5hTObn9EzagwSLEgpP/ZMPZ00SkaheFWHNbKoaXmtDE2/rPxNmCV3ybV9mfVRH0wc6ctjLViORvw1nGANv3v2q8kwTlUx0Uz1DJXe2hOE73aGvV57Pk6RWuftPAXbnMq1qa5VvmAadMSUywEzBJwuBcK1zhTMj1cefBjJUGz729Ez8cm0+rZplbvhVRhNMBmr3p/8++x27X2xOYd7cjntYW4FkKSSmdszBUuajboqDLwVp8resFf0hZu9HoR0qqlf3vwFaU7UkzrIydNbe2/1XUx5pcHUS6s1xpaesFlKbyu61nmk7B6lkVfMHCujkXu5vQGbP/RY3UsUFeSdnwP1lVw8xJ1wJ5vWmVzVyeGjMcqfJU7LJi2TjJCAAEEygmcCi7ox3TV+Rbvc6lglRaFmqx5D7nUb4bc19UDdYJ1dulFV0kDpnnr3t+c7Vatj93dnNYEzCxcKxzQFQTjKRo5fbiVwW9UO3/FzDbGcEzqlfnawwY7pJvqatZOe20urI61Yg9+W788YLWibul9Eg8f6zcreGBmE71a4dt5Xgfs+WbxHdhfuGYBVs7HrHdk5TUwB4H2FbAHnw0am0rO0UiFwY9bUocv457YeErrQTZ2PhNrtMtVS4rZnJX027UzEfQjnxuZRfmkC4v3tEteaT6S1g4Ia2c9CFb9LF05yY47y5Ozs48ZplqCUXflY7mGhG369Khr9ilj28safLbx/pvbqcjnMq0g1DVmimhxO6MPRGT7E63ZLU7f663N3oN7rc4ulj8oe37ui2nne5EN5ViFPJL9QTlWsYudgkUOtACVb5GA/blI0Hgo7LG5ZnaFq1mp3PK7zvNfqF/NgnTlhP3tJ1izwGYm6H9kQM3u7qZ67PBmcvGONM1y2qs2AdejypWaBEEfbsUxVKM90m1tDFN22tTvwup+djw4UVdXu42MFmQW+uw1yKWNVu9/tzXR6613Id1B2fMP9C/cwuZu0jPCeU2CJdtOENjOhD8M699QYolTnwaScutBfN7q243o+ahvUYvlOZ9eWnjaxG/M8rWxu9eUg42l926vtoBj1q90SSu5Xwue1JKY82gbeFRtVmsjWG8srmekvHvGfO4xNYJ1I6Y05goXNXvEXu3IrCDkVgKTX0rZqP/5cOCynK36utMe7iQDn+qnPIiFz4n7cEYJkYiv6rs1OmaKlOthi7p5RFL9IK00Y2//+/Qe7Lo9v8xWaKs9X+qXd2lG7XfcYw88X2Ek+zL1YBICCCDQFIHM5UBY6wkmreDLyYB0YTTpacv/pX55o1e1gQj6AlcqXDnB1IK5YspgqaX31wpnrpzWxgosSfOSEmEzrTi2bzjUNkZOHTp645+iSltt7M/DY8pB2e14bFVeY2G4lUG7PkSyPKf0bp/aGKXFMO+1CTvt3XhkXd3vxwb99f3S6LXq54XsZvzoivXfp4YKe37FLdKUGfvxC7cpFWnXTAnnteuWoVxNF8gZByhR13Y/7o7Kl0BVX7fqQfykixX65YmxvCvnm92DrFVVq3s9tke0Kt/dlM6vuJ1cUEKtJ9zO4+6x43JGWmNOv6iZzVo1mnfDMBChnIF4l14Z9e1bk11c/x5uYsM06o6rMV8tn9zk6K+SCpU2qfpjw2OmSNlZC2FTvfukNH1P/+30HtxTRfa0cNfv+VIsr9AvT4zlrc6dM/aK3pMeCyOAAAK7ECgax1NdPhe/7AzfUF+08EGK5RX65YmxvB/MObXzFVpYjH1d1XG71gTMbn4lliSbvC5H83rG3AM299kRcZJ4i/9LUrwX9OFWjtrt1X7Idlsbw5SdNvvJ3KJyDPhwIPCURfKs/W/rP6ol2tX40drCxY9d1kQvrly9r7p+z78RPX/gf+HWuzPsNl21T8EdeTIBge4RyP0+4CkMUDI1e1r7eZmb9CTkNkTL6lr8STd2PnMAY3kitv1PtbZcPrslCNl/WlQGdxtzjFkEm+ebRY25Te2iZgOP9IvLlr9tZ2beNQxEODw1qH7g5eIfBJSTOMov2K5TMwnPpBa3s56endL32euewO+1GTULXxgzxRH6rtrrseZCwlGrDr1xRwq3Vlok/f8q263S/ML0NnoPFgq1D8+6e88vjuUNTl1cJZa3DzsZq0QAAaPAncXAB3H1W7NncGrYq36dbqcn351ptMO7MePGnxfH8qxTSwcwlieq2RxaE3Aze0cQvkosKoO7nfCMHRVsgz61CXhDPkVDH26lz663TMQ8Sm7d1sYwZ6fNzF1VG2mOJ4NOtVVcIlf6Unx9rHCGhhJvFaeVu91ZTn1dbvrOaV3XRN9ZxbqmdPeezy/cunaCvSaq+3281xWxPALtJHAj7PwgrvY173HO+0JBT0y/BGpmtYW9t26ER98p9MvzXthowTm27bQlDGWxaaPgfb22IWQTf5RPKe0Z8zwpHTw0NOai8buFUTzs/6XSiQLSUdlptbUuWB9Pxtyh2JB2+dwHcU90P7phGqrb6FPpqKx6DoogHAkkXwyGvq9fmC8f/6DOPgX55D9qY6acnA7Uf8b0owOOw2qR89klddQVdULhQSyk82qlmYVk0rP2eQ9KpdnX/+7d83Mr445Cv7zB0ItLocet+2rNyhFAoBUCbb0OqZ+7J/5ALaNzNBlyR2KFY7rTDXZ4V/PZ1UMuGXMU+uVZQ2t/Gxo5aP3yVDjHkPrlkFn7Usim43ITUJAP6ArCcY/vuJxuOx79NG8YbqW/UhNQ6LI2hkk7bX4lFBajpaJlz9j0M1XPbhHTGG7246Paq1Tqmva05FEqpE8ZEqdkzo6X3dZE31HB+id0757PL9z694K9pSSctzc/lu5Ege309CW905bgembBL7YSiq6vJJ9wcbP5dZM+6SaXlU7vPTa/eyP2LbU50/x1t98aTti1YFsmcy21qAx4Z5MOzEplLTTmFhNr+byCJjgc4raTZpf+5z72FS4P1zeVuigd2S26xllucvTXSTWkW7p0+72+E/dd1roSCPapi3Mj4oe38Rpn2+nJ2HjSeCHgspW4HQ1dz8tzLIG/9EqBUvlFHXcjLj32l4tEyzbmxNZzoZBVs2yf92DVYrZoZpfu+VIs73I0q7xVe0ZmX1qdOl1tj2uRNqtBAIGDLZB+z633cxdOxBbOixEhq+tizH9Edclddzsv13dcSl1idw+5ZMzhXtd6uz86u/bDKYdWht3l2MlL2e2PqMXP/EcmdU2J5rmUA7qC4RSNxX9L5R8ozRjBYdW69KmLag9d18YwaafNRn+ndmWwnA14j2pcdTza/sylW8f/Sc2keDkpQld4ZxXPK3nVbU30kuo19rJL93x+4Ta2G+wptfiLcE/LszACnSYgft84Z5RjU4JgPZ2IPW1VqmB5cj51TjtUJQZHFprce+tGeOgdPZZnDzyfmT9A17FVyIvve+x2tW2xufG7mDw+iuByjFnUVMbzbUNrcmd+QRh06DEmNZn8cCPs/EjJQBB6BmcvhrTTbO1Bf8ylfezl1n3+jhhEbzsTjhYOeA4OJ0Jn5WoKgv1CKqaPA30/6ruU1PojqglKHjKfhNWzLPqCgXMlM2u8dP63MS3FRvgfFktWlPtiWtyf1WsdaOkqPLbNe7BC+Vo9uRv3/NyKz57QYnlHnPMvLQVPtdqV9SGAAAIlAuJHk1PvQn7Em3hBO832qGv+4pTWBBTSK54mD6KXS75j12N5Vtv8WuAAXce2ZKMoL+1Wm/JkMxeJ3ZKfnvCNqc3CovNtQ7fVIXEGv6FvMTm9etdtbQzTdtprc2HlFGbBHvx23WOtKKonXWN9yjNBuBkqfXdsZ+NRe+Egupaw/GOXNdHLV7KBqV245/MLt4Htb0JS7XetCVl1RhaU8oALZK94Ct83R7wxj8tqEBl8PhHSX+cavcKAIaOaT+VPOj32YT895bybWvx0seotlanZ96rmets6Qb9dbStkI+tJuaQu35AWzROMjbl4XJ4tWLXzc5WXyv328kSs0PtycChWFEfo88ae03ulyd0w92Hca6Wg9d4vXxotHPC0zsYu6IdIxRys3hcWvNppsFKfgiojP26nIp+rPQ5Gzk0YcxEzqnmzPDU91aemyt/wOP4+kr4tHSHP38ksxgaO/Ua9bungaW/1nNvlPahWpR0eum3PF3972BNxPeDrfNx/7Fb1Dzdxblrro9IOW4QyIIBANwrcjnoKXcit3mcjLu1LTart2VBCb1OIx3RjvqR26Feaa+a/HMvTh28+7Az8xbHM78WPwaq3P3b5Z2T/IwOKcXY9ojYBHfoBXUE4XjjfNq6ePeMYUgOAynLqfbe1MczbaVO/C6tNwOPBiTMqV90Pjslvu7TEmel3RidXM9KJMtv57Odh9xv9vpvyd/4Rr7fcRtEWFIT9aqIXStB2z7ptz+cXbst3McJ5LSdnhfsocCPsWlI68IuFsPovRItacuK0HsdUYTwyQQyO+D6Wv5/EWabeNv45qsfyxIw3ro17PvDUuk0kpat9icm79Wbr1061EJQT9AwHZqU6Fxpz0ivp/xH7jiOz4lFZV0S/9qt1dsFdGlyyfiuyoI+SIzbZL00bt4WUbTv9i5ER1xfaTtgzOOvZcQC/byzynNa/QBDSK+7p9fIVyH8aiSijBfWMTXyneoOrXA49g6HnAnq4O3tjYijSe+hnh3rDA5519VC57Wwi9d+Pqe3FcnkIbfMeLFu6fZrYbXv+0r8UYnkiaeqqr9aHm/jpN7sqJuWGAAIINElgOxOOjaeU1oUgWM/GojtOiSgakeN+3P3roo8y88q1FNNjeWKmD1IzH4qfgbVuy13+GWn7L1qDTt1GRQd0BcP5tmoTURi062cniIzKrcvaGCbutHfjkXXpEKzoNDbob7wJKFifjs4/Ji4t37aXw+8P9P780KGf9/YvTKoj1/SMzPrCTnXzyclK77qtiV5av1297rI9n1+4u9oL9rQQ4bw98bFwJwkUHxGyPp6cl6+xUFoF43hkgpD8qM4rDJRm09mvh2MPX3so5/svzwAAEABJREFU39aCJ1tXlZJhUJxnnJailRfOt1Um26xa4095LQhFR2V7nPO+YGkKKWXRKDnCnRnnr5JawEya3Ub/RUdlBedosuzmsA5HY2f1ONvGzKWyfQqy0fSiUrVGx0xRlpLun5jbuOC3lf3e6LG5hpcyPpc1v6U2GKUFiv/b/z3Inl+8xXjVmACpEUCgXQWK+rkfCSRfcFl2FrXHEfTo15gShFs+Z5UO7zsX75Ip9uArSgvw4cOX9A5Zza/bcUfR0dfHxpxHi1ZauCSaMvmo3V7SGmn/NoZS8rrvTdxps5/MLSqBtsOBwFNl9v06CmXz+9dmH62Q8BH/wg+Wgqfu5fQD6jsStn0TnT1/xzZjQicIlHwQdkKRKSMCuxEoPiLUp14boWxOReORbacnm3jCRdn1H9yJ9m9oF8OQDJzewdLDhyWNuYFH+qWE+n/RUVntIif6XOOT4lFyctfd+9ZkN5aq5Pl2UVcCQR2xuySR8tLieiGlnwkr3I+7oztGftzLmCnKSuR767fmN3+4NHfWqY/YbbEMus7Nr/5wM+Ee0WOKctqSO96DJSCFl+z5BQueIYAAAmYLFPVzF7TLSZVdy8lg6plCDCu9MurriDF2y9alsyaedBQ1Ab/pLm0C6qdoKPXqsxc3AbutjWHqTpuZu6qOnGx/IuDc9a//I47gD+9de27K9ajNomTSY3U85p/93rV7r86PPaZsmAr3XdZEr1DL3Uxmz9+NGssUBJT3YuE1zzpA4GAWsc5eMxWTWV0vbcndzeRDjsHQYLV93+p9WU6m9FD7Saz0nNw9bwK7e61QGGUtte9b2lFuz1XcVQaFzSf6X/HvPAZ4PLBkgLoiXZDOsKJTwdWfiguqt4R2kRNDCsPTs6FrhqxWd5yTa0i626eF6lTddpWS9TgKR8jFor5cOKO2TIF6BkNBteLSrvVK6Tm5exszpXiF1pGA78raT9TV3fvxauL7/sGqkTx5+fZ6D8pFapu7wj4gqnb8nu96SaxFo7dY4Qd022wWCoIAAu0hUGevmYrJrMOxLfFrVL1d0y8nVbZ21qcT0teomngrtuOc3LJLNTLRFVMzb+RzspUd5RqpjHlpi1hKG3jSamyBgEHsb0vOGG2zNsbJ4Jq2lWPDUunL/1dOZuZOezUSVgeCHAl+p6gTZPlSVZtqsT8VSvxw857S3v7p1trfzgeH7LX7+7VbE71aHVs8r849X9v523vP5xdui/cecXXVQhribG4IIIAAAh0vUBgzxRL4bqD0iHfHV48KIIAAAggggECJAC8REAXy8T9ElFFQLN8MBY6LU7ghgED3CBDO655tSU0QQACBsgIbH4XUMVP6goFzZZMwEQEEEBAEAQQEEEAAgS4SuBkJ3VSqYw9+26k84x4BBLpGgHBe12xKKoIAAgiUE9hOhT9Trzw7cm5ij2dZlFsB0xBAAAEEEEAAAQTaTiD1j9NqE/B4cOJM2xWPAiGAwB4FCOftEZDFdyfAUggg0CqBHufclDrixtKznGjbKnbWgwACCCCAAAII7KuA84V76liQAcZa2dctwcoFAYNmCBDOa4YqeSKAAAIIIIAAAggggAACCOxegCURQAABBKoIEM6rgsMsBBBAAAEEEEAAgU4SoKwIIIAAAggggMBBECCcdxC2MnVEAAEEEKgmwDwEEEAAAQQQQAABBBBAoIMECOd10MaiqO0lQGkQQKCMwHBMHaXltbXgyTLzmYQAAggggAACCCDQdQL24CvqYM0PX3J1Xe2oEAKC0H4GhPPab5tQIgQQQAABBBBAAAEEEEAAgU4XoPwIIIBA0wQI5zWNlowRQAABBBBAAAEEEGhUgPQIIIAAAggggEAtAcJ5tYSYjwACCCCAQPsLUEIEEEAAAQQQQAABBBA4MAKE8w7MpqaiCOwUYAoCCCCAAAIIIIAAAggggAACCHSaQOPhvE6rIeVFAAEEEEAAAQQQQAABBBBAAIHGBVgCAQTaVIBwXptuGIqFAAIIIIAAAggggEBnClBqBBBAAAEEEGiuAOG85vqSOwIIIIAAAgjUJ0AqBBBAAAEEEEAAAQQQqEuAcF5dTCRCAIF2FaBcCCCAAAIIIIAAAggggAACCBwsgYMZzjtY25jaIoAAAggggAACCCCAAAIIIHAwBag1Al0pQDivKzcrlUIAAQQQQAABBBBAAIHdC7AkAggggAAC7SxAOK+dtw5lQwABBBBAAIFOEqCsCCCAAAIIIIAAAgi0QIBwXguQWQUCCCBQTYB5CCCAAAIIIIAAAggggAACCNQvQDivfqv2SklpEEAAAQQQQAABBBBAAAEEEECg+wWoIQI7BAjn7SBhAgIIIIAAAggggAACCCDQ6QKUHwEEEECgewUI53XvtqVmCCCAAAIIIIBAowKkRwABBBBAAAEEEGh7AcJ5bb+JKCACCCDQ/gKUEAEEEEAAAQQQQAABBBBAoFUChPNaJc16dgowBQEEEEAAAQQQQAABBBBAAAEEul+AGposQDjPZFCyQwABBBBAAAEEEEAAAQQQMEOAPBBAAAEEygsQzivvwlQEEEAAAQQQQACBzhSg1AgggAACCCCAQJcLEM7r8g1M9RBAAAEE6hMgFQIIIIAAAggggAACCCDQGQKE8zpjO1HKdhWgXAgggAACCCCAAAIIIIAAAggg0P0CbVVDwnlttTkoDAIIIIAAAggggAACCCCAQPcIUBMEEECgGQKE85qhSp4IIIAAAggggAACCOxegCURQAABBBBAAIEqAoTzquAwCwEEEEAAgU4SoKwIIIAAAggggAACCCBwEAQI5x2ErUwdEagmwDwEEEAAAQQQQAABBBBAAAEEEOgggV2G8zqohhQVAQQQQAABBBBAAAEEEEAAAQR2KcBiCCDQfgKE89pvm1AiBBBAAAEEEEAAAQQ6XYDyI4AAAggggEDTBAjnNY2WjBFAAAEEEECgUQHSI4AAAggggAACCCCAQC0Bwnm1hJiPAALtL0AJEUAAAQQQQAABBBBAAAEEEDgwAgc4nHdgtjEVRQABBBBAAAEEEEAAAQQQQOAAC1B1BLpNgHBet21R6oMAAggggAACCCCAAAJmCJAHAggggAACbSpAOK9NNwzFQgABBBBAAIHOFKDUCCCAAAIIIIAAAgg0V4BwXnN9yR0BBBCoT4BUCCCAAAIIIIAAAggggAACCNQlQDivLqZ2TUS5EEAAAQQQQAABBBBAAAEEEECg+wWoIQJGAcJ5Rg2eI4AAAggggAACCCCAAALdI0BNEEAAAQS6UoBwXlduViqFAAIIIIAAAgjsXoAlEUAAAQQQQAABBNpZgHBeO28dyoYAAgh0kgBlRQABBBBAAAEEEEAAAQQQaIEA4bwWILOKagLMQwABBBBAAAEEEEAAAQQQQACB7heghuYJEM4zz5KcEEAAAQQQQAABBBBAAAEEzBUgNwQQQACBHQKE83aQMAEBBBBAAAEEEECg0wUoPwIIIIAAAggg0L0ChPO6d9tSMwQQQACBRgVIjwACCCCAAAIIIIAAAgi0vQDhvLbfRBSw/QUoIQIIIIAAAggggAACCCCAAAIIdL9Au9SQcF67bAnKgQACCCCAAAIIIIAAAggg0I0C1AkBBBAwWYBwnsmgZIcAAggggAACCCCAgBkC5IEAAggggAACCJQXIJxX3oWpCCCAAAIIdKYApUYAAQQQQAABBBBAAIEuFyCc1+UbmOohUJ8AqRBAAAEEEEAAAQQQQAABBBBAoDME9hLO64waUkoEEEAAAQQQQAABBBBAAAEEENiLAMsigEBbCRDOa6vNQWEQQAABBBBAAAEEEOgeAWqCAAIIIIAAAs0QIJzXDFXyRAABBBBAAIHdC7AkAggggAACCCCAAAIIVBEgnFcFh1kIINBJApQVAQQQQAABBBBAAAEEEEAAgYMgcNDDeQdhG1NHBBBAAAEEEEAAAQQQQAABBA66APVHoIsECOd10cakKggggAACCCCAAAIIIGCuALkhgAACCCDQfgKE89pvm1AiBBBAAAEEEOh0AcqPAAIIIIAAAggggEDTBAjnNY2WjBFAAIFGBUiPAAIIIIAAAggggAACCCCAQC0Bwnm1hNp/PiVEAAEEEEAAAQQQQAABBBBAAIHuF6CGCKgChPNUCB4QQAABBBBAAAEEEEAAgW4UoE4IIIAAAt0mQDiv27Yo9UEAAQQQQAABBMwQIA8EEEAAAQQQQACBNhUgnNemG4ZiIYAAAp0pQKkRQAABBBBAAAEEEEAAAQSaK0A4r7m+5F6fAKkQQAABBBBAAAEEEEAAAQQQQKD7BaihKQKE80xhJBMEEEAAAQQQQAABBBBAAIFmCZAvAggggIBRgHCeUYPnCCCAAAIIIIAAAt0jQE0QQAABBBBAAIGuFCCc15WblUohgAACCOxegCURQAABBBBAAAEEEEAAgXYWIJzXzluHsnWSAGVFAAEEEEAAAQQQQAABBBBAAIHuF2iDGhLOa4ONQBEQQAABBBBAAAEEEEAAAQS6W4DaIYAAAuYJEM4zz5KcEEAAAQQQQAABBBAwV4DcEEAAAQQQQACBHQKE83aQMAEBBBBAAIFOF6D8CCCAAAIIIIAAAggg0L0ChPO6d9tSMwQaFSA9AggggAACCCCAAAIIIIAAAgi0vcCew3ltX0MKiAACCCCAAAIIIIAAAggggAACexYgAwQQaBcBwnntsiUoBwIIIIAAAggggAAC3ShAnRBAAAEEEEDAZAHCeSaDkh0CCCCAAAIImCFAHggggAACCCCAAAIIIFBegHBeeRemIoBAZwpQagQQQAABBBBAAAEEEEAAAQS6XIBwniAIXb6NqR4CCCCAAAIIIIAAAggggAACCAiCAAIC3SFAOK87tiO1QAABBBBAAAEEEEAAgWYJkC8CCCCAAAJtJUA4r602B4VBAAEEEEAAge4RoCYIIIAAAggggAACCDRDgHBeM1TJEwEEENi9AEsigAACCCCAAAIIIIAAAgggUEWAcF4VnE6aRVkRQAABBBBAAAEEEEAAAQQQQKD7BaghAoJAOI+9AAEEEEAAAQQQQAABBBDodgHqhwACCCDQRQKE87poY1IVBBBAAAEEEEDAXAFyQwABBBBAAAEEEGg/AcJ57bdNKBECCCDQ6QKUHwEEEEAAAQQQQAABBBBAoGkChPOaRkvGjQqQHgEEEEAAAQQQQAABBBBAAAEEul+AGu5VgHDeXgVZHgEEEEAAAQQQQAABBBBAoPkCrAEBBBBAQBUgnKdC8IAAAggggAACCCDQjQLUCQEEEEAAAQQQ6DYBwnndtkWpDwIIIICAGQLkgQACCCCAAAIIIIAAAgi0qQDhvDbdMBSrMwUoNQIIIIAAAggggAACCCCAAAIIdL/A/taQcN7++rN2BBBAAAEEEEAAAQQQQACBgyJAPRFAAAFTBAjnmcJIJggggAACCCCAAAIINEuAfBFAAAEEEEAAAaMA4TyjBs8RQAABBBDoHgFqglA5llIAABAASURBVAACCCCAAAIIIIAAAl0pQDivKzcrlUJg9wIsiQACCCCAAAIIIIAAAggggAAC7SxgTjivnWtI2RBAAAEEEEAAAQQQQAABBBBAwBwBckEAgTYQIJzXBhuBIiCAAAIIIIAAAggg0N0C1A4BBBBAAAEEzBMgnGeeJTkhgAACCCCAgLkC5IYAAggggAACCCCAAAI7BAjn7SBhAgIIdLoA5UcAAQQQQAABBBBAAAEEEECgewUI52nblkcEEEAAAQQQQAABBBBAAAEEEOh+AWqIQMcLEM7r+E1IBRBAAAEEEEAAAQQQQKD5AqwBAQQQQACBdhEgnNcuW4JyIIAAAggggEA3ClAnBBBAAAEEEEAAAQRMFiCcZzIo2SGAAAJmCJAHAggggAACCCCAAAIIIIAAAuUFCOeVd+nMqZQaAQQQQAABBBBAAAEEEEAAAQS6X4AaHnABwnkHfAeg+ggggAACCCCAAAIIIHBQBKgnAggggEB3CBDO647tSC0QQAABBBBAAIFmCZAvAggggAACCCCAQFsJEM5rq81BYRBAAIHuEaAmCCCAAAIIIIAAAggggAACzRAgnNcMVfLcvQBLIoAAAggggAACCCCAAAIIIIBA9wtQwz0IEM7bAx6LIoAAAggggAACCCCAAAIItFKAdSGAAAIICALhPPYCBBBAAAEEEEAAgW4XoH4IIIAAAggggEAXCRDO66KNSVUQQAABBMwVIDcEEEAAAQQQQAABBBBAoP0ECOe13zahRJ0uQPkRQAABBBBAAAEEEEAAAQQQQKD7BfathoTz9o2eFSOAAAIIIIAAAggggAACCBw8AWqMAAII7FWAcN5eBVkeAQQQQAABBBBAAIHmC7AGBBBAAAEEEEBAFSCcp0LwgAACCCCAQDcKUCcEEEAAAQQQQAABBBDoNgHCed22RakPAmYIkAcCCCCAAAIIIIAAAggggAACCLSpgInhvDatIcVCAAEEEEAAAQQQQAABBBBAAAETBcgKAQT2V4Bw3v76s3YEEEAAAQQQQAABBA6KAPVEAAEEEEAAAVMECOeZwkgmCCCAAAIIINAsAfJFAAEEEEAAAQQQQAABowDhPKMGzxFAoHsEqAkCCCCAAAIIIIAAAggggAACXSlAOK9os/ICAQQQQAABBBBAAAEEEEAAAQS6X4AaItDJAoTzOnnrUXYEEEAAAQQQQAABBBBopQDrQgABBBBAoA0ECOe1wUagCAgggAACCCDQ3QLUDgEEEEAAAQQQQAAB8wQI55lnSU4IIICAuQLkhgACCCCAAAIIIIAAAggggMAOAcJ5O0g6fQLlRwABBBBAAAEEEEAAAQQQQACB7heghgdXgHDewd321BwBBBBAAAEEEEAAAQQOngA1RgABBBDoeAHCeR2/CakAAggggAACCCDQfAHWgAACCCCAAAIIINAuAoTz2mVLUA4EEECgGwWoEwIIIIAAAggggAACCCCAgMkChPNMBiU7MwTIAwEEEEAAAQQQQAABBBBAAAEEul+AGu5OgHDe7txYCgEEEEAAAQQQQAABBBBAYH8EWCsCCCBwwAUI5x3wHYDqI4AAAggggAACB0WAeiKAAAIIIIAAAt0hQDivO7YjtUAAAQQQaJYA+SKAAAIIIIAAAggggAACbSVAOK+tNgeF6R4BaoIAAggggAACCCCAAAIIIIAAAt0vsB81JJy3H+qsEwEEEEAAAQQQQAABBBBA4CALUHcEEEBgDwKE8/aAx6IIIIAAAggggAACCLRSgHUhgAACCCCAAAKCQDiPvQABBBBAAIFuF6B+CCCAAAIIIIAAAggg0EUChPO6aGNSFQTMFSA3BBBAAAEEEEAAAQQQQAABBBBoPwGzw3ntV0NKhAACCCCAAAIIIIAAAggggAACZguQHwII7JsA4bx9o2fFCCCAAAIIIIAAAggcPAFqjAACCCCAAAJ7FSCct1dBlkcAAQQQQACB5guwBgQQQAABBBBAAAEEEFAFCOepEDy0u8CK79DPDsm3gfDNdi8s5WsbARMLshF+U9kDfck6c+24nfbqRK/6LhuN3K6zkiRDAAEEEECggsDN8ID6tXLIt1IhDZMPhsBGYkBuxotNqbrbUabIaI2xgcSGKfntdyZJn/KeejNcX3305uuhQ+/U24Dd1zpmIxFxJ5Fuvb9O7WtJWDkCHSBAOG/nRmIKAgggUFngqL2/8sxOnpOP/yGSVypwcsJ/XHnGPQIIIIAAAggg0PEC9j/prubb0f7uqo+2g12bC6tHlO3Bbzu1qU1/ZAUIdKgA4bwO3XAUu60EDAe+3o7nGixa/nY6+q576I3+3p9LR6LEQ5e9rw+cj4WTN9XQSoP5kbxJAnb7I3LOR45Z5cduu7sdnVP7vVoCf+m1dFv1qM8uBfKfjR9TOgL87Mz0esOZ5G8mw7HzA28cEz/ZlNuxN4bc70bTt/l8axiTBRBAwFyBjctDyufSoZ+743cazPt+Nv3bafdb/f0zauPt0Ez/wC/Hw6uZ/HaDWZG8qQKPDTjk/K2W7mja2AfU5qi1O+ojb5zCXep3Wq/D48GJM4XpPDvgAnxcV9oBCOdVkmE6AvUK5D6emNRjeLcCk5/V/TM1txx+u783MjR+NZm+m9Xbf/l8JrU+6Y729r8dXm60fVlvqUlXQ2DjstudWM4ZGuUW5fPyiLW3sGg+86F76NJyYULHPst8Elar0RcMnOvYalBwcwW206ErUe3jbWMmoTWy61hL/tbi+N8d6o26J9dTmbtaHoKQu5tOXh0fivQOxBazhvdXHVl2QxLqgAAC7SJwJz6xklYLs50MvJest/W2nVtOuPtf7x/6aCb5VTb7QM1DeJDNfBmdfH+g9w13+IvCh542m8eWCNxNjkfGF28ZNmaPRV6x5ZjyKL8QcsnJN91RtReYMqk97/PJ2Oj4pxuG+liU5qjFcqxQ4u1c8tKQ+0q2MKVDn92NR9bVuo4N+m0dWguKbboAH9eVSXsqz2IOAgjUIbC9PP2P8lAU6pspF708uVzHb9TcF9Ojb41O3qr21Zu9NTn6PydSRPTq2A4mJ7kdHV9JJldGj71ZaBQeU47rHu1XmxdiW/DvegeWkuk1f1PHczS5amWz205FPlfHYBkbmVaOY5dNyMQDJZD9aHJG+fxRPt9yk+P1/VrIfuyxRz3Rr6tpZdY9jrejmTo+LavlwjwEEEBgVwLLiUBS+fyRP99y677Jz+vI6M7ydOTY6Eqy2tGIfHLy0tDEVSJ6dXianWT5fV/0tvj1Yy8ckT1qlU9KtdvVcyukA7H9b7nDueREou4YrtnlrDe/zyd968vRD87YxQP86g7Vaz0iLW3vU1uj+esR9xvH3Gvp5KfB5F1pVuf+Zz+ZW1TelX1ToVFj/LVz60TJTRDg47oKovwNVmU+szpTgFK3TCD9ni9yX1qbc/TKrNJQuB/xJzLSpCr/f5x2XJrRo36O07OJl7bu/fThw9ce3gteuzLssulvzTsRT/1HjKuskVmNCGRvpDeV9F8XGoW2PrsyTRDyG7/1SG1BNVqRif2vtHowUUvRWY/ZK9MRpX/B4UDgKdpPnbX1mlbaO3H/kjwK9ZFA4oJf+XhLfRpcVAJ8lVebW/L0X9F63vXYRgbmV3+wde81+fPtlbWFs4VwcS477vtAjSNXzo85CCCAgNkC69M+pQPdY/NXhgfl3HORKzO1DjCkp385OvOVnFy8e8Q7+721rR9LH24Pf7J1zTPr0r8/tzciiclOj62IVey0W3r1trwNtrOFI7KPakdhxcrklqffkg7EKtHYfDa6+KU4tX1v6X9fVfriSQf43xqQu+nZ+o9qBd7OLb832vvORFJpg26noqvVegloi7Xr43Yq9Hv1RJGRcxOFtkK7lrftytWtBeLjuuqW1WMGVVMxEwEEygrcjk4qfZr6pmafcQbdU0q8J/OZr0Z3rW9ORk/Jv457Rqb+emvtpaDrtFX5wrb02Z3uxOZLIf1rLLce6oTTAcoCdepE29Dc2tTW0qjXIX5Gao1CZVhEh2VTbAue+UiOVvRYBs/Or77ycPX5Qbn92KH1zcxdVdtP9icCTrHKHVoPim2qgH4s1PXdkGt4NnJCzv1B3P+e+sNBfl3mzvpUSD22YRmL/WBz6aJ/0KYO8WOxOsZ8a1sXvPr7Jb0aTimH4svkxCQEEECgGQLZ6Icz8pEE+9Szfudz0ak+eS256VoHGAYnn/HKrTdh5MmlrVdjwSGH+ul2xGp/Ipj40VpImS3mdz8a+qTtYytiObvqNhgIbN57eSF4XO65ph6RTcnd2hzCNfFArBaNPTo29b1r93684H2sres/+NzS5o+vLQyMSIf5tzNKN72UHLxz9KQ8bxwb/Uxuv/XYxp5MXPvx5sLTcsXbuk4VC5f/NKIeWu4Zm/hOB1ekYg2ZsRsBPq5rqPG7rQYQsxGoLJBbfH9C/iFq8f6P6UHxzXR2eu6s3I7bTk9eVoI/lZa2ul5cmj0h/tZdCj0uL1KS8NTU3Dct2rTl6B/kZqf2msdWCPRYR56NFYJ6X0en16VOl5kvxqUj81Igb2HtR/dWff7BchuwFSU0ax1XI2G1v9VI8Dt6GNms3MmnMwVuzPiVrivW2bmnxV3c6r0wK33KCUJufSJU/ZoYPY6gP+E/MbUUKP9Lyfqt8Kx+6eQHkfjVziQ6sKWm4gh0uEDu98EJuU+W5fTc9FlB6BmcPq92QE6vTFS/JoZ1OLY07Bo7v7n0/Ij4yVgq0eOYeiZQaL2txWi9lRI1/7XlxNisHtSTjsiG5TFxFieVA7FHx2Y9m/d+tBAasutbqvmF2sMajtjHLhaCetlbk2E5Srz4+/FFMa4nBvKGr2yKgbznXXb5JNw9rGl/F81G04tKCSxnA169B6IyifuDKsDHdc0tL0YgaqYhAQJtKpC7Fp385YB+TbFjbwz5EsmN++VLm1vxaddnPHToZwMzN8onk6fm4m+LadTbsXeS8mE9eY7x7vNp/w3xi1QQHpsLDytNAovr+YhLeVfd8gd+X345NQ/xF+/L5X/rKgmcf+FXMhVfpr+UAknik+683QwPqJfOPORbqbuK69P92lLjn8lLbWfCb6pb7dDPDvX+/WK1DbA+fUZb/NDPh8KV9gc1qLc5r3RNktcjWEOrUiBvzKFvIWV6Hfe5RnbaTGJIrIh6m/FVO8lxOz0dLtR9qObp3oWi5uN/iMj7sSCcnPDrQZZCgvLPpCuWXiq6IvOhmf7+t9zTHy4u/jY8+c75gV+MhtVL5QqCnIf570E5WzPvVnyq9s8GSgpv5lr0vNp3z89GE9Pyh441cD6odDoWTgajTyhPN2YStU5J63PNvxwaUTq86PUtPLF5Hnfqr5b+nR+8OgZPEOh+gfytZPidof5fqN9Zva8PnL8UTVf6wr6T9Gkpxc/ngfflT6YKSLmP3WIa9fYLX1I9UlWcent5+kpc+tbrcc651bNjLU9qHZC3k/5LVRsPguBwJ6r1gTr9aUuUAAAQAElEQVTn8x/W1phbrVZcLVV3Peazf1wMx84PvHFM3RBiW0tuHkyuV/yob0ZrRw3q/bX2FSYpW73PSoG84BO2ss235DvqPnnozXDFskr5GP/zhZ8M2lJNae0oQb0fLQUNX6zW0zEpkOd22hoN5N3fSCZ8Q/o2mukf+OVk9FqFN2EzWtdGQuX5tbmwemUSe/DbTmVa7fv72fRvp33ij0HDp8SxNwbOx8LxTxcj74673+rvjSVL8mnG/layir293AjrP2feKS383nIuv3T77vl8XJffYkVTlcBD0SReINAWAtULcT8Tebv/2K/Gw19m9GuK5e6m4yvuM+Hz0XKhGfGAarLQDy4zfWk6XeEMr9zHPt8tbfV9U6kXXWUOwAob4SsR+XtPOlOj0CO8zzunDsKSj1+Z1kfH07Jr5NFqV346N7JMZ6Y96RjUCp79T/mYo/ay2mNuQ0vqcByXE4oRUt+8fq5o/obH97G8ieSZRXdi8Os95UQbabLrmVTwlPSkzP92PvPp5Ogb/eP6LiEmyk0PhYfGf5vOVdiFxCRlbo3vtA53cl4/DeRB3PPril0+0+951EsWiCs+EUu56+5kdzs6pwbdLIG/LJwCKWZT8ZZbDr/d3xt1T64l03ezeR3hQTb7VXJmyeP5aDJ8PZW5X4pv9nuwYgE7Zka77vn5FbXrinAiEnqiwDn43Jxf+c2Qm574SHv/FeY38Mz2J4VPzQYWIykCCHS0gHT9zYHet92T19PZ+2pN8vlMam186K0z5a8d0eeKfS+gN8Myq+7pSr2D78R9H+k/fe1TF2MuQ+BDXZkgbFz2R+RV25+Y9SuNB2leoQNy/oZ/up5rYkhLlf232cutt2zSLpuYv7U4/ne9/b/2TK6nMncNbQC5ebCYk4KoZavcjNZO/nYq8s5A72+Mgblc/MN+e3Q6eat8SRzHtbbTHb2FWba8xombm3e1l1aH0m5vSmvnfjb1oW/gjdGwIUidu+7rf9MzvbpRvj5auUoec59NDrx+xr0ST9/VttGDbObL8Pivjp35jXJicvESPY6g6a3r4jWIr1K/07bU8eDEGXFCzVt+49PxgdelC0zHxR+D8ptaWSZ3N5Nan/R94Jm4Gk1+lc0rY0Mr8+T7ZuxvcsadetdOe36RIR/XRRwVXhDOqwDD5HYWuJOaeGtg4laFH5P3U+OxibJxtJGLS+qITmLt7sw4L8njTYjPjTdjc7BncPZiSDm/zJhEfJ69Mj4pfwlalDM1xEnaza4PwnI/4nsvrU3msYqAfeARde7m3S31Wa2Hjf/Qj3kPOk5qqY/7Fy549XZ/8iNP2WEHjcEv6+lETDqXUMtBf5QCeeNDv+gd+CC8LDaULC7/CSkAYT8T8oulfZCOfjR0bGbA92FK/02iL1rmyS53Wpv/xYRXCaCImd7yecpeV3R92nNVO5B8xJt4oSAgLlT9lvkkrL4N+oKBc9XTynNvhEffGp00vPssFpvtqHjT1eVkFe5MfA9WWENnTW7PPX958kO564rgmDW8myTZo67Z77qkJ4KQWvJXPyVNScY9AgggoApsZ6Jv291r+ne3Oll92N6IvFf+K1t4Ym5JPVAqpt2YuVS2jZeL/9qnXqlWEAaHE6GzYuIdt9vRcaXD3GHv3HP6kUQ5WaEDci7yQcUjvnJS7soI5FbG7dEaFzQvs5g6aS+tHTUL/UEM5IWj/b2R8xPXpZ3NcdY7Is1zBoekC81lb8643+7tj0wu3hTbdtIM/d/+p9ou8WBrUz9Uqc8u/ySTUa+KJhRiIoJgZmtHDOQlPP2v959fikuXannE75XD0M7HQ1Ln0ruLM++f6X19dPLTTOHwavmiilPzmSvn7e+FpXzEVztuG1+cL9/ONLF1vWOl0oS78ci6ujnGBv02aVL1/1wyZj/zQbRQkR6r3Ba12fS+sdUyMHN/q7aeDpnXpns+H9f17T+E8+pzIlU7CUQ/OB9Rjk1ZXLOeTfmCsPe2Xlrw64dD70eCZaMe4vGl78/q4bncF66J0gOwJc3BhfKdtu4mg5+mJBLDmRrSS+W/pzAIy8ZVX1jt+qTMa+Q+v6VHtiyWY40s2XFp7fqh7MxXWliqViVyefXas4J1SDucKi1jHY7ETmuhpe3U+KVoady3KPjlj110aamlxZX/3GcTciAvmpaO6Vmdw0tbP0pMnZC2wsb24PwrW0vDUqNQ2M7El86LbSzPb2sUe/c7bZ8r8mwhPJda8pUGKIt6Glr9F6Iu/Y2gVKbK/XYqolzLRWx6npswMpZf6E7c/c7kstLG7bG5hq9s/uThvR9vbv5IvG09fE18GyZmTyoHp8tnIJj1HqyQfadNbrs9XwTUj4VaH48GT4oTim7Wp+fUgyLbSf9CjWtiFC1Z/CKfl4+HyBP7Lb3yI3cItEyAFbVewJpeHh3Pym/8Hof/ubWtnzx8+NrDe397ZdamfQlvpyY+lBtXO0rnuBBTP3nEWfcjrh2HY3PG8yqsswvlu6jnk4mJlPwV5nwq7NoxOFehA/KdGd/lGl/rYkEq3HJbekehw8ekdkOFdF01eX16KBHNyrZivRxn5668tCW3zx8+/Om9rR+sJkaDI2VPcBVTKzdTWjv3MxE5kDd5Myvl2udfePnems8nt0s2+wcTG/4F/yPSnOztsCfa2/vm9LK+scTJj9pt4r10S28Yz8mQplT4v5vTA3+D35DXoyQ0p7WTz3woB/JWlMuv2f3PXbv36rxPbuZt9nkTr15bOCu33fLL4Q8Gen8xNP1FXll/2Xtrbnr045T8JhQcZxfWgvfE9+DDH29eGXZqb0Ih9WlIeY+U5GBK67okT/1l9pO5RWXnORwIPFV9R5EWSr875F6XN7H46hFxo957+NMtuS26uTn1UKzR6jOBwepxPVP2N3Ht3XFruz1fZOXjWkSo60Y4ry4mErWTQCYjfxFZT8Y2f5SQxr+Q9mKL9fTY/EuFEy2XKw0/fCqYHHVq1clF3h9P3tVeCYKxOWg5tZC6YPhiLqQS0h9MxKUoj2D9ZsgvHyIzzJSeFgZhETKT7+8IJ0lJav9v/Oui9k0ljP3XkdoLdHAKi/0R7cs7l6mzBb35tcbzSMlZyVbXi8mA3qPty3GXsVG+nZ4unGbrCPnmdzboRUjrcbvaOV9sJby8ecU9Yu0RMrmMOEu69VhH3IVGobB9bPRM+V1FSiz972mnLTprQwxQxsJGImNPQ8fQ0vyTmqS03hr/ef0iYoe907UvImYIdvcMhl7cSJQO1yK+DV3B/6fWvmrGe7BGxZoyuxmZtt2eL9yJTyhdV3qcs+fLbkp70D2l7O75677J0iMi9Sql/rd+TpzD9We2ehcjHQIIdKpALpPLSWW3Ti29ujb/lMMqf01bHnMGXy58ZefX4/pHg5RY/xeDI4bT/cTDseOfGcIWxvMqDnsX/Mbh0vQsBGE9NHFdXupIIPSMzTBDe2rogJxZHS89eKalqvF4M7WoNyxPusp+jNbIoeNmG1tWPYNTf7215gs4T1stUvtcEHosVtug69nZ2BNy4Kly7Uxo7Ryx2w/Lu1mPeMRxaevV+bETFiGb0VpvguXEWOGIrFgS6+igvB+KT6Xbo/YB6UH8z2TUcdzE51VvX21qTTLHgD46irKECa0di/2YRRnXxXZidumH1+afsluEjYxcRWklR+xjvrWti7NSNz3ptWP0VLVGYE58F4rJ1G005uiTE1tsTveVwnhEFa9PZULrWlx5uVtm7qp6oojjyaA+Zk65lPI0w1F56+mFrVfmx07KFZFnSncW2+BfBZWgp/Sywr8J+1uFnDtv8qPttufzcd3ATqR80DawAEkRaAcB68lY5m+8tpL997i/0Jmu8vDDtvMLCb331v2o712tg4mxOXjEu3BxzFq2qjfDvqvyd3ePK+Ku1E5TBmGRl/9y3F9pBDd5fvm77eXw1Yw663DAP6Q+7dYH2yNaI+/OhhalU+q6PDEjj0w8ox5RV6YKhtaMzarEFrQ54mPPyJyv0A0zveLR+0gag1+DwwtTp8TU5W4ng9GBQdfomngUVGoLKknkGK6gBRwtYqPwVamb3uBAmU5MyhLG+73stEVnbeQmPXqA0tCmEayzFfojGEthfF64iJj9iemyYU1jauHa7LR2sNoxtDB12lI0t5EXe30PNrKuNk/bZnt+PrngV85WKx5Vqljx7PTcWeXTcbenpN2OFi4+czzg29EHsHh9vEIAgW4REGN5/h0XyekZCZ7T2gDbS5lK5zQUne6Xi16e0A7HGg41CVbvc5Exue/SDrKNcEIdM9f13dBISQNSS23ogJwaf7fieLVa8jKPy5+EtNabJTDoKpOi6yZlP5rUR+91PZMKFQaqbriqe27tWFzuOZc1mPjhZsItHYiVSvBAkIO4WoSuRzoiu/mDBb/VpV8LRUom/j/ab9d2jI3/r6g1mr1yXrmyx+iHRdOF23qs0G7fcYB/760dy3B47sRg8PmtzZeDI8oXr1hO+aYfY7YOBBM/2lw4O+gq1+dUTmu4E2N5F8tso5HvTGtvQmHp3+WfOYaF1Kd7b12rGRU/XI2ElZOuesamn9nRpC9OKwj5+D+ob2ThsDcm/ljTNllpwjpe73l/q2MdHZGk7fb8zv64bvE238M7oMUlZXUI6ALW2aWdsTx5rmHcinTFFqFgdXli+nhkuXWff0U8zmVsDlYcQVkQcvHLk0pDzTE05y3fZJSLIsaD1KtACsl/CGiNTnlWHXeZhDpUs5jWUc+hKjFdJ9/sf6q1Ih4Uj1fyeSyqBNEeRBeL+gHl9JNZBh7pL1P1U8HYkDYGynZ6ckEeKMQY/DpR43oRIxdXE886DCGrfM54Roa6SqlRuHpxRH1V5WGPO22PI2g4T1wKUN4QhKLj4a6YP+ho6BP9amhSPfg8EvyO5l+5Cst/CKvtu7raW5Uzkubs5T0oLd81/+215+tdVw7vGFWqSNziej7iUna23ZySllt8X4/OW7zfrmeUnKLV8wIBBDpS4Ig3sTOWJ9fE/g3t+1rIrBZHS+T56l3R6X7i4dhLSan1ZjjN1n4uFRu2qqmLH3IfTyhDHgvW2bmyA+aq6QsdkIVb/sCKHAhSZ9XxcGPG/4VYKDmlNRQ8Jz/p8rvswhcptYp9U7PVbNVU1R569tzaOe5PvDLrMu4FeXXsmntKe1JZ/WNj868kdpxh43DIp+KKSYqHcs4m/qjWcfmPC8Y9NH9HG/jlsN2+4/Rtoe5fHOIaK9xs/pdXZ5801ienNoCN1emxjflWE+fL9TktytfqvVAmliclMVybK3Nb+aEjTS7933PrujRDIRv5x4jyNrOcDXjLGBYv8VUsqkX86zoUXbx06au972+lOXbo6/ba8/m4bmg3UtrjDS1CYgT2V8AR+n7FsIX9T/UWYdVC9rliF9XzxaQI3YeByPse/Wq2FUdQlrK0el9++PA16bbmrnEEafD715SUD6ditbs+SZmr/7kV36hyvps4wRpaqHDO9LeDzgAAEABJREFUrzize242ffy7ovFK0v+2oHzHi4fjov+itqXkWm9uaCez2P9L+eaLw52KnZDTine5SV8iMnFJO6An/qho5HoRYgaCsKlevOz+ltZUlyfXdWfGTnsqmHrGpa5NDFC+OxP5jVM7Hi62z2LeKsFldTHjQz7+B7X9JJyc2NGiNaZUnqcTN7RNYfOM1WxvKQtVud/9e7BKph04q632/LOha/KHW+2PrD5v4qfSx6D4EVfzk7Bkq2QSTo+2L1lOxSLDlpIEvEQAgXoEOi6N93zMVel76rGB2seUpApbXS+mprRMctd9gQ9nPB8lpTniv3U28XzFRqD16YT4eSXdXqlwKq6Yg3LTPwlfuxdr6APqTtIXm9YCIdL3fo1morK6Tr+/m0qqhwYF2xlPfduxap1Nbu2IzXz1tI9cXmvGVFy/3aHFzTLGoZzvpha/1Ja5HVvQ6itO2vxP9UCn0Gcv3xg1v7WjNYDv52rWRyxh0e1UtFK8WxDs+lXpihbZ8cLk1vW1ubDqaQ9+Wx8NacdatQn5tUXtx4DN++cObfIeHk3f3/ZQlv1btL32fD6uG9oTCOc1xEXithBQB+MoW5b69+izoYR+obT78YlV7duh4TMWy5ZjDxNvhJ2XtfM7egZnvz/VWJer3a45+c6hQz+rcRtIaK2W3a6l4nIn7FobXDsbQkqaXtBHuhXjedcWC6PzFkZCcTh2nN0gLSr9W70vFC4Lm16diKjd6xq8XoSUleH/7oZ2KNYwsdZTU3Za69OxwnniuemJP6pxRevZWLRCf4SK5bodnVMPb1oCf+mtHVD5anVZi586bIO101dcsWHG/r0HNxID5ff2RFwrX2YyWvbtMBBW3bSEe3xs7Z7f2JVS9li1cotLxypW0uqcKmMaqCl4QACBLhKo0kLrqftbpWcwdFEfTCMXX5pWGwZie8lT8VhvKxC3M+GoO642M4Rqo3mYWpqKX2fGFt07WsTT1FWrmV1b0hrQgvP/0ppy6rxdPpjZ2jEUYeM/azff7I9qESJtZBUxg/xqzCC4HEsX+ufpZ7wKVkfF6G2TWjt3N2vXRyy98VbtjWap1lI1ZiKY2bpO/S6s/rQ4Hpw4U7Sasi/S/17Y3YbqSF82k5KJTdrfStZS7mXSZ3yfFp6fUbsSi8tcd5dvr5r9pu6kPV9k2eNtnz6u91jqSotX+WqttAjTEegSAYd7oXChNKVOhyuPoKwkaPb9jej52GRaubqT+H15IRU81exV1si/RbN7CicpbN7RDjdeW4hrISSpGMbzbe9saY2YQUeVgbf6XNELfqu0cOHfMdTY9SK0Je3BV5TuSDGtj5w2p3WPVtfFmN84bLO4amto6QVX3b+ExAWkW+aTsDrscF8wUM/ZQHdzGrjQf9S0K/W143tQ4mnhfwfs+aZp5K5ODBmPVfgqd9UxbZ1khAACXSdwKrigH45VK2fxPpcKVmkMqMma9rCdib49qv8Ct55OpNxaVKhp62yXjPNbWqNN6C1pn+y+iKa1dqQiDMekXpmvPaynL7n9mBaUK5yKkV/8V0M0TxAM59vmc1oz1XG82hY3tbXjiin96Gv2M5Uq35x/s1rXd+ORdXX3GRusa+SNLb2L5eFj/aaFMUzd35pD3uxcO2HPN8mg6z6uTXsfGIF5jkCHCNiDzwaNsR7naKURlFtSoS/jnth4Sj20ax07n4k12uWqJcVszkr67drpM/rh043MonzIzuI97ZJXmo+ktRZVTj11QrDqZ+nKSXbcWZ6cnTVea8wSjHZ0I/uoa/Yp48kI1uCzjfff3E5FPpdpBWHk3ES1FqjuWRjsWbD9SfkTSvS0jTxps/dgI0U3Ke1B2fNzX0w734tsKMcq5KG4D8qxCpN2FLJBAAFdwP5cJGg8ivXYXORbxtacnrAlT7az8b8fHc9q/eVPxjIvuvavNC2psmElG/+hnV4sVDlbwrBAnU9Nae3UuS5DMovVru5Z+qkY26mEch2wx7zqyG63IzG1n742DIsgDH5DiwMacjM87bbWTpnWdeOt6+wnc4tKq+BwIPCUCm9A2/l0I6O+z4SKZzfvXKieKfu0v9VTtNaksRyQPb8bP64J57XmPcJa2lJgOxP+MKx/L4hFTH0aSCoXVxJftPh2I3o+6lvUYnnOp5cWnra1sgiul5SuZ9Xu6zmwudsy2wYeVb/ItSF4NxbXM1JuPWM+95gawboRUy67WWg+PmKv3oDKrQQm9RFPxOzy4cBlOVvxeSfe7iQDn+onGogVyIn7cEZpDImv6rvlP41ElBGUe8YmvlPfbnbYom4eQahj9Jn6yiGm2qf3oN29phyrL713e8VCyTfHrL/se2HN7A4gB2LPl/rlXZpR+x332APPVxiKW6bnDgEEDorAbuuZuRwIq3165Cy+nAxI1zSTn7f4Turo4fDdVNuSVtt8pWu1NalcFb/OlA5cyv1LriatXcy290ihw36+wdaIuHjFmxmtnYqZV5lxYnBUnatdUm81Fpfr5TgVmjilNIUy0X9SjolmMl8rqR0DxiPHyjTj/T61doxFMPe5Ga3rzNxV9UQR+xMBZ10xiV7rEa0ehe6T2pS9PO7P/qZ1tFTep4X7a4Wzx05rg34W5sqtU9Pf1Adhz9/vj+u97KFVlq3rrVNleWYh0LECueSvCmdGqLW4H3dH5Uugqq9b9SDG8mKFfnliLO/K+bq6TLWqfK1Yj+0Rrcp3N7PiCm8nF5Tm8Qm387h77Lg4SRC247FV6Ukur576abNWjebdMAxEKC0n/adXRn371e6X1r+Hf7E5aBiaR80oNzn6q6RCpU6p8ZCNpheVJJZ6LiKmJLUWwqZ690llzh7u2+k9uIdq7HHRrt/zpVheoV+eGMtbnTu3h54re+RmcQQQ6HCBoiE41brk4ped4Rvqi9Y9SD8ODf3yxFjey/7WjHfcujrWWpOhw35mzXj0tNaC1eab09qptoaK8x7tt6s/jjc25KZV6t+UJpN9zGEfcfgt8pKZdfn0kbu5TTnSJwh2u9JMlefuuOu61o4preurkbDahWIk+B3tJ8AOu+IJtv6j2gS9+6Q2YfeP+7i/7b7QZi/Z9Xt+935cq59YZu8R5IdAuwvkfh/wXJe/qMWSWqdmT1vFR+mWm/QkWtt760b0vCGWN3Y+cwBjeaK8/U+17/J8dksQsv+0qByzG3OMWQSb55sjYhrxFv+XpHi/+bUU8ROfDDzSL96Xv21nZt6VByKUZlu9w1OD6gdeLv5BYFFtQ0jzOuU/k/BM6vvs6dkpfZ+97gn8XptRszKFi4g5Qt9Vez3WXEg4atWhN+6o+GWXSv+/ynYrO7NoYhu9B4vK1eoX3b3nF8fyBqcurhLLa/UexvoQ6CaBO4uBD+LqF17P4NSwV/0m3E5PvjvTaF/1PcGU/Dg8GcscvFieBGg5pkS4xOfZ/6zSPMilv9wQ09RzM6e1U8+ayqRxOB5Rpua3pHHxlhevyR1B+7y+M4LwxJj/sDw3F128KQhfbapVOlwYAFqeXXTXba0dc1rX+fgfIrKsYDk97a8WDC3CPFY4VyS7+VXRrKIXd5ZTasfJosllX+zr/la2RPsysav3/K7+uFZ/3e7LXtPWK6Vw3S1wI+z8IK58iwg9znlfKOiJeY+odc6strD31o3w6DuFfnneCxstPsdWrXM7PNi0UfC+XtsQsok/yqeU9ox5npQairZBnxrPuxGN3y2MnWH/L5XOFZWOhU6rTX7B+ngy5g7FhrRrrj2Ie6L70Q1zD85Sf4RVLdB8JJB8MRj6vn51v3z8gzo7JuST/6hdROzkdOBk3QV6dMChNGEFIZ9dUtuvO5YWC+m8Wmlmcer2eQ8Wl2sfXnXvnp9bGXcU+uUNhl5cCj2u/vTeB2dWiQACnS4gdaLxxJXBIgTBOZoMuSOxwuHY6Qb7qu+BQyxJZKAwXt7phY2/8doO5o+qwjl6Qiorn0BRzjWTcHpuqO3ucvML08SGxKgJrZ1Chg0+szu0r6n0f2wIn8ei8v5mP+tziBn1OMfOSI1SQchE/ldGuJ1Rm2V99kqNUaHbWjsmta5vRkJiPFQkFezB7zZwPTf7ce1kaCGVuiYtX+ZffHtGfcrgPGXmFk8q3t923bouzrQjX3Xvni/uD139cX0wv3k68k1GoU0T2E5PX9I7bQmuZxakg0JFF2mSz9pQv2ZMW22ZjKRY3uSy0lG/x+Z3b8S+pTUiyqTu9kkn7FqwLZO5llpUTtmwecaUfvXHPb7jssD2YmItr43PUnHc5dzHPrfe+7JvKnVRCgYWXVksNzn662RdTUt5tft8dyfuu6z1RxDsUxfnRsQPb+PV/bbTk7HxpHQkuWpJb0dD1/NyCkvgL71Km1R+WfNuxKXH/nKRaNkmlNhmLRSyaobt8x6sWswWzezSPV+K5V2OZtXPt5HZl1anTjeyx7VIn9UggEDHCKTfc+td1IUTsYXzYgil6JKUuetu5+X6DintpdLbmXBkYFLtGSTYziY2Xhqzil/Ke8mzc5d91OnSm67XkynlM7+4OlLEZCVdPK3CK7NaOxWyr2ey/VEpcCemzOQy6X9bkNtMNu+fqxOdf66eb7txPZm5f09MJt2sDrv0sOO/61o7ZrWuU/84rUZCjwcnzuxwqzzB9mcudUsIQvyftJ4ZRemlgGPhg6Jo1o4XbbC/7SjTvk3ozj3/AHxcH9gvn317q7Di/RYQP+WdM9qJltbTidjTajPE8uR86pz2dSwGRxaa3HvrRnjoHT2WZw88n5k/QNexLbcX9OinKmxu/C4mnVIrCC7HmBYAMJ5vG1pTu9APOvQYkzHLG2HnR0oGgtAzOHsxpJ1maw/6Yy7tYy+37vN3xCB64leR4TDj4HAidFatrf1CKnZCfS7cj/ouJbX+iNrE4sfMJ2H1VNi+YOBc8bxar5z/bUxLshH+h8WSFeW+mBb353S5dry2lP7YNu9BvUT7+6Qb9/zcis+e0GJ5R5zzLy0FT+2vclutncIggEDDAuKnilPv/X3Em3hBO832qGv+4pTWehPSK57mDqInfiO/VYjl2R+/kvG51HZkw3XqjgXsrtMa/4PIxI7xarIfe+wJ/Xhk1SqLtia1dqqupsZM+zGtOneT0XX59OGjfo/W7hKeKJxvG8qoMUrHcT3EZMy861o7ZrWu78Yj63KYVBDGBv1iVN6oVuP5SddYn5bkZqj0zb6djUfthcP5WsLyj+2xv5Uv235M7cI9X9zEB+DjWvtdux87DetEoPUC2Suewqf8EW/MU9QIG3w+EdIbZblGrzDQSG3kWJ4e+7CfnnLeTS1+ulj1lsrU7HvVSBHaL22/Xf2GzkbWk3LxXL4hLZonCIbzbeNxebZg1c7PVV4q99vLE7FC78vBoVhRHKHPG3tO75Umd8Ns/eDZSjnrvl++NDqZ01JbZ2MXHNoL8dHqfWHBq50GK3VM2NGSFhOpt+1U5HO128LIuQljLmqCqg+Wp6an+tQU+Rsex2wpYAYAABAASURBVN9H0rel1lj+TmYxNnDsNzPK/jx42ls953Z5D6pVaYeHbtvzxV/dxh9vzsf9x25V/3AT56bl30ztsDkoAwIItJ/A7ain0Pvb6n024tK+j6Syng0l9OaAeDg25ktqR22luSb+Kz8O9cNZff6p/zuXqtF4W0zdkL4rTSxFu2XlOB/SD5RmVgdGLyUzco3zX6bCb/f3X5GP/4nHVkcDhSZduTqY1topl3n90yxWu1rObCQiN7xtZz3a6SPiQeLC+bbxG2oPs8FvaBFAw2q6rbVjXus6+8nconL093Ag8JSKbZCr/tQx+W2XliIz/c7o5GpGOmVnO5/9POx+o1+9zPQRr9emparw2Cb7W4XS7cNkS5ft+Qfm45pw3j68W1q1StazQ+BG2LUkj8gmzbH6L0SLmoPixB7HVGE8MkEMjvg+1ltt4mzTbhv/HFViH0qOG9fGPR94at0mktqZHcpSXXdv61eHHxYE5Wv+hG9MOdNWqepx/Xxb5bUgPGLf0YASj4W6Ive1BNbZBXdpcMn6rciCPtSO2O6/NG3cFtqS7fIoRkZcX2g7odga9gRLr5rXNxZ5zqtHodMr7un18oXPfxqJyEPACD1jE9+xlU9UZWrPYOi5gL6i7I2JoUjvoZ8d6g0PeNbVFq3tbCL134+pIcOyWbXNe7Bs6fZpYrft+Uv/Etd2WUk0ddVX68NN/PSbrTjkkpQH/wggcIAFtjPh2Lh+Fqf1bCy642yGosE07sfdvy76FDLN7lYyavx0uxMdr91480z886ZpBWjPjPq80dHClbWW19wDrx+Smge/PD95Sz5S02PzX0gFHTvbbIX6mNjaKWS6u2fH7WrDUWmLCjb/XxSieWKW+vm2amNVcAw8Jk4uvnVba8fE1nVm7qp6ooj9iYCz8VCE9enovA6+vRx+f6D354cO/by3f2FSHUOnZ2TWF3aqm694u2iv2mh/04pk1uPu8+myPf/AfFw3/h7a/T7Ckgjsq0DxYSXr48l5+RoLpWUyjkcmCMmP6rzCQGk2vN6FgMOqtqCUZZ1nnMXH7Arn2yoJbNbSaF7RsdAe57wvWJpCWrJoqB3hzozzV0lj+1xK0ib/Rf0RBOdoMniyTMmsw9HYWT3OtjFzqWzHhGw0vagsbDkb8BrjpMrUeu6fmNu44LeV/d7osbmGlzI+lzW/JR+VL5dd+78Hh2MPX3so39bKUperlQnT2PNNQCQLBBDoUoGiTjRHAskXyg2c3+MIevTLQwnCLZ+zSl/1LoXadbX2vqDtfGJtWBqkuExWR5yzF2uNJ2Nma6dMERqbZHMUNUYPe9xnizN4QjvfVp1styuDO6svxWPSy8bTRLrgF4eZreurkbDaeXYk+J0iad2v1hOb3782+2iFVI/4F36wFDx1L6cf2t+ZsK32t53FE+zBV5S26MOHL+ldEcukM3kSe77JoC3KruzPshatm9Ug0EKB4sNKfeq1EcoWoGg8su30ZPPO2ii7+gM80f4N4/FPp3ewtAdZ4XxbWWngkX75UbsrOhaqXeREm1n0WDzUTu66ux3b/dtF/REEddjvonpoLyyuF1L6mbDC/bh753V7r82FbyvJ7cFvF46iK5Pqv7d+a37zh0tzZ50O7UrQFsug69z86g83E+4RPaZYLkPeg+VU5Gns+TIDd50kQFkRaI1AUScaQbsSVNl1nwymnin89E2vjPo6YnjcsnXpvIkWh3vp3suJ2dODNm0AEOsjzuAzq5vBK8HHq7YOzG3tmEDnGDKU13LWN1KSZ49+vq0847A+9LP8Uui61o6Zret8/A8R9aDvyQnpUoSKWaP3RxzBH9679tyU61GbRQlm9Fgdj/lnv3ft3qvzY49Vza7t9reqpW3pTPb8lnKbtTLlHWBWbuSDQNME6uw1UzGZ1fXSltzpRj7cEQxp10YoW2Cr92U5mdJP5yex0nNyyy7UyES7e61QGGUtte9b2l2okdqYl7aw+UT/K/6dR96OB5YMUFekq9oZ1n4quPpTcUH1ltAucmJIYXh6NnTNkNXqjnNyDUl3+7RQnarbrlKyHkfh6JxY1JcLZ9SWKVDPYCioVlzatV4pPSc39buweg5sgxcRK7Mu60jAd2XtJ+rq7v14NfF9/6Ch7VtmEWmSta3eg1KJ2ue/sA+Iqh2/57teEmvR6C1W+BXePtuFkiCAwB4FTgbXxO8v+RYbrpxX5WTW4diWvLj01fbaNf1KUGXzsj6dkJMpnz9bseHa30xl86k40VBOw4qU1VW8X3OXO0+g4jo6eIblhCv40urmlEqx9eqV2b8atGkH/4SCXvEHvqmtHTP4DH2jXnt4769Lo3niKpwv3CvsAFNzxSna6xeHUG9XL0OtS3qEmdi6vh2duyn6iTdL4C+9FvFx9zeL/alQ4oeb95SW/0+31v52PjikjXtYJdu229+qlLXFswz7QBfs+YUPHPUTqfCeLXynlM7qxI9rwnktfp+wusYESI0AAiYIFC4iZgl8N1Da6dGEFZAFAggggAACCCCAAAIVBTKfhNVh847PTp+rmIwZB12A+jciQDivES3SIoAAAh0osPFRSL2IWF8wQPupA7cgRUYAAQQQQACBigLMaH+Bu8nQ5+qJImODfg4tt/8Wo4QdIUA4ryM2E4VEAAEEdiuwnQp/pl55duTcxO6GHd7tulkOAQQQaFcByoUAAggg0CqB7Ceh+AN5ZYcDgaf2dqKtnA13CCAgChDOExG4IYAAAt0r0OOcm1LHhlh6lqOhe9vQLI0AAggggAACCCDQoIDt2SV18LKpOScRiAb1SI5AJQHeTJVkmI6ASQJkgwACCCCAAAIIIIAAAggggAAC3S/QuhoSzmudNWtCAAEEEEAAAQQQQAABBBBAoFiAVwgggEDDAoTzGiZjAQQQQAABBBBAAAEE9luA9SOAAAIIIIDAwRUgnHdwtz01RwABBMwXGI6pY6O8thY8aX725LhnATJAAAEEEEAAAQS6WMAefEUdNvrhS64uridVQ4BwHvsAAgjUFCABAggggAACCCCAAAIIIIAAAgi0i0DzwnntUkPKgQACCCCAAAIIIIAAAggggAACzRMgZwQQaLEA4bwWg7M6BBBAAAEEEEAAAQQQkAT4RwABBBBAAIHdCRDO250bSyGAAAIIIIDA/giwVgQQQAABBBBAAAEEDrgA4bwDvgNQfQQOigD1RAABBBBAAAEEEEAAAQQQQKA7BAjnVduOzEMAAQQQQAABBBBAAAEEEEAAge4XoIYIdJQA4byO2lwUFgEEEEAAAQQQQAABBNpHgJIggAACCCCwHwKE8/ZDnXUigAACCCCAwEEWoO4IIIAAAggggAACCOxBgHDeHvBYFAEEEGilAOtCAAEEEEAAAQQQQAABBBBAQBAI53X7XkD9EEAAAQQQQAABBBBAAAEEEECg+wWo4QESIJx3gDY2VUUAAQQQQAABBBBAAAEEigV4hQACCCDQeQKE8zpvm1FiBBBAAAEEEEBgvwVYPwIIIIAAAggggMC+CRDO2zd6VowAAggcPAFqjAACCCCAAAIIIIAAAgggsFcBwnl7FWT55guwBgQQQAABBBBAAAEEEEAAAQQQ6H4BalinAOG8OqFIhgACCCCAAAIIIIAAAggg0I4ClAkBBBA4aAKE8w7aFqe+CCCAAAIIIIAAApIA/wgggAACCCCAQIcKEM7r0A1HsRFAAAEE9keAtSKAAAIIIIAAAggggAAC+ytAOG9//Vn7QRGgnggggAACCCCAAAIIIIAAAggg0P0CLakh4byWMLOS/z979wPa1pknev9EhCAHkz3pZjt2CCHKm3fuyNvbt/KbnRl7OnupQimRGEptwlKLUi5yGQZ5KIM0DIs1lKE2w1CLS6nF8lKLIQzSMAS7lCKFUKKysx27M+PX6ubOWr1z88bBNxuLbqh1h5CIEJz3/Ncf6699ZB/JX9Dfc57znOf5nEfSo9855zkIIIAAAggggAACCCCAAAIIIIBA9wtQw70QIJy3F8qsAwEEEEAAAQQQQAABBBBAoLYAcxBAAAEEWhAgnNcCFkkRQAABBBBAAAEErCRAWRBAAAEEEEAAgYMoQDjP2Oop388OHVJvl1PG1MoXW9nIu3qynx0aTGYrEwhCIZ9Nfxwev3xh4J3+nrf1xG/39L8zcCEeWfhzrrB9GaYggAACCOydAGtCAIHuEFgr9srejazVrFM+dfm41sf72aHjl1P5mikrZuQXftljLCi/qLeWimV5iwACCCCAAAIItFGAcF5LuPnUr4ZDeh9QPJNMe52Vy9+JDL47cGFxOnY7nX2QK2zp87cKuQfZ9M3Q6K/7e97xxe4S09NlOuaZgiKAAAIIIIBA5wlkk27vbaP3NrP4mkdsrhKFz0P+dTpszWGRCgEEEEAAge4SsH5tCOe1sI123B2sXMeDxHhsOLJeOZn3CCCAAAIIIIAAAiYK5Jd9w8sZLcMjY0l/0Nlk53drKXQ1pkcBtQx4QgABBOoLMBcBBBDYM4EmezR7Vh4Lr2h9erS57qBod3kGZuKjqxs/3Hz41pMnyu3hm7dWXggO2fUKbmVC8Ykl49g9fTLPCCCAAAIIIIAAAuYI3F8IXEtoITmba8YX9/Q2m3HmQ1/0kZLYJoqHlRdteyBjBBBAAAEEEECgVQHCec2J3U/54mFtnLz63cFTwcWfrCQvBceecfY9JRrhO7vocP39zOKPVqeMEzweRWc+4wyO5vxJhQACCCBQLsA7BBBoILCVjcRGE4/VVOLYxXTwtPq6iceb4dEb2lh87uH5cNNBwCayJgkCCCCAAAIIIGCCAOG8JhDl7qA3oe6hFVrsDlZkf8Q5+Z0xY1rqf+lnfxiTeIFAOwXIGwEEEEAAgYMhUDbesev8Yvy8sUO1EcBWdjo5rQXzxJm5C45GCzAfAQQQQAABBBDYa4HG4by9LpH11rd0pXj5i9a6g1XrcmrQpU8vFDb1lzwjgAACCCCAAAIImCOQuz5qXP5CrHrtstrrWbvmC6sn6NpcM68ECebVpmIOAgh0owB1QgCBDhEgnNdgQ+WXfZ4v1D6d0Gp3sHrWfU5n9RlMRQABBBBAAAEEENi1wHrEs5jWchFbuJStvMi92Lg+VrLzuXgL5+fKCx/gO1VHAAEEEEAAgb0VIJxX13s94r6qj6DcanewVsbrGeMMW+dT7PGtxcR0BBBAAIFuF6B+CLRDQB7vOJRRrzZ2ZCzpDzpb6O3mYlfG0+qyvZNxL3tg27GFyBMBBBBAAAEETBBooYNjwto6K4sHqfH4jruDNaua+x9J7ZIagmPkb+km1oRiBgLVBZiKAAIIIIBATYG1SEwf79jmmvHFPa1cxSL/qX/8SzVrx+TLUy66ySoGjwgggAACCCBgPYGD0U/ZiXs+dcUXUy9/0Xp3sOYK1yOez5bUueKZ2dBZ9SWPCCCAAAIIIIAAArsVyCZHQ/oQKa1dylZa8/2FwD+npGfpJn4jPnVOeuaGAALrR3dEAAAQAElEQVQIINCJApQZgQMhQDiv6mYuZJNufQRlseXuYNUsH+Uyvx0fuKwf7vdUiyO5VM2zzsRl36GfHWr15luukyOzEEAAAQQQQAAB6wrkln3D+rB3rV+7rJD60J94rNTuiD/+vSHl1R4/pHytd94OXdZCkHtc1m5cHXVCAAEEEECgkwQI51XbWnf9RnfQObgYPy9WS9Rg2tp1b/87/drtFz2Hft4/+Eksq4zG4hxIbgZaGsmlwbqYjQACCCCAAAL7IcA6LSNwf8qjj3dsPz2fbnHYu8LnE76b6nF9ov/irOeoZepFQRBAAAEEEEAAgWoChPOqqTzO5/XJ2VspNQanT2j6ubCWe5DTboVCcbFej9RH3FBP4y1O5RUCCBwcAWqKAAIIIGC2wFY+r+w0lfIt5OYX70vPTd+2lkJXY2rfz346NvOcveklSYgAAggggAACCOyPAOG8au6nZ2aMA/LyId9V/doV1dK2PO1+KrLsHXin35tcUjuOzeXQYqrz8SdvPWn1Fj/f4lpaSn4nMtD4FBJfgzNGTMlEaOZkloHInfrVs04mQupy4xOrB5JrDepjmUzWkgONzxNvdG6RdTIRTGm0pmRCy6/2GbDOx8c6jdaUklip5Vfb8EzrPoFjkzPn9N7bo4RvPtV8LyvzoS+q7mc9PBa/NKLnsvdGnnjrnbcnr3vaWVB6O1V0TfnhMOWb1pRMLPR1TW+nSnOzUD/flPZmnUys3/LL/xA1+ptMP79tHx9TGm210pkwjXBeVURn0J8cO6LNyiwP+5ab7xNqSzm8q6XRtIfBjdXR+MwZpzZ7K5daHnbGW+hragvyhAACCCCAAAIIIFApcHzk1UVjd2z+ttedbG537Pq074a2x8vzX6IjrVwJt7IIvEdgvwVYPwIIIIDAwREgnFdjW/d64t8L6Ltn84mr7sh6jZTNTbb39jmfGQu+vvrkB/ERPVCYuzkaWC45D7e5rEiFAAIIIIAAAgiYJdA9+dicQd+cW+/bNrU7dis7/UFYC/udjMef17t+3YNCTRBAAAEEEECgOwX0Lk931m53tXpmdvG8S8tiKxP6YHqHg+hpWehPT4/N+6b0g/QKiT/Gc/qcLn8+FVx9q+H5v/EGZ4yYkonQzMksq8FT9TeIdTIRPK83hH2y6nU0qI9lMqk4srX0KNfi60bnFlknE8GURmtKJqa2/OK2qPK53puPDy2/ymeall8FhUkHSuCEf/7imB6TyyeuBRbqDqK3ds0XVk/AsLnnXjEWPFBk9StLb6eKjyn9Lr6uq8jS26mCYqHejnUarSklsVAXnZZ/AFp+tSqaMI1wXj1Epzc9f1ofDjkfHv6VSefGnh7xHdPX+2V6RX9p5vOyr/xk+8Zjq0npfctmFmF7XkxBAAEEEEAAAQTaKiCejy8O6rtNHydGY5Hau2PXFv6c0QqzlR6P1uosnQ2pIT8paT50tmQgYLM7Ts0MVLetkI0Gk5VKzQ0BBBBAAIF9EGCVbRYgnFcfWBy5NG8MotfCOCz1cxUcDkZmaUDEbAQQQAABBBBAYCcCTu+8MYiekA+Ztjt2J2VhGQQQaFGA5AgggAACzQkQzmvk1OuJ+2ZculNmeXR6d4PoKevLrhq7eUVjD7IyhwcEEEAAAQQQQACBlgQqEtvKrmmWvz0a+IPR8apIylsEEEAAAQQQQKAjBfQwVUcWfq8KfToYH9QH0ROy4bgvVXcclsbFuhGLPNBSOc54GgxppiVs8el8vO7IVtWHWoufb3EtJEcAAQQ6V4CSI4BAFwv0eqIvGmPhFRLXql7TzBF8s3qPqLwTdat4rJ84c6tkwFCzO07NDFS3rcCNBpPt4o1M1RBAAAEEEDjIAoTzmtr6Tm86eUYfWPlRwltvHJYGGRZuRy8ko9rlbG2eqQv68C4NlmO2NQQoBQIIIIAAAgh0goA8iF7pNc12vzu2E2pNGRFAAAEEEEDAPAFL50Q4r8nNI3ouxf1H9MT5kPdDfexkfVq9561C/qts+reR8Wh/z+WJ9CM1rTh2MT7GIHoqBo8IIIAAAggggICpAmWD6Em7Y3+d4JxbU4HJDAEEqgowEQEEENgLAcJ5TSsf9cyVDKK3dsPtW97eJ1yLvLvtimM/O3To7Z7j7w1c+CQUu5fT1mdzBF5ei5/Xj/jTpvKEAAIIIIAAAgggYJaAI+hPGtc0E+763MmsWVmbnQ/5IYAAAggggAACLQgQzmsBSzgdTA279QXyiatVx2HR59d6ttld5+ZWfnhr9jliebWMmI4AAggg0IwAaRBAoJFAryf+vYDR5cosD1fbHdsoE+YjgAACCCCAAAIWEyCc19oG6bswXxxEbysTuhLObDWRg03sO+rynJucHV3d/MnDFZ/fZfQrm1iaJAiYKkBmCCCAAAIIHCSBZ2YXjUH0BGl3rC+xy2uaHSQ86ooAAggggAAC1hRoMpxnzcKbW6qSq4nVu0aY6Hl9s3i9s+CUq4ywxiXSfrq58eOVpG8q8IxTNAbgM7f45IYAAggggAACCBwsgZJ+15tBR+26O70rxc7bT5Mtjlzc7Fpqr585CCCAQIcJUFwEELC+QFksyvrFpYQIIIAAAggggAACCCBgQQGKhAACCCCAAAJ7JkA4b8+oWRECCCCAAAIIVArwHgEEEEAAAQQQQAABBFoVIJzXqhjpEUBg/wUoAQIIIIAAAggggAACCCCAAAIHVuAAhfMO7Dam4ggggAACCCCAAAIIIIAAAggcIAGqikC3CxDO6/YtTP0QQAABBBBAAAEEEECgGQHSIIAAAggg0CEChPM6ZENRTAQQQAABBBCwpgClQgABBBBAAAEEEEBgbwUI5+2tN2tDAAEEVAEeEUAAAQQQQAABBBBAAAEEENiRAOG8HbHt10KsFwEEEEAAAQQQQAABBBBAAAEEul+AGiJQT4BwXj0d5iGAAAIIIIAAAggggAACnSNASRFAAAEEDoQA4bwDsZmpJAIIIIAAAgggUFuAOQgggAACCCCAAAKdJEA4r5O2FmVFAAEErCRAWRBAAAEEEEAAAQQQQAABBPZBgHDePqAf7FVSewQQQAABBBBAAAEEEEAAAQQQ6H4Batg+AcJ57bMlZwQQQAABBBBAAAEEEEAAgdYESI0AAggg0FCAcF5DIhIggAACCCCAAAIIWF2A8iGAAAIIIIAAAgdHgHDewdnW1BQBBBBAoFKA9wgggAACCCCAAAIIIIBAxwkQzuu4TUaB91+AEiCAAAIIIIAAAggggAACCCCAQPcLWLWGhPOsumUoFwIIIIAAAggggAACCCCAQCcKUGYEEECgzQKE89oMTPYIIIAAAggggAACCDQjQBoEEEAAAQQQQKA5AcJ5zTmRCgEEEEAAAWsKUCoEEEAAAQQQQAABBBA4YAKE8w7YBqe6CKgCPCKAAAIIIIAAAggggAACCCCAQGcKtBLO68waUmoEEEAAAQQQQAABBBBAAAEEEGhFgLQIIGBpAcJ5lt48FA4BBBBAAAEEEEAAgc4RoKQIIIAAAgggsBcChPP2Qpl1IIAAAggggEBtAeYggAACCCCAAAIIIIBACwKE81rAIikCCFhJgLIggAACCCCAAAIIIIAAAgggcBAFDlo47yBuY+qMAAIIIIAAAggggAACCCCAwEEToL4IdLEA4bwu3rhUDQEEEEAAAQQQQAABBFoTIDUCCCCAAALWFyCcZ/1tRAkRQAABBBBAwOoClA8BBBBAAAEEEEAAgT0TIJy3Z9SsaHcCy75DPzuk3AYid3aXFUsjsBOBtci7agv0pZpcvIlG22ROe5TsxkSP9ikbjt7bo3WyGgQQQAABBOoKGL+/hw5dbvYXuG6GzESgRQG9RzeQXGtqyTuRAa1Ddci33NQS+5xoKz0xrfZyDw1/nNvnwrB6BBBoWoBwXtNUlklIQRBAYD8Fjjr693P17Vt3IfHHaEHN/tSE/4T6ikcEEEAAAQQQQAABWcDxV93ZByx8Fo0+liso2EYmvtOnvOLBSgKUBYEaAoTzasAwGYEWBEr2G7+fyLewoJy0cC8T+8A7+E5/z9vabrGeXwxciEdSd7TQipyI+/4LOBzHlEIcOS4qz932cC82qx33ag/83Zi926pHfXYoUPh8/Lh2iMHZ8M2WMyncSUXiFwbeOa4cWy1/xR1/Z9D7QSxzj++3ljFZAAEELCiwdnVQ+35725u432IBtwrZlcj4Pw30/1z+epTzeft4/3ve8G8zuUctZrU9OVNMFHh6wKnkJtq7sn+Ui2UWlPoJ9nOBsaPqSx4R4B9uB7QBwnkdsJEoosUF8p9OhIwY3t1A6POm/6bmlyLv9/dEB8dvpDIPcoUtraKFQjZ9M+SN9fS/H1lqtWuo5cHTbgXWrnq9yaW8vlGk7Ozq9+URsUd6o90K2Y+9g1eWtHed/JT9XUSrRm8w8Gwn14SymyiwlZm6HtO/3tamk5HmzjKSS1C4uzD+3w71xLyhm+nsAz0PQcg/yKRujA9GewbiC7mSz5e8DPd9F6AACCDQksD9xMRyRltiKxX4MNV0F7Cw9tn4wHTPwEeh2JfZYvBuK5/7KjX9yWD/LwbG/8A5jxrtXj89SI1HxxfulmxMm10pg/24+qy8EfKp0LveWBcMTnJrNqLVwhH8llutHI8I8A+3I9qArSNKSSERsK7A1lL4X5SRXLQPUz52NbTUxH/U/Bfh4feGQ3fr9dVyd0PD/89Emoje3m/+e7Hx5VRqefj4u8X+3HF1l+zRfu0kBKkb9996BhZTmVV/x4/nuJWO/kkL1IwMhdVd0M2qk657BXKfhKbV7x/1+y0fGr9e7yvLkMh9OuqIjcb+Ykyo8iJ7c9T5fizbxLdllYWZhAACCFhAYCkZSKlfYsqXZP6mL/SnJoq1lUv80nH2Wt0vwK1s7KrzwvVsE9mRxGSBpY98sXvSb5ijuFv3qKicZOtwaCdoyHtz+9/zRvKpiWTzMVyTy2lWdunf6/vqTk2Fz5qVK/l0uAD/cDtkAyo/Ph1SVorZPQJdVJPMh76ockKEe/j6jPob/yjqTzbqfv057LwybUT9nGdmkq9vPvzpkydvPXkYvHX9vKfP+Gjej462sLO3i2T3tSq59cyGWoC/FPtzfb0OdZogFNZ+Oyp347RoRTb+/2ZK9uHqqTrnOXc9HFXHTDkcCHy7dNdz59SBkpoucD/hX0zLuR4JJC/61a+39GfBBTXAJ8+ofs8vjvZf14+8s/UNDcytfH/z4VvK99ubq/PniuHifG7cd02LI1fPi6kIIICAZQVuhn1fKIcePz13/bxLKWY+en260V6KfOKX/b51fdeIfSj4wsqt4EOpB/jkpw83X5/3qyN7yNnl04u+jt9fKFeks+6ZlXtKR2grV9yt+5S+K1eqSn4p/J68N1c9wLyQiy18KU3t2Nu9aPjPah+WsVY6diO2oeBt+Id7i3+4bdhQghEzaEfm5IlAtwvci4XUY5p6J2decAe9k2q8J/t5o+7X10OxUzYLkgAAEABJREFU08q/Y9vQ5D9srr4e9JwR1XM57b0Otze58fqU8Zc3f3OqG47k76i20Dc4uzq5uTg85pS+I/X+nDosotO+IXXjzn6iRCtsdte5uZU3n6y87FK6fh1VyWJhs7M3tBNtHc8E3FKVi7N4dXAFjKNOPN+d8pyfiZ5UKB4n/B+m1I6/8r7Kg/jtKW3fhn0k/v2NxUt+V5+ofkDsonPEt7p5cUx9Ky2cWYmk1WNbpDfcEEAAgY4RyMU+nlZ2RzgmX/S7X4pN9ipFz4cb7aUQx16ccSk/tX2n4xs/Xpz5e5ejV/lStNnFMyNzP9qcP628lfLbyoT/RdmtIr0+iLd9qbMrENh4+MZ88ESfvHptt25aCdw6hVvS3tzh6a/kOcLRkcnv3Xr4k/mxp5W3nfnAWCudud3aXGr+4bYZ2MTslR8TE/MjKwQOkEB+4aMJ5Y+ofey/hOWe2bnw7DklSLeVCV1Vgz+1OETPa4szJ6X/uotT31AWqUh4enL263pnTliK/VHpMVak4W1bBWzi0IvxYlDvL7HwTfmgy+wX43I3Tg7kza/++OGKz++qtgHbWjSTM78RjWjHWw0Fv2OEkU1eCdl1mMD6tF896kScmX1eauLi2EXt/2f+5sRU/Wti2JxBf9J/cnIxUP1PjvjNyIxx6eTH0cSNDrOhuNYWoHQI7IVA/g/BCeWYLPuZ2fA5QbC5whe0o5gzyxMNrolxOpi+6Pc8u5j9r2N9Vf6KiSPfmxnSK1G4mVCGdNHf87wnAvaTIzNGUE/erRtRtsJCSN2be3RkZnTj4Y/npwYdRmd9T8pl9kpKxloZenaCLqDZvh2aH/9wO2nDVfkN6aTiU9aDLZC/FQv900D/tHY5sOPvDPqSqbVH1VHyyz79+oxS+oHp9erJlKn5xPtSGu12/HJK2SOnzCl9+FPYv64cpPL0bOS8+mtu97wc9aifqrv+wB+qL6flIf3jfaP6f101gfs/+9VMpbeZL+VAkvRij27LPvnyavLlLAci2tVO27nmO5EBeV0yuG+56RXdDPfrS41/riy1lY28K2eiFr7nlwv1NsDN8Fl98UNvD0ZqtQctqLcxpx6apKxHEKdW5EDeiNPYQur0Jh7zrTTabHJQrYv8OO2rd5KjtAM/Uqz7YMPTvYtFLST+GFXasSCcmvAbQZZiguqv5CuWXim7IvOh6f7+97zhjxcWfhsJXb4w8PPhisZj/mewetF2MFVfhJavSeRiybDypSMGLgTVg46FU8HYM+rLtelko7PJej1zb0wNqceqaHmWPvWNfsNtvF/8d3ZXGBi8QACB5gQeraWSvsF3jsu/j9Kv+XT/wD+FYrdq/OzfT/l+XvyJHPhI+XqrsZ78p14tTynbn/tS2u6u8tRbS+HrCfmn0+ae9XrUvoD9Of0o5q2U/0rdHoggiOfnkq8MSbtKyvPV350Y9RsHfG0tZvegJ6avWRBKrmV5OVWc3K5XO1tdJvyOvkHjWiHb0cfQgnr/oP8Oygji2ItyIC/4TJ9dftvCvXA3Fbk82K83xZ5fDFy4EsvUaLOC6Y22WkkLn0W1sVZsIxPfUY5GrJasctqjXOa3YZ/0F0yvi/SROf7OwIV4JPHZQvSDce97/T36dtGWbUcXXcvarKedNcUdr31nq9uTlt/F/3B3vLksvKAaeLBwASkaAlUFHmWj7/cf/9V45MtsTh3zS7lgYmLZezZyIVYtNCOej6eKx8Flw1fCmRpneOU/9fnu6mvtnUy/5qnW31qLXI8qP8HySRbFH8DesVlt/JRC4nrYGB1Pz66VZ9Gh/nVuZZnOTHvK6dILnvvf+mgy+pSaz/k1PanTqQahpAipb844V7SwPur7VNlE27OQgl8fqufIyPM8L6SDp+UXVe5bhexnoeF3+seNJiElyocHI4Pjv83kazQhKUmVW+uN1ulNzRkd+seJ0V/XPOQz8+GodskCacUn42lv03tY78Vmtf8J9sDfFU+BlLKpecsvRd7v74l5Q6upzINcwUB4nJOvx7c4OvpJKHI7nX1UiW/2Z7BmATtmhlVbfmFZO+pEOBmdeqbI6Xpp1n9EeZsPT3yif/6UCa0+9P1V8Vuz1WVJjwACB1wg/3lo4BdnvcuJzAP9h+ZxLvtlZPxXx8/+Rj0pslyo1xP/XsDoy2VXvOFahxjfT/g+0cJDguCYvBT3VNstsXbVH30kr8LxzEzJbrDiUcyFdX+4mWtiyHlUvff1H606vfsmOpyiXqkHG03/rmysPdCWcopO9VU7+hiFe+no5YGe3+hXipDXlE983O+IhVN35XCuPKGZ+1Y+dWWg531v6HbGuIpxoZBNr44Pvnd24obejEuzMrvRluatv87FMgvqa/u5wFhTTa6w9tn4wC/6Bz+ZTkh/wZRPgZpD/kE2fTPkuzY6cSOW+ipX0P+dqXMFmzNoehddy7pDnyzb8vmHW69FWXAe4TwLbhSK1EjgfnrivYGJuzV+9B+lx+MTVeNoQ5cWtRGdpDXcn3Zf0cYLk94Vb6U9OZtr5tKUfBZtcbb2Knd9PKT8+NrVkyy0yfKTwxg/5VHU92FGnsS9gYBj4JiWYuPBpvaq0dPafxh7113OU3rqE/75i2NGzzD1yWjVYQdLg1/imWRcPpdQz8F4lgN544M/7xm4FlmS+mx2j/+kHIBwnJ2Sh6l+nIl9Mnh8esD3cdromRmLVnmxw0bb538tOaYGUKRM7/pGq15X9GZ49IZ+fNORseSrRQFpofq3lsdMWY8MvzccKvn02e19fUelm6Feb4UmfgbrraZj5lmz5S+FPlaOOhGcMyWfJhn1qGfmux75hSCkF/0NziZT0/GIAAIImClQyF6/4PgwUutyE2tfXKj+Q/nM7KK2t1Uqzdr0laodxXzi1z7tSrWC4DqfnDonJd52uxcbX1F6IIfHZl8ydkcqyYpHMeej12ruNlaS8qAJOJ7S4nFCIddsFzCXVTaAnIPra8V93yb2MaRAXiTW3xO9MHFbXpXz3NiQvDZ3cFC+Wl3uzrT3/Z7+aGjhjtRBlGfUuQtb2dj7Du+qnE+VZFtr0Q+rd1YFExttlRULwq3ZyD11hiP4Lbf6qu5jPhV3nL0WK376bKLSA+zrO1x3OXWmiV10NcMOf7Rmy8/xD7fT2hXhvE7bYpRXEGLXLkTVcx/snpnRDeWCsMq1wIw9qI+iwapRD2nX0CszRngu/4VnonLfaUVPbr76QVsPUsHP0vKmKDnJQn6r3m3F8VPWbvgqzjdUkzT1WNg0ujV2+/GmFunURA6Hvu2yX+lhqUZ1yRe0a88K4qDeE5SXEc9H42f00NJWevxKrDLuWxb88scvefTU8uLqPf/5hBLIi2XkvYui+/zi5o+TkyflrbC25Zp7c3PxvNyfk7poicUL/b/oH/1tg2LvvNH2eqIvFsNz6UVfZYCy7EhD0X8x5tEx1brUe2x1zJT7Ce/l0JJ6OJ6tz3P++sY/Pnn4k42NH0u3zSdvSR/D5MypYse6yqrN+gxWyboTJ1mu5UuIxlEn4jdiQSNQLs1QbuLzs9pOka2Uf77BNTGUJao/FArK/hBlZr+9R3nmAQEENAGeagmI+fDwp2n168N5bn41+PDJW0+e/GTj+nm38VOe/mwqrf5OlefivBjXvr6k6Y+inm37dPOlJ2eIM/PVj3MvpJLquMmC+9sRz7YDmopHMd+f9l1t0DeQClLjVsgXj3vqF7etpcZSHTnZcVzvNvxltVmv+5t6F9A52FdSa1P6GI+yUSWQF7qj9B97/fNvPFz1+ZRSbvS7kmv+ef8xeaW5e5HRWE/Pu+Gl4saSp5ffxczS8HhOabM2p/+l1c1/fCI12oc/uD7Tp7fZrfTEx+nypbR3JjVaLbeKp/Tv9aMOTwQnzlbMrPI288Gg92ZOm3FMUnj45KebSg9wY2NS/hiuvBBw1Y3rmdJF1wrQ+U+Wa/kS6QP+4UoKHXYjnNdhG4ziCkI2q/wmiqfiGz9OykNXyK3YLp4ZmXu9eKLl0mq8ep/gdDA17NYZ89GPxlP64frSxNKenP30fPqi8tstzSi/Za5NJOQojyB+farkJItiIvtz+vgpQjb00bZwUjFhvVdr/2NB/80URv6PoXpJO36e3XFMH4Ekn62+4bbVceMvOs+xirOSRc9rqYBxRNuX457S/vRWJlw8zdY55Zvb3heXViWecGinCUj9lTc2rnuHRJuQzWelWfLNJg55i/05Yev48NnqTUVOLN931WjLzh+RApRxvfsl5yyUHmnoHFyce06XVObWfygYY6YcHgs3HjOlJNhtc029tpb0uvsMZ3lN0sfQE/y/GrVVMz6D8tq64W5myxcEE1q+cD8xoR51YnPPXKi6KR1B76Ta3Au3faHKPSLNbpX0/2eczub0/Ke+ZhcjHQIIHGyBfD4r9wFtrsl/2Fz1jTh77bKHvc/tvV4cUKXWBXakWI+v2FGU9umOf16QF1fvpSdnHB6b95cOl6amUB5vTk3cVpY6Eph6oU+ZVP5QchRzdmW8cg9cedqa77bSSb2PI321u5+qmbALZthF42oS2axR6/oVyxvDrbgcJ8uT7r6PccThOCy3MsEm7bZc3PzR3MhJu1ByPKD95Ehxt660cnHYVdYXkiaV3qQmq+QmTi7+aHXu205RSWx/2h18o9hZrXnBE1MabWlxjNcPEtGbSksW7GPf8vcZ02u9KNkXLp6Z33xzbuSU8ukz0tv7XH8f9DXYo2xGR8VYY4e/sFut5QsC/3A7sU3JgZBOLDdlPuACUiyvyuXATviLB9Pl1b+kVZz6LswnjaO3HsV8H+gHmJT25I6MzV8aEassLQh3Ir4bSsTJ5ol6q/7dlRYrjp8ifDnurzWCm5Sw1m1rKXIjq808HPAPai/NfbJObn3H9APs7htdNLV0SxPTymjH09rOcHWqIKxlld6R9LZPVGML0kv9Zhua9RUPw8wsjxrHSJYGv1zn5ydP64tUPJ8KxgZcnuHVh2o3Tp2rxHAFPeBol/pzP5IP03MNVDmISV2i9HE3jbbs/JF8aNQIUJb0rgSx1qEEpaUofV0cM8XxTLhqWLM0tXBrJqwPIOgcnJ88Yy+b28qb3X4GW1mXxdNarOUXUvN+9USz8gGhyhXPhWfPqd+OOz2b7F6sePGZEwHfqfL8eYcAAgjUEZBieZfSU8XRkLWkQ98J6z0JYfHflX6aNqfkqex0v3zs6oS+T7dkf5Ugjr0UHakelViLJLWBdz3fnRqq8S+q5Cjm9PgHNQe9LSlW5cvcJ5GEfoDh0IB6XFhlmu55f8Khb7jsmnbup1a5pd/0HPqZ1AnsmbihTVGfisOtHHU4tm2FXfcx7B7vrEcMJn+4kfTKe3PllT4WlNBXNquW0Cbv1t34/rxf9BjXQpGT1bpLsTz/tstD2YaCz+pV36p9wZPdNtrqZcr9bnZBbWO9wbB2Qb/qKZWphcQ/ay1fODwWl/4ibWNXkjXxsPsuehMr6YwkVmv5/PNXpCsAABAASURBVMPtjHZTWcqWP4uVGfAegb0XEGcW/+tYX7XG6zyh/y4KmdoXAhM9o3FjPLL8TZ9/WYoMlfbkag5+LAj5xNVQVqmyc3B2rHpvT5ktxYO0q0AKqX8O6P1FZVYTD9mkNsqylNb5XNBdrbLSrK65Of5G33CPNzfU7oVatz/FY2oQ7XFsoew4oPymfmrDwLF+NW3Z4+lgfFAf0WYrE5pXxtkpDX6dbHC9iKFLK8kXnSUhq9IzX4xVyf25lUu1orpGMkHYZaO1OYMl54nLAcp1QSg90tDmifuDzpbayY2pkNorFYaC39H9S4pc8XLpjxHt75FtJPzCthBqReoGb3fzGWyQdWfNtlbLN446ObxtQKgyVrvn5ahHbWw7OZssv/CREZ1v7qCAsrXzBgEEDrKAtLu0SixPFim5uFD2ntpTkydX3MtO95P26V5JyV3AktNsHc+m4+fFiqXUt/lPJ9Rxk6Xf9Nmqo+6q6YTiUczCXX9gWQkEabOaeLq/oI3oIqU93Myx81K6Tr71OfUuSGGz5IwZQViKa4ePFWL/VnYuanG4lV5HtS7grvsYJ/zJN2fKhmIpaAPgPFQ7par30yNzbyarnqajztcej4wlt8fylHmOr+k9VSG7UvvIxN00WmU92x620lN/0AYQH3p2QvfflsyY8FU8pl02TWhqB7CxYNUXu+6iV8218yZaq+XzD7fzWpBaYrU/rr7mEYGOEHBOvVIzbOH4G+N3sW5dej3xS9r5YnKE7uNA9KNRn37kUc3Bj+UsxbE3njx5S76tehtENFyv3FJTPpmMNz70Sc5cu+eXfcPGwYXi1PzFBivSFuvopz5j/LvMmr4hpApl/ue83guu6MxtrOl9Psdf90kpt9+c3nTcOAUjH/IloxNX9F2LUteqletFKJlvbKhrfLQpdf2VKc0/mNFoTwfTL3i0VUoByg+mo79x61ezlf7exOsFl7XFSp8KiT9GNdtTE407o0Imua4lF/pGR3Y/js/OP4Oltej815Zq+eembilfbo2/snrHkj+Vvwalr7iG34QVGymbdI/qbcl+Oh5tfFBARQa8RQCBThBoUxlPx2rF2gSheHGhuisXPa+lJ/XdsfnbvsDH06OfpLRFxJnkyzV7kuLzSelLT769WeNUXC0XQTC+Tt96GG/pW24rG4mNqiO6CIJ97MVoSx1IY/0d9cI5KGrlzfyHtt9Qfn8zOa/Hzgq3FkrHQ9woDrfSX70LaHofQz+9N1/Q+0JyEZu6j12Ie/T2VrnA0wONQ2nyMjtvtPLS2+7FsVZsIxONx1oRCqsLejy1b+xvmyvytpWWTjC7i16adwe9tlTL5x9uB7WcsqISzivj4E1HCNjrNNs6syrqdm4qaVzj7FFiYkX/nWr5jMWKfHf9dj3ivqqfmmFzzbwy2dohV62sfy05oJzFcKjyMZnQs8mGYtvmyic+DBinr+opd/d80qF3n/UTGeT8MvM3izsryzpzxUFMnM4TctJqd3Hs1eJlYTMrE1HtgL4WrxdRkfWDNX0A5ooZ9d6a0mjF5+PF88Tz4Yk/a3FF8Vw8VuNQgppluheb1Xa02gN/N2avmU6f8dXKkhrNFARnn6txen25es/79xmk5dfbLu2cJ++rWNav931k25gG7Vw1eSOAQDcI2Or8/tjr/dSWVt7mmrpkjMiRTyyGtVCR1OkarbnDuDSDtr3Op341rB0AKAjimfnoN8W2rSvlk7tz2/t4Z40CCLe9lf1DdZHLevTTnMI5HMqVJaTMioMUC0Lmv5eMPV12ikZxuBWnWDu01J4+xtr/br0PWOe/Sb32LHmU3MxstMWxVuznAmNN7KDN/Lv+L0lwDzZx0YySctd62Z4ueq21lU2n5Zdx7N2bPfyHu3eVssCa6nzBWKB0FAGBdgo4vfPFa5ypKzpce/BjNUG7H9djF+KhjHa2qTh2MV0cDbDdq97f/G0Oh96f2Liv7/m8NZ/QQ0hy6Uo7c8ZFzQSXs87AW72e2EV/RV/YOdja9SLkVct3R/BN9XCkuH6MnDx1b++i51LcrwyiXFyvOLX4qsdefN/Uq+zvItpZFr3BwLNNLPIgb3Rg+48eb2KBppJY8TPYVMHNS9QBLd+0yuZvTAyW7qvw1T5gwbR1khECCCBQTeB0cN7Yp6vNt4+9lA7W6VFoydr3lE//ZtB7W9tRJ4gzi695Kjow7Vv3/ubsEPVj7B7k9S5gdv5WcYeuIJSeopE3hltxfa3e+Stm9jHOx+WjMt960uoB6WbCmtVob81GtLFWHMFvGZcHrFfSTeOYxMPH+80KHpjZRa9XeCvP64CWbxbfgf2HaxZg7XzM+kTWXoMF51AkBDQBR/DFYGlXyT0crTH4sbZAe5++TIzGx9P6EWQjF7LxVg+5am/52pp7v0M/E8HY87mWXVBOurCPnfEo6y5EM/oOYf2sB0E0ztJVkmx7sD83M/N0yVR7MOatvS+3JKFFXx71zHy7tO8lBl9s/fjNrXT0TwqtIDQ1ZopkcS9rDETU91d6t1uavtubxT6Du63ODpY/KC0//0XY/WF0Td1XoYxkf1D2VeygUbAIAgi0X8DxUjRYuivs6dl2HgrXsD75pQ/cF77QfpoF+coJ+3ucYMMCm5mg/9iAlt2DDW3f4Z3Uwn15mv3MmNYFvBlTr9QkCMZwK87BBv2RbutjmNJo07+PaO3sRHCiqUPt1rJ6kFnodTQglzdas/e97aI3W6q9THdQWv6B/ofb9gZFOK/txKzAugJb2cjHEeMXSipn+rNASuk9SK/3+rYeuxDzLeixPPfzi/PPm/iLWb02Du+qurOx8tE7pi/gnPGrh6RVPK4GT+lJzHnuG3hK61brI1ivLdzMynnbRnzeES2CtR5XO3PFi5odc9TbMysI+eVA6Es5G+1eiASuKtlq7zvt6X4q8JlxyoNU+LzUhrNqiER619yt1TFT5FwP27XNI5EaO2nlGbu779NnkJa/u83W8tLycXlXprXjjm2OwMs1RrJvOWMWQAABBHYokL0aiOhHgslZfBkKyBdGk1/q9z17lo/LG76hD0TQG7he48oJphbIE1cHS618vFU8c+WMPlZgRZrX1QibacXp+5pT62PktaGj1/41pvbVRv42MqLulN1KxFeUNRaHW3E5jCGSlTmVD/vUx6gshnnvTWi0DxLRm1q7H3H5m/un0SMa54XsZPzomvXfpy46Lb/mFmnLjP34h9uWilg1U8J5Vt0ylKvtAvnSAUq0tT1KeGPKJVC193v1JH3TxYvH5UmxvOsXOvkIsh2x9R3Tq/xgQz6/4l5qXg21nvS6T3hHTiiZ6p0546JmfWLdaN56yUCESgbSQ2Z52LdvXXZp/bu4SR3TmDehxXz1fPKh4V+lVCp9Uv3nlsdMkbMTi2FT4/BJefqu7lb6DO6qIrtauOtbvhzLKx6XJ8XyVmafLT0qeld61luYEiGAQAcIlI3jqZU3n7jqjqxrb/bwSY7lFY/Lk2J535916+cr7GEx9nVVJxx6FzC38ZVUklzqthLNs414B/q854akSdIt8W8p6VEwhls56nDU+yPbbX0MUxpt7nezC+o+4MOBwLftsmfje1//UT3RjsaP1hcuf+6yLnp55Zp91/Utfz124cD/w222Mew0Xb1vwZ3myXIIdIBA/g+B0eIAJZMzZ/S/l/nQaFLpQ+xZJcq/6UYuZA9gLE/CdvyN3pcr5DYFIfevC+rgbiPOEbvQN/r1ss7chn5Rs4Fj/dKy1W9b2ekPSgYiPD/p0r7w8olrAfUkjuoL7vXUZteXTY6G9LideGZm0mizt0cDf9BnNMysOGaKc+q72lGPDRcSjooG9Np9Odxaa5HM/1K3W635xekW+gwWC7UPr7q75ZfH8lyTl1aI5e1DI2OVCCBQKnB/IXAtof1q2lyT58e0n9OtTOiD6VYPeC/NuPXX5bE8cXLxAMbyJLU+p94F3MjdF4Svkgvq4G4nR0eOCn0un9YFXFdO0TCGW+l1GD0TKY+KW7f1McxptNnZG1onzflc0K31iivkqrw9XjxDQ423VkkjT7q/lP6L/Nz43nVd9MZVrpqiu1s+/3CrbnSzJzb9OTZ7xeS3OwGW3p3AesR9LaEda25zz/mmgqPxsSNantmVPTx6az0yfLl4XN7YxbU9OMdWq6fVnvr0UfD+srom5JJ/Vk4ptY2MPifvPCzpzMUSD4qjeDj+utaJAvJe2bDWWxfEb6Ti3qn4oEur9OPEaGw/DsPUVr+TJ3mvrHYOiiAcCaReC069YlyYr5C41uQxBYXUv+hjppwKB5o/Y/qpAedhrdiF3KI26oo2ofgkFdJ9o9bMYjL5lXU+g3Jp9vXevS0/vzzuLB6X55p6bXHqG+K+WrNyBBA48ALyce6jiceag3s4NeWNxov7dMMtHvCu5bOjp3wq7iwelydOrf5gauigHZenwTkHtR+H7OqXQi6TULqAgrJDVxBOjPpOKOm2ErHPCiXDrfTX6gIKXdbHMKnRFpanIlK0VLK0jYRfqHt2i5Sm5OY4May/S6dv6S8rnuVC+tQhcSrmbHvbbV30bRVsfkJrLV/L91gntHz+4Wpbq+1PhPPaTswKLCewlQlfMQ7aEjwvzPulXkLZ9ZWUEy7utL/g8jddaEk96N3W5/euxb+pdWfav27rreGkQw+2ZbO30gvqgHd98o5ZuazFztxCcrVQUNEEp1PadvLsynv+U1/x8nC9k+lL8p7dsmuc5UPDv05pId3Kpa33/n7Cd1U/lEBwTF6aHZK+vEuvcbaVCcXHUw8alfxebOp2QUlkD/zdmBwoVd408TDkMWJ/+WisamdO6j0XC1k3S+t8BusWc49mdmnLl2N5V2M59aNqG5p5fWXyTCstbo/0WQ0CCBwsgcyHXuM4d+FkfP6CFBEqu2p8/rbXfbW5/VK7ksun4k7vTf1o96dmVn846dT3K+8q4/KFO+Sdw3FMK2n2P7LpW2o0z6Pu0BVKTtFY+J/pwmO1GyM4Rf2QPm1R/anr+hgmNdpc7PfaoQz2c4GxozpXE899/8ljWCf+VcukfDk5Qlf8ZJXPq3jXbV30iuq19rZLWz7/cFtrBrtKLf0j3NXyLIxApwlIvzfuaXXflCCIZ5Lx50W1Cvbn5tLP6ruqpODIfJuP3lqPDF42YnmOwMvZuQN0HVuVvPzR5nBofYuNtd/HlfFRBI9zxK6lKj3fdmpVO5jf5TRiTFoy5Wk94v5EzUAQbK6ZS1P6abaOoD/u0b/28jd9/o4YRG8rG4kVd3i6zienzinVFATHxXTcGAf6Ucx3JaUfj6glqHjK/i6inWXRGww8WzGzwVv3/zmip1iL/PNCxYryX4Sl9qxd60BPV+PZMp/BGuXb68nd2PLzyz5HUo/lHXHPvb7IdWz3ul3tYn0sikC3CkhfTW7jEPIjY8lX9dNsj3rmLk3qXUAhszza5kH08qnLDiOWJ/bNrQaCTr1z0q349evlEKW4qpxkIx+teEOBAAAPl0lEQVSN35VfCCd9I1q3sOx826l72pA4rq8ZW0xJrz10Wx/DtEZ7azainsIsOILfanqsFVX1lGekV30lCHemKj8dW7lEzFHcia4nrP7cZV306pVsYWoXtnz+4baw/U1IerB/OkwAJIsOE8hdHy3+3hwZi496xJIauF5OThnv861eYaAko4YvlW86I/bhODPpfpBe+Gyh7i2dbXjsVcP1WjpBv0PrK+SiN1NKST2+QT2aJ5R25hIJZbYg6ufnqm/Vx62liXjx6EvXYLwsjtA7Fn/JOCpNOQxzH8a9Vgva7OPSleHiDk9xJn7R2EUq5SCOvTo/pp8GKx9TUGfkx6109E/aEQdDz06U5iJl1PBm/3Z4sldLVVgfdf4ymrkn7yEv3M8uxAeO/2Zabc+uM2P1c7bKZ1CrihWeuq3lS/89HMmEEfB1f8N//G79LzdpbkY/RsUKW4QyIIBANwrci40WDyEXx16MevQfNbm256aSRp9C2qcb96X0Xb/yXDPvSizPGL75sDvwn49n/yB9Dda9/bnLvyP7jw2oxrmbUa0L6DR26ArCieL5tgnt7BnnoBYAVJfTHrutj2Feo03/PqJ1AU8EJ85qXE0/OUPf8uiJs+HLw6GVrHyizFYh96eI951+3x3lN//I2Fi1jaIvKAhd10UvVm2nr7qt5fMPd6ctYcfLEc7bMR0L7lZgH5Zfj3gW1QP4pZWL/ouxsp6cNM3mnCyORyZIwRHfp8rvkzTL1Nvaf4+psQ8117Vb46PXRhvdJlLy1b7UJbrysa9fP9VCUE/QK9kxK1e42JmT38n3Y45te2alvbKe6CN5pnwXZ+a9lcEl8ZvReWOUHKnLfiVcui3kpax0lyIjni/0RmhzzYxu24HfOxJ9ST++QBAyy97wzeoVKHwWjaqjBdlGJr5Tv8NVLQeba+qlgBHuzq1PDEZ7Dv3sUE9kYPSmtqu871wy/X8f1/qL1fIQLPMZrFq6fZrYbS1/8d+KsTyJNH3D1+jLTfr2m1mRknJDAAEE2iSwlY3Ex9Nq70IQxHPx2LZTIspG5HiU8P667KvMvHItxo1YnpTp4/T0x9J3YKPbUpd/R/b9td6h07ZR2Q5doeR8W62LKLgcxtkJEqN667I+homN9kEielPeBSs5jbj8rXcBBfH52NzT0tLKbWsp8tFAz9uHDr3d0z8f0kausQ3N+CJubfMpySofuq2LXlm/Hb3vspbf+B9ulT+8Xf8Pd0cto+mFCOc1TUXCThco3yMkfiM1p1xjobJapeORCULqkyavMFCZTWe/Px9/8tYT5bYaPLV3VakYBsV91m0vW3nxfFt1cp+od/7U94JQtlfW5p7zBStTyCnLRskR7k+7f5XSA2bybAvdy/bKCu7hVNXNIZ6Pxc8Zcba16StVjynIxTILatVaHTNFXUp+fGZ27aK/r+rvhq3Pc34x6/OIhU2twygvUH63/meQll++xXiHAAIIdIdA2XHuRwKpVz327RWzOYOjxjWmBOGuz13ngPfti3fJFEfwTbUH+OTJ68YBWe2v2wnj4rbKup4ecR9VXgiCoDwXL4mmvBWOOhwVvRHr9zHUkjf9aGKjzf1udkENtB0OBL5dpe03Uag+v3915qkaCY/557+/GDz9MG/sUN+W0PJddFr+tm3GhE4QqPgi7IQiU0YEdiJQvkeoV7s2QtWcysYj28qE2njCRdX1H9yJjq/pF8OQDdxjrsrdhxWduYFj/XJC4162V1a/yIkxt/RF+Sg5+dteK3bZt8oOJRC0EbtLq2G8tnteTRtnwgqPEt7t1+3dzZgpxnoEQfzm3MYPF2fPuY0Ru+12l+fZuZUfbiS9Q0ZMsWQJ4yWfQYOi8gUtv1KE9wjsUoDFESgRKDvOXdAvJ1WSoPjyVDD9QjGGlVke9nXEGLvFCnTsq1POsi7g172VXUDjFA21ir2O8i5gt/UxTG202dkb2sjJjmcC7h3/+z/iDP7w4a2XJj1P9dnVTGyi82n/zPduPfzR3MjT6oap8dhlXfQatdzJZFr+TtRYpiigfhaL73mFgEUFmjxqpmYy0fP6pnK4mbLLMTjlqtf2xbE3lGTqEWr/GK88J3fXRg7varEw6loaP+7pgXK7ruKOMihuPsn/un/7PsATgcUSqOvyBelKVnQ6uPJTaUHtltQvclKSouTlualbJVmtbDsntyTpTl8Wq1N329VKZnMW95BLRX2jeEZtlQLZXFNBreJy03qz8pzc3Y2ZUr5CcSjgu776j9rqHv5kJfmK31U3kqcsb63PoFKk8od9fFdsA5Jqx7d8z+tSLVq9xYt/oPdxQ7BqBBCwokCTR83UTCaej29KP6Pa7ZZxOamqdRWfT8o/o1rizfi2c3KrLtXKRE9cy7yV78m9PFCulcqYl7aMpbKDJ6+mLxAoEftBxRmjFutjnAqu6ls5fl4uffV77WRmNtob0Yg2EORQ8DuVQ9BUL1jNqXbHt6eSP9x4qPa3f7q5+oO54KDDXjO9PsNqXXS9XBZ47qqWzz/cvW9R9UIae18a1ohAhwlQXAQ6QqA4Zoo98N1A5R7vjqgChUQAAQQQQAABBBBoTaCQ+GNUHQXF/vWpwInWFiY1AghsE7DWBMJ51toelAYBBBAwXWDtkyltzJTeYOBZ07MnQwQQQAABBBBAAIFaAvs3/U506o66dkfwW271FY8IINA1AoTzumZTUhEEEECgmsBWOvK5duXZoWcndnmWRbUVMA0BBBBAwHQBMkQAAQR2K5D+l7DWBTwRnDi729xYHgEErCZAOM9qW4TyIIAAAqYK2Nyzk9pwM4svcqKtqbaWy4wCIYAAAggggAACmoD71YfaWJABxlrRTHhCoJsECOd109akLgjsQIBFEEAAAQQQQAABBBBAAAEEEECgkwR2Fs7rpBpSVgQQQAABBBBAAAEEEEAAAQQQ2JkASyGAgAUFCOdZcKNQJAQQQAABBBBAAAEEOluA0iOAAAIIIIBA+wQI57XPlpwRQACBgydwPq6N0vLWavDUwas+Nd61ABkggAACCCCAQAcKOIJvaoM1P3nd04Hlp8gIdJ4A4bzO22aUGAEEKgR4iwACCCCAAAIIIIAAAggggMDBETi44byDs42pKQIIIIAAAggggAACCCCAAAIHV4CaI9B1AoTzum6TUiEEEEAAAQQQQAABBBDYvQA5IIAAAgggYFUBwnlW3TKUCwEEEEAAAQQ6UYAyI4AAAggggAACCCDQZgHCeW0GJnsEEECgGQHSIIAAAggggAACCCCAAAIIINCcAOG85pysmYpSIYAAAggggAACCCCAAAIIIIBA9wtQQwTKBAjnlXHwBgEEEEAAAQQQQAABBBDoFgHqgQACCCDQnQKE87pzu1IrBBBAAAEEEEBgpwIshwACCCCAAAIIIGBpAcJ5lt48FA4BBBDoHAFKigACCCCAAAIIIIAAAgggsBcChPP2Qpl11BZgDgIIIIAAAggggAACCCCAAAIIdL8ANTRRgHCeiZhkhQACCCCAAAIIIIAAAgggYKYAeSGAAAIIbBcgnLfdhCkIIIAAAggggAACnS1A6RFAAAEEEEAAgS4WIJzXxRuXqiGAAAIItCZAagQQQAABBBBAAAEEEEDA+gKE86y/jSih1QUoHwIIIIAAAggggAACCCCAAAIIdL+AZWpIOM8ym4KCIIAAAggggAACCCCAAAIIdJ8ANUIAAQTMFiCcZ7Yo+SGAAAIIIIAAAgggsHsBckAAAQQQQAABBGoIEM6rAcNkBBBAAAEEOlGAMiOAAAIIIIAAAggggEC3CxDO6/YtTP0QaEaANAgggAACCCCAAAIIIIAAAggg0CECuwjndUgNKSYCCCCAAAIIIIAAAggggAACCOxCgEURQMBaAoTzrLU9KA0CCCCAAAIIIIAAAt0iQD0QQAABBBBAoC0ChPPawkqmCCCAAAIIILBTAZZDAAEEEEAAAQQQQACBegKE8+rpMA8BBDpHgJIigAACCCCAAAIIIIAAAgggcCAEDng470BsYyqJAAIIIIAAAggggAACCCCAwAEXoPoIdJMA4bxu2prUBQEEEEAAAQQQQAABBMwUIC8EEEAAAQQsKEA4z4IbhSIhgAACCCCAQGcLUHoEEEAAAQQQQAABBNonQDivfbbkjAACCLQmQGoEEEAAAQQQQAABBBBAAAEEGgoQzmtIZPUElA8BBBBAAAEEEEAAAQQQQAABBLpfgBoioAsQztMleEYAAQQQQAABBBBAAAEEuk+AGiGAAAIIdJ0A4byu26RUCAEEEEAAAQQQ2L0AOSCAAAIIIIAAAghYVYBwnlW3DOVCAAEEOlGAMiOAAAIIIIAAAggggAACCLRZgHBem4HJvhkB0iCAAAIIIIAAAggggAACCCCAQPcLUENzBAjnmeNILggggAACCCCAAAIIIIAAAu0RIFcEEEAAgTIBwnllHLxBAAEEEEAAAQQQ6BYB6oEAAggggAACCHSnAOG87tyu1AoBBBBAYKcCLIcAAggggAACCCCAAAIIWFqAcJ6lNw+F6xwBSooAAggggAACCCCAAAIIIIAAAt0vYIUaEs6zwlagDAgggAACCCCAAAIIIIAAAt0sQN0QQAABEwUI55mISVYIIIAAAggggAACCJgpQF4IIIAAAggggMB2AcJ5202YggACCCCAQGcLUHoEEEAAAQQQQAABBBDoYgHCeV28cakaAq0JkBoBBBBAAAEEEEAAAQQQQAABBKwvsNtwnvVrSAkRQAABBBBAAAEEEEAAAQQQQGC3AiyPAAKWESCcZ5lNQUEQQAABBBBAAAEEEOg+AWqEAAIIIIAAAmYLEM4zW5T8EEAAAQQQQGD3AuSAAAIIIIAAAggggAACNQQI59WAYTICCHSiAGVGAAEEEEAAAQQQQAABBBBAoNsFCOcJQrdvY+qHAAIIIIAAAggggAACCCCAAAKCgAECXSJAOK9LNiTVQAABBBBAAAEEEEAAgfYIkCsCCCCAAALWEiCcZ63tQWkQQAABBBBAoFsEqAcCCCCAAAIIIIAAAm0RIJzXFlYyRQABBHYqwHIIIIAAAggggAACCCCAAAII1BMgnFdPp3PmUVIEEEAAAQQQQAABBBBAAAEEEOh+AWqIgCRAOE9C4IYAAggggAACCCCAAAIIdLMAdUMAAQQQ6CYBwnndtDWpCwIIIIAAAgggYKYAeSGAAAIIIIAAAghYUIBwngU3CkVCAAEEOluA0iOAAAIIIIAAAggggAACCLRPgHBe+2zJuTUBUiOAAAIIIIAAAggggAACCCCAQPcLUMNdCxDO2zUhGSCAAAIIIIAAAggggAACCLRbgPwRQAABBHSB/x8AAP//xeAbRgAAAAZJREFUAwA+CkEunrUSoQAAAABJRU5ErkJggg==;" vertex="1" parent="1">
          <mxGeometry x="490.2" y="2230" width="279.6" height="90" as="geometry" />
        </mxCell>
        <mxCell id="cV3VLb_g4MpRarHLT8mB-173" value="\[{k_1} = \frac{{{n_1}}}{{{d_0}}} = \frac{{{d_1}}}{{{d_0}}}\]" style="text;html=1;align=left;verticalAlign=middle;whiteSpace=wrap;rounded=0;fontFamily=Comic Sans MS;fontSize=14;" vertex="1" parent="1">
          <mxGeometry x="631.25" y="2070" width="118.75" height="40" as="geometry" />
        </mxCell>
        <mxCell id="cV3VLb_g4MpRarHLT8mB-174" value="\[{k_2} = \frac{{{n_0}}}{{{d_0}}}\]" style="text;html=1;align=left;verticalAlign=middle;whiteSpace=wrap;rounded=0;fontFamily=Comic Sans MS;fontSize=14;" vertex="1" parent="1">
          <mxGeometry x="631.25" y="2110" width="118.75" height="40" as="geometry" />
        </mxCell>
        <mxCell id="cV3VLb_g4MpRarHLT8mB-175" value="\[{k_3} = \frac{{{d_2}}}{{{d_0}}}\]" style="text;html=1;align=left;verticalAlign=middle;whiteSpace=wrap;rounded=0;fontFamily=Comic Sans MS;fontSize=14;" vertex="1" parent="1">
          <mxGeometry x="631.25" y="2150" width="118.75" height="40" as="geometry" />
        </mxCell>
        <mxCell id="cV3VLb_g4MpRarHLT8mB-176" value="\[{k_4} = \frac{{{n_2}}}{{{d_0}}}\]" style="text;html=1;align=left;verticalAlign=middle;whiteSpace=wrap;rounded=0;fontFamily=Comic Sans MS;fontSize=14;" vertex="1" parent="1">
          <mxGeometry x="631.25" y="2190" width="118.75" height="40" as="geometry" />
        </mxCell>
        <mxCell id="cV3VLb_g4MpRarHLT8mB-177" value="" style="shape=curlyBracket;whiteSpace=wrap;html=1;rounded=1;labelPosition=left;verticalLabelPosition=middle;align=right;verticalAlign=middle;fontFamily=Comic Sans MS;" vertex="1" parent="1">
          <mxGeometry x="600" y="2070" width="20" height="160" as="geometry" />
        </mxCell>
        <mxCell id="cV3VLb_g4MpRarHLT8mB-178" value="&lt;span style=&quot;color: rgb(0, 0, 0); font-family: &amp;quot;Comic Sans MS&amp;quot;; font-size: 14px; font-style: normal; font-variant-ligatures: normal; font-variant-caps: normal; font-weight: 400; letter-spacing: normal; orphans: 2; text-align: left; text-indent: 0px; text-transform: none; widows: 2; word-spacing: 0px; -webkit-text-stroke-width: 0px; white-space: normal; text-decoration-thickness: initial; text-decoration-style: initial; text-decoration-color: initial; float: none; display: inline !important;&quot;&gt;令&lt;/span&gt;" style="text;whiteSpace=wrap;html=1;labelBackgroundColor=none;" vertex="1" parent="1">
          <mxGeometry x="568" y="2130" width="50" height="40" as="geometry" />
        </mxCell>
        <mxCell id="cV3VLb_g4MpRarHLT8mB-179" value="\[y\left( n \right) = {k_2}x\left( n \right) + {k_1}x\left( {n - 1} \right) + {k_4}x\left( {n - 2} \right) - {k_1}y\left( {n - 1} \right) - {k_3}y\left( {n - 2} \right)\]" style="text;html=1;align=left;verticalAlign=middle;whiteSpace=wrap;rounded=0;fontFamily=Comic Sans MS;fontSize=14;" vertex="1" parent="1">
          <mxGeometry x="62.13" y="2370" width="575.75" height="40" as="geometry" />
        </mxCell>
        <mxCell id="cV3VLb_g4MpRarHLT8mB-180" value="" style="endArrow=classic;html=1;rounded=0;entryX=0;entryY=0.5;entryDx=0;entryDy=0;" edge="1" parent="1" target="cV3VLb_g4MpRarHLT8mB-182">
          <mxGeometry width="50" height="50" relative="1" as="geometry">
            <mxPoint x="30" y="2470" as="sourcePoint" />
            <mxPoint x="90" y="2470" as="targetPoint" />
          </mxGeometry>
        </mxCell>
        <mxCell id="cV3VLb_g4MpRarHLT8mB-181" style="edgeStyle=orthogonalEdgeStyle;rounded=0;orthogonalLoop=1;jettySize=auto;html=1;exitX=1;exitY=0.5;exitDx=0;exitDy=0;entryX=0;entryY=0.5;entryDx=0;entryDy=0;" edge="1" parent="1" source="cV3VLb_g4MpRarHLT8mB-182" target="cV3VLb_g4MpRarHLT8mB-192">
          <mxGeometry relative="1" as="geometry" />
        </mxCell>
        <mxCell id="cV3VLb_g4MpRarHLT8mB-182" value="\[{k_2}\]" style="rounded=0;whiteSpace=wrap;html=1;" vertex="1" parent="1">
          <mxGeometry x="97.83" y="2450" width="34.17" height="40" as="geometry" />
        </mxCell>
        <mxCell id="cV3VLb_g4MpRarHLT8mB-183" style="edgeStyle=orthogonalEdgeStyle;rounded=0;orthogonalLoop=1;jettySize=auto;html=1;exitX=1;exitY=0.5;exitDx=0;exitDy=0;entryX=0.5;entryY=1;entryDx=0;entryDy=0;" edge="1" parent="1" source="cV3VLb_g4MpRarHLT8mB-184" target="cV3VLb_g4MpRarHLT8mB-196">
          <mxGeometry relative="1" as="geometry" />
        </mxCell>
        <mxCell id="cV3VLb_g4MpRarHLT8mB-184" value="\[{z^{ - 1}}\]" style="rounded=0;whiteSpace=wrap;html=1;" vertex="1" parent="1">
          <mxGeometry x="96.65999999999998" y="2580" width="34.17" height="30" as="geometry" />
        </mxCell>
        <mxCell id="cV3VLb_g4MpRarHLT8mB-185" style="edgeStyle=orthogonalEdgeStyle;rounded=0;orthogonalLoop=1;jettySize=auto;html=1;exitX=1;exitY=0.5;exitDx=0;exitDy=0;entryX=0.5;entryY=1;entryDx=0;entryDy=0;" edge="1" parent="1" source="cV3VLb_g4MpRarHLT8mB-186" target="cV3VLb_g4MpRarHLT8mB-198">
          <mxGeometry relative="1" as="geometry" />
        </mxCell>
        <mxCell id="cV3VLb_g4MpRarHLT8mB-186" value="\[{z^{ - 1}}\]" style="rounded=0;whiteSpace=wrap;html=1;" vertex="1" parent="1">
          <mxGeometry x="217.82999999999998" y="2580" width="34.17" height="30" as="geometry" />
        </mxCell>
        <mxCell id="cV3VLb_g4MpRarHLT8mB-187" style="edgeStyle=orthogonalEdgeStyle;rounded=0;orthogonalLoop=1;jettySize=auto;html=1;exitX=0;exitY=0.5;exitDx=0;exitDy=0;entryX=0.5;entryY=1;entryDx=0;entryDy=0;" edge="1" parent="1" source="cV3VLb_g4MpRarHLT8mB-188" target="cV3VLb_g4MpRarHLT8mB-200">
          <mxGeometry relative="1" as="geometry" />
        </mxCell>
        <mxCell id="cV3VLb_g4MpRarHLT8mB-188" value="\[{z^{ - 1}}\]" style="rounded=0;whiteSpace=wrap;html=1;" vertex="1" parent="1">
          <mxGeometry x="372.83" y="2580" width="34.17" height="30" as="geometry" />
        </mxCell>
        <mxCell id="cV3VLb_g4MpRarHLT8mB-189" style="edgeStyle=orthogonalEdgeStyle;rounded=0;orthogonalLoop=1;jettySize=auto;html=1;exitX=0;exitY=0.5;exitDx=0;exitDy=0;entryX=0.5;entryY=1;entryDx=0;entryDy=0;" edge="1" parent="1" source="cV3VLb_g4MpRarHLT8mB-190" target="cV3VLb_g4MpRarHLT8mB-202">
          <mxGeometry relative="1" as="geometry" />
        </mxCell>
        <mxCell id="cV3VLb_g4MpRarHLT8mB-190" value="\[{z^{ - 1}}\]" style="rounded=0;whiteSpace=wrap;html=1;" vertex="1" parent="1">
          <mxGeometry x="465.99999999999994" y="2580" width="34.17" height="30" as="geometry" />
        </mxCell>
        <mxCell id="cV3VLb_g4MpRarHLT8mB-191" value="" style="group" vertex="1" connectable="0" parent="1">
          <mxGeometry x="166" y="2460" width="20" height="20" as="geometry" />
        </mxCell>
        <mxCell id="cV3VLb_g4MpRarHLT8mB-192" value="" style="ellipse;whiteSpace=wrap;html=1;aspect=fixed;" vertex="1" parent="cV3VLb_g4MpRarHLT8mB-191">
          <mxGeometry width="20" height="20" as="geometry" />
        </mxCell>
        <mxCell id="cV3VLb_g4MpRarHLT8mB-193" value="" style="endArrow=none;html=1;rounded=0;entryX=1;entryY=1;entryDx=0;entryDy=0;exitX=0;exitY=0;exitDx=0;exitDy=0;" edge="1" parent="cV3VLb_g4MpRarHLT8mB-191" source="cV3VLb_g4MpRarHLT8mB-192" target="cV3VLb_g4MpRarHLT8mB-192">
          <mxGeometry width="50" height="50" relative="1" as="geometry">
            <mxPoint x="-19.99000000000001" as="sourcePoint" />
            <mxPoint x="30.00999999999999" y="-50" as="targetPoint" />
          </mxGeometry>
        </mxCell>
        <mxCell id="cV3VLb_g4MpRarHLT8mB-194" value="" style="endArrow=none;html=1;rounded=0;entryX=0;entryY=1;entryDx=0;entryDy=0;exitX=1;exitY=0;exitDx=0;exitDy=0;" edge="1" parent="cV3VLb_g4MpRarHLT8mB-191" source="cV3VLb_g4MpRarHLT8mB-192" target="cV3VLb_g4MpRarHLT8mB-192">
          <mxGeometry width="50" height="50" relative="1" as="geometry">
            <mxPoint x="-10" y="-10" as="sourcePoint" />
            <mxPoint x="29.99000000000001" y="-10" as="targetPoint" />
          </mxGeometry>
        </mxCell>
        <mxCell id="cV3VLb_g4MpRarHLT8mB-195" style="edgeStyle=orthogonalEdgeStyle;rounded=0;orthogonalLoop=1;jettySize=auto;html=1;exitX=0.5;exitY=0;exitDx=0;exitDy=0;entryX=0.5;entryY=1;entryDx=0;entryDy=0;" edge="1" parent="1" source="cV3VLb_g4MpRarHLT8mB-196" target="cV3VLb_g4MpRarHLT8mB-192">
          <mxGeometry relative="1" as="geometry" />
        </mxCell>
        <mxCell id="cV3VLb_g4MpRarHLT8mB-196" value="\[{k_1}\]" style="rounded=0;whiteSpace=wrap;html=1;" vertex="1" parent="1">
          <mxGeometry x="158.92" y="2510" width="34.17" height="40" as="geometry" />
        </mxCell>
        <mxCell id="cV3VLb_g4MpRarHLT8mB-197" style="edgeStyle=orthogonalEdgeStyle;rounded=0;orthogonalLoop=1;jettySize=auto;html=1;exitX=0.5;exitY=0;exitDx=0;exitDy=0;entryX=0.5;entryY=1;entryDx=0;entryDy=0;" edge="1" parent="1" source="cV3VLb_g4MpRarHLT8mB-198" target="cV3VLb_g4MpRarHLT8mB-204">
          <mxGeometry relative="1" as="geometry" />
        </mxCell>
        <mxCell id="cV3VLb_g4MpRarHLT8mB-198" value="\[{k_4}\]" style="rounded=0;whiteSpace=wrap;html=1;" vertex="1" parent="1">
          <mxGeometry x="254.91999999999996" y="2510" width="34.17" height="40" as="geometry" />
        </mxCell>
        <mxCell id="cV3VLb_g4MpRarHLT8mB-199" style="edgeStyle=orthogonalEdgeStyle;rounded=0;orthogonalLoop=1;jettySize=auto;html=1;exitX=0.5;exitY=0;exitDx=0;exitDy=0;entryX=0.5;entryY=1;entryDx=0;entryDy=0;" edge="1" parent="1" source="cV3VLb_g4MpRarHLT8mB-200" target="cV3VLb_g4MpRarHLT8mB-208">
          <mxGeometry relative="1" as="geometry" />
        </mxCell>
        <mxCell id="cV3VLb_g4MpRarHLT8mB-200" value="\[{k_1}\]" style="rounded=0;whiteSpace=wrap;html=1;" vertex="1" parent="1">
          <mxGeometry x="318.91999999999996" y="2510" width="34.17" height="40" as="geometry" />
        </mxCell>
        <mxCell id="cV3VLb_g4MpRarHLT8mB-201" style="edgeStyle=orthogonalEdgeStyle;rounded=0;orthogonalLoop=1;jettySize=auto;html=1;exitX=0.5;exitY=0;exitDx=0;exitDy=0;entryX=0.5;entryY=1;entryDx=0;entryDy=0;" edge="1" parent="1" source="cV3VLb_g4MpRarHLT8mB-202" target="cV3VLb_g4MpRarHLT8mB-212">
          <mxGeometry relative="1" as="geometry" />
        </mxCell>
        <mxCell id="cV3VLb_g4MpRarHLT8mB-202" value="\[{k_3}\]" style="rounded=0;whiteSpace=wrap;html=1;" vertex="1" parent="1">
          <mxGeometry x="425.99999999999994" y="2510" width="34.17" height="40" as="geometry" />
        </mxCell>
        <mxCell id="cV3VLb_g4MpRarHLT8mB-203" value="" style="group" vertex="1" connectable="0" parent="1">
          <mxGeometry x="261.75" y="2460" width="20" height="20" as="geometry" />
        </mxCell>
        <mxCell id="cV3VLb_g4MpRarHLT8mB-204" value="" style="ellipse;whiteSpace=wrap;html=1;aspect=fixed;" vertex="1" parent="cV3VLb_g4MpRarHLT8mB-203">
          <mxGeometry width="20" height="20" as="geometry" />
        </mxCell>
        <mxCell id="cV3VLb_g4MpRarHLT8mB-205" value="" style="endArrow=none;html=1;rounded=0;entryX=1;entryY=1;entryDx=0;entryDy=0;exitX=0;exitY=0;exitDx=0;exitDy=0;" edge="1" parent="cV3VLb_g4MpRarHLT8mB-203" source="cV3VLb_g4MpRarHLT8mB-204" target="cV3VLb_g4MpRarHLT8mB-204">
          <mxGeometry width="50" height="50" relative="1" as="geometry">
            <mxPoint x="-19.99000000000001" as="sourcePoint" />
            <mxPoint x="30.00999999999999" y="-50" as="targetPoint" />
          </mxGeometry>
        </mxCell>
        <mxCell id="cV3VLb_g4MpRarHLT8mB-206" value="" style="endArrow=none;html=1;rounded=0;entryX=0;entryY=1;entryDx=0;entryDy=0;exitX=1;exitY=0;exitDx=0;exitDy=0;" edge="1" parent="cV3VLb_g4MpRarHLT8mB-203" source="cV3VLb_g4MpRarHLT8mB-204" target="cV3VLb_g4MpRarHLT8mB-204">
          <mxGeometry width="50" height="50" relative="1" as="geometry">
            <mxPoint x="-10" y="-10" as="sourcePoint" />
            <mxPoint x="29.99000000000001" y="-10" as="targetPoint" />
          </mxGeometry>
        </mxCell>
        <mxCell id="cV3VLb_g4MpRarHLT8mB-207" value="" style="group" vertex="1" connectable="0" parent="1">
          <mxGeometry x="326" y="2460" width="20" height="20" as="geometry" />
        </mxCell>
        <mxCell id="cV3VLb_g4MpRarHLT8mB-208" value="" style="ellipse;whiteSpace=wrap;html=1;aspect=fixed;" vertex="1" parent="cV3VLb_g4MpRarHLT8mB-207">
          <mxGeometry width="20" height="20" as="geometry" />
        </mxCell>
        <mxCell id="cV3VLb_g4MpRarHLT8mB-209" value="" style="endArrow=none;html=1;rounded=0;entryX=1;entryY=1;entryDx=0;entryDy=0;exitX=0;exitY=0;exitDx=0;exitDy=0;" edge="1" parent="cV3VLb_g4MpRarHLT8mB-207" source="cV3VLb_g4MpRarHLT8mB-208" target="cV3VLb_g4MpRarHLT8mB-208">
          <mxGeometry width="50" height="50" relative="1" as="geometry">
            <mxPoint x="-19.99000000000001" as="sourcePoint" />
            <mxPoint x="30.00999999999999" y="-50" as="targetPoint" />
          </mxGeometry>
        </mxCell>
        <mxCell id="cV3VLb_g4MpRarHLT8mB-210" value="" style="endArrow=none;html=1;rounded=0;entryX=0;entryY=1;entryDx=0;entryDy=0;exitX=1;exitY=0;exitDx=0;exitDy=0;" edge="1" parent="cV3VLb_g4MpRarHLT8mB-207" source="cV3VLb_g4MpRarHLT8mB-208" target="cV3VLb_g4MpRarHLT8mB-208">
          <mxGeometry width="50" height="50" relative="1" as="geometry">
            <mxPoint x="-10" y="-10" as="sourcePoint" />
            <mxPoint x="29.99000000000001" y="-10" as="targetPoint" />
          </mxGeometry>
        </mxCell>
        <mxCell id="cV3VLb_g4MpRarHLT8mB-211" value="" style="group" vertex="1" connectable="0" parent="1">
          <mxGeometry x="433.08" y="2460" width="20" height="20" as="geometry" />
        </mxCell>
        <mxCell id="cV3VLb_g4MpRarHLT8mB-212" value="" style="ellipse;whiteSpace=wrap;html=1;aspect=fixed;" vertex="1" parent="cV3VLb_g4MpRarHLT8mB-211">
          <mxGeometry width="20" height="20" as="geometry" />
        </mxCell>
        <mxCell id="cV3VLb_g4MpRarHLT8mB-213" value="" style="endArrow=none;html=1;rounded=0;entryX=1;entryY=1;entryDx=0;entryDy=0;exitX=0;exitY=0;exitDx=0;exitDy=0;" edge="1" parent="cV3VLb_g4MpRarHLT8mB-211" source="cV3VLb_g4MpRarHLT8mB-212" target="cV3VLb_g4MpRarHLT8mB-212">
          <mxGeometry width="50" height="50" relative="1" as="geometry">
            <mxPoint x="-19.99000000000001" as="sourcePoint" />
            <mxPoint x="30.00999999999999" y="-50" as="targetPoint" />
          </mxGeometry>
        </mxCell>
        <mxCell id="cV3VLb_g4MpRarHLT8mB-214" value="" style="endArrow=none;html=1;rounded=0;entryX=0;entryY=1;entryDx=0;entryDy=0;exitX=1;exitY=0;exitDx=0;exitDy=0;" edge="1" parent="cV3VLb_g4MpRarHLT8mB-211" source="cV3VLb_g4MpRarHLT8mB-212" target="cV3VLb_g4MpRarHLT8mB-212">
          <mxGeometry width="50" height="50" relative="1" as="geometry">
            <mxPoint x="-10" y="-10" as="sourcePoint" />
            <mxPoint x="29.99000000000001" y="-10" as="targetPoint" />
          </mxGeometry>
        </mxCell>
        <mxCell id="cV3VLb_g4MpRarHLT8mB-215" style="edgeStyle=orthogonalEdgeStyle;rounded=0;orthogonalLoop=1;jettySize=auto;html=1;exitX=0.5;exitY=1;exitDx=0;exitDy=0;entryX=0;entryY=0.5;entryDx=0;entryDy=0;" edge="1" parent="1" source="cV3VLb_g4MpRarHLT8mB-216" target="cV3VLb_g4MpRarHLT8mB-184">
          <mxGeometry relative="1" as="geometry" />
        </mxCell>
        <mxCell id="cV3VLb_g4MpRarHLT8mB-216" value="x（n）" style="rounded=0;whiteSpace=wrap;html=1;strokeColor=none;fillColor=none;" vertex="1" parent="1">
          <mxGeometry x="41" y="2450" width="39" height="20" as="geometry" />
        </mxCell>
        <mxCell id="cV3VLb_g4MpRarHLT8mB-217" style="edgeStyle=orthogonalEdgeStyle;rounded=0;orthogonalLoop=1;jettySize=auto;html=1;exitX=1;exitY=0.5;exitDx=0;exitDy=0;entryX=0;entryY=0.5;entryDx=0;entryDy=0;" edge="1" parent="1" source="cV3VLb_g4MpRarHLT8mB-192" target="cV3VLb_g4MpRarHLT8mB-204">
          <mxGeometry relative="1" as="geometry" />
        </mxCell>
        <mxCell id="cV3VLb_g4MpRarHLT8mB-218" value="" style="endArrow=classic;html=1;rounded=0;entryX=0;entryY=0.5;entryDx=0;entryDy=0;exitX=1;exitY=0.5;exitDx=0;exitDy=0;" edge="1" parent="1" source="cV3VLb_g4MpRarHLT8mB-184" target="cV3VLb_g4MpRarHLT8mB-186">
          <mxGeometry width="50" height="50" relative="1" as="geometry">
            <mxPoint x="146" y="2590" as="sourcePoint" />
            <mxPoint x="236" y="2550" as="targetPoint" />
          </mxGeometry>
        </mxCell>
        <mxCell id="cV3VLb_g4MpRarHLT8mB-219" value="" style="shape=waypoint;sketch=0;fillStyle=solid;size=6;pointerEvents=1;points=[];fillColor=none;resizable=0;rotatable=0;perimeter=centerPerimeter;snapToPoint=1;" vertex="1" parent="1">
          <mxGeometry x="166" y="2585" width="20" height="20" as="geometry" />
        </mxCell>
        <mxCell id="cV3VLb_g4MpRarHLT8mB-220" style="edgeStyle=orthogonalEdgeStyle;rounded=0;orthogonalLoop=1;jettySize=auto;html=1;exitX=1;exitY=0.5;exitDx=0;exitDy=0;entryX=0;entryY=0.5;entryDx=0;entryDy=0;" edge="1" parent="1" source="cV3VLb_g4MpRarHLT8mB-204" target="cV3VLb_g4MpRarHLT8mB-208">
          <mxGeometry relative="1" as="geometry" />
        </mxCell>
        <mxCell id="cV3VLb_g4MpRarHLT8mB-221" style="edgeStyle=orthogonalEdgeStyle;rounded=0;orthogonalLoop=1;jettySize=auto;html=1;exitX=1;exitY=0.5;exitDx=0;exitDy=0;entryX=0;entryY=0.5;entryDx=0;entryDy=0;" edge="1" parent="1" source="cV3VLb_g4MpRarHLT8mB-208" target="cV3VLb_g4MpRarHLT8mB-212">
          <mxGeometry relative="1" as="geometry" />
        </mxCell>
        <mxCell id="cV3VLb_g4MpRarHLT8mB-222" value="" style="endArrow=classic;html=1;rounded=0;exitX=1;exitY=0.5;exitDx=0;exitDy=0;entryX=1;entryY=1;entryDx=0;entryDy=0;" edge="1" parent="1" source="cV3VLb_g4MpRarHLT8mB-212" target="cV3VLb_g4MpRarHLT8mB-224">
          <mxGeometry width="50" height="50" relative="1" as="geometry">
            <mxPoint x="376" y="2520" as="sourcePoint" />
            <mxPoint x="476" y="2470" as="targetPoint" />
          </mxGeometry>
        </mxCell>
        <mxCell id="cV3VLb_g4MpRarHLT8mB-223" style="edgeStyle=orthogonalEdgeStyle;rounded=0;orthogonalLoop=1;jettySize=auto;html=1;exitX=0.5;exitY=1;exitDx=0;exitDy=0;entryX=1;entryY=0.5;entryDx=0;entryDy=0;" edge="1" parent="1" source="cV3VLb_g4MpRarHLT8mB-224" target="cV3VLb_g4MpRarHLT8mB-190">
          <mxGeometry relative="1" as="geometry" />
        </mxCell>
        <mxCell id="cV3VLb_g4MpRarHLT8mB-224" value="y（n）" style="rounded=0;whiteSpace=wrap;html=1;strokeColor=none;fillColor=none;" vertex="1" parent="1">
          <mxGeometry x="516" y="2450" width="39" height="20" as="geometry" />
        </mxCell>
        <mxCell id="cV3VLb_g4MpRarHLT8mB-225" value="" style="endArrow=classic;html=1;rounded=0;entryX=1;entryY=0.5;entryDx=0;entryDy=0;exitX=0;exitY=0.5;exitDx=0;exitDy=0;" edge="1" parent="1" source="cV3VLb_g4MpRarHLT8mB-190" target="cV3VLb_g4MpRarHLT8mB-188">
          <mxGeometry width="50" height="50" relative="1" as="geometry">
            <mxPoint x="516" y="2550" as="sourcePoint" />
            <mxPoint x="566" y="2500" as="targetPoint" />
          </mxGeometry>
        </mxCell>
        <mxCell id="cV3VLb_g4MpRarHLT8mB-226" value="" style="shape=waypoint;sketch=0;fillStyle=solid;size=6;pointerEvents=1;points=[];fillColor=none;resizable=0;rotatable=0;perimeter=centerPerimeter;snapToPoint=1;" vertex="1" parent="1">
          <mxGeometry x="433.08" y="2585" width="20" height="20" as="geometry" />
        </mxCell>
        <mxCell id="cV3VLb_g4MpRarHLT8mB-227" value="+" style="text;html=1;align=center;verticalAlign=middle;whiteSpace=wrap;rounded=0;fontSize=20;" vertex="1" parent="1">
          <mxGeometry x="136.75" y="2450" width="24.25" height="20" as="geometry" />
        </mxCell>
        <mxCell id="cV3VLb_g4MpRarHLT8mB-228" value="+" style="text;html=1;align=center;verticalAlign=middle;whiteSpace=wrap;rounded=0;fontSize=20;" vertex="1" parent="1">
          <mxGeometry x="171" y="2490" width="24.25" height="20" as="geometry" />
        </mxCell>
        <mxCell id="cV3VLb_g4MpRarHLT8mB-229" value="+" style="text;html=1;align=center;verticalAlign=middle;whiteSpace=wrap;rounded=0;fontSize=20;" vertex="1" parent="1">
          <mxGeometry x="230.67000000000002" y="2450" width="24.25" height="20" as="geometry" />
        </mxCell>
        <mxCell id="cV3VLb_g4MpRarHLT8mB-230" value="+" style="text;html=1;align=center;verticalAlign=middle;whiteSpace=wrap;rounded=0;fontSize=20;" vertex="1" parent="1">
          <mxGeometry x="251.75" y="2480" width="24.25" height="20" as="geometry" />
        </mxCell>
        <mxCell id="cV3VLb_g4MpRarHLT8mB-231" value="+" style="text;html=1;align=center;verticalAlign=middle;whiteSpace=wrap;rounded=0;fontSize=20;" vertex="1" parent="1">
          <mxGeometry x="301.75" y="2450" width="24.25" height="20" as="geometry" />
        </mxCell>
        <mxCell id="cV3VLb_g4MpRarHLT8mB-232" value="-" style="text;html=1;align=center;verticalAlign=middle;whiteSpace=wrap;rounded=0;fontSize=20;" vertex="1" parent="1">
          <mxGeometry x="313.87" y="2480" width="24.25" height="20" as="geometry" />
        </mxCell>
        <mxCell id="cV3VLb_g4MpRarHLT8mB-233" value="+" style="text;html=1;align=center;verticalAlign=middle;whiteSpace=wrap;rounded=0;fontSize=20;" vertex="1" parent="1">
          <mxGeometry x="408" y="2452" width="24.25" height="20" as="geometry" />
        </mxCell>
        <mxCell id="cV3VLb_g4MpRarHLT8mB-234" value="-" style="text;html=1;align=center;verticalAlign=middle;whiteSpace=wrap;rounded=0;fontSize=20;" vertex="1" parent="1">
          <mxGeometry x="420.12" y="2482" width="24.25" height="20" as="geometry" />
        </mxCell>
        <mxCell id="cV3VLb_g4MpRarHLT8mB-236" value="&lt;br&gt;&lt;span style=&quot;color: rgb(0, 0, 0); font-size: 14px; float: none; display: inline !important;&quot;&gt;&amp;nbsp; &amp;nbsp; 汇川SV620代码中将模拟陷波器进行离散化时，使用到了预畸变，这也是代码中三角函数的来源。&lt;/span&gt;&lt;br&gt;&lt;div&gt;&lt;span style=&quot;font-size: 14px;&quot;&gt;&lt;br&gt;&lt;/span&gt;&lt;/div&gt;&lt;div&gt;&lt;span style=&quot;font-size: 14px;&quot;&gt;&amp;nbsp; &amp;nbsp; 安川SGD7代码中将离散化后的分子分母系数转变到k1、k2、k3、k4，写入到ASIC指定地址，数字陷波器的运算在ASIC&amp;nbsp; 内执行。&lt;/span&gt;&lt;/div&gt;&lt;div&gt;&lt;br&gt;&lt;/div&gt;" style="rounded=0;whiteSpace=wrap;html=1;align=left;labelBackgroundColor=none;" vertex="1" parent="1">
          <mxGeometry x="31" y="2660" width="759" height="100" as="geometry" />
        </mxCell>
        <mxCell id="cV3VLb_g4MpRarHLT8mB-237" value="\[20\lg A =&amp;nbsp; - 3 \Rightarrow A = {10^{\frac{{ - 3}}{{20}}}} = 0.707946 \approx \frac{{\sqrt 2 }}{2}\]" style="text;html=1;align=left;verticalAlign=middle;whiteSpace=wrap;rounded=0;fontFamily=Comic Sans MS;fontSize=10;fontColor=#994C00;" vertex="1" parent="1">
          <mxGeometry x="520" y="700" width="246" height="40" as="geometry" />
        </mxCell>
      </root>
    </mxGraphModel>
  </diagram>
</mxfile>
